<?xml version="1.0" encoding="UTF-8"?>
<svg version="1.1" xmlns="http://www.w3.org/2000/svg" width="1024" height="1024">
<path d="M0 0 C1.05465454 -0.01051392 1.05465454 -0.01051392 2.13061523 -0.02124023 C4.44498697 -0.03878399 6.75812651 -0.02721034 9.07250977 -0.01367188 C10.68767022 -0.01636816 12.30282909 -0.02025173 13.91798401 -0.02526855 C17.29980962 -0.03115891 20.68121197 -0.02261708 24.06298828 -0.00390625 C28.38854708 0.0188652 32.71311208 0.00576947 37.0386343 -0.01819611 C40.37335127 -0.03268249 43.70783448 -0.02803488 47.04255867 -0.01768494 C48.63689353 -0.01502452 50.2312499 -0.01826324 51.82555962 -0.02760315 C54.0587533 -0.03781419 56.29036129 -0.02220633 58.5234375 0 C59.79186996 0.00318237 61.06030243 0.00636475 62.36717224 0.00964355 C66.52495745 0.62014775 68.61373647 1.83532824 71.82641602 4.51757812 C74.53001805 8.2496651 75.19959029 10.81627032 75.18717957 15.39582825 C75.19336555 17.16048935 75.19336555 17.16048935 75.19967651 18.96080017 C75.18889069 20.24257645 75.17810486 21.52435272 75.16699219 22.8449707 C75.16614551 24.21514874 75.16662184 25.58532813 75.1683197 26.95550537 C75.16917952 30.66802052 75.15155617 34.38024418 75.13059783 38.09269166 C75.11182867 41.97508401 75.1100804 45.85748323 75.10652161 49.73991394 C75.09720183 57.088625 75.072589 64.43720199 75.04247314 71.78585404 C75.008927 80.15338557 74.99244259 88.52092353 74.97738683 96.88850558 C74.94603935 114.09827395 74.89328021 131.30791185 74.82641602 148.51757812 C75.89902097 148.50928199 75.89902097 148.50928199 76.99329472 148.50081825 C94.40375167 148.36823155 111.81408017 148.26898494 129.22493076 148.20670509 C137.64476734 148.17578531 146.06426664 148.13364119 154.48388672 148.06494141 C161.82365441 148.00508129 169.16317781 147.96641531 176.50318283 147.95304716 C180.38872172 147.94523437 184.27356182 147.92691335 188.15887642 147.88319778 C191.81899687 147.84235117 195.47813342 147.82993268 199.13846016 147.83893204 C201.11606549 147.83650448 203.09356458 147.80427858 205.07089233 147.77105713 C214.79615484 147.83859969 214.79615484 147.83859969 219.11680603 151.43515015 C222.89154069 155.30206764 222.95870683 157.96785271 222.98754883 163.35058594 C222.99251373 164.05325089 222.99747864 164.75591583 223.00259399 165.47987366 C223.01722703 167.81016004 223.02402055 170.14037829 223.02954102 172.47070312 C223.03529287 174.09014895 223.0410506 175.70959475 223.04681396 177.32904053 C223.05732811 180.72864093 223.06316762 184.12821766 223.06665039 187.52783203 C223.0721268 191.87681226 223.09613461 196.22547809 223.12462234 200.57435989 C223.1432817 203.92188416 223.14845614 207.26933334 223.14998627 210.61690521 C223.15300742 212.21962955 223.16101781 213.82235273 223.17417145 215.42502594 C223.19129644 217.67258805 223.18933604 219.91939064 223.18286133 222.16699219 C223.18650696 223.44447327 223.19015259 224.72195435 223.19390869 226.03814697 C222.78309119 229.92777878 221.96921146 232.25220947 219.82641602 235.51757812 C216.10457434 238.25312437 213.492301 238.89067019 208.91020203 238.87834167 C207.72534714 238.88246567 206.54049225 238.88658966 205.31973267 238.89083862 C204.02860565 238.8800528 202.73747864 238.86926697 201.40722656 238.8581543 C200.02719644 238.85730763 198.64716496 238.85778394 197.26713562 238.85948181 C193.52776269 238.86034166 189.78867914 238.84271771 186.04937339 238.82175994 C182.13895371 238.8029914 178.22852722 238.80124256 174.31806946 238.79768372 C166.91623491 238.78836376 159.51453347 238.76375069 152.1127575 238.73363525 C143.6847675 238.70008967 135.2567711 238.68360484 126.82873094 238.66854894 C109.494549 238.63720105 92.16049659 238.58444156 74.82641602 238.51757812 C74.83010319 239.22326242 74.83379036 239.92894672 74.83758926 240.6560154 C74.92595398 257.83250453 74.99213223 275.00893588 75.0336647 292.18560219 C75.05428373 300.49214469 75.08239161 308.7985354 75.12817383 317.10498047 C75.16806192 324.3454878 75.19385363 331.58588519 75.20276999 338.82649934 C75.20798145 342.65985816 75.22021615 346.49290248 75.24933624 350.32616043 C75.27653678 353.93606809 75.28485182 357.54553243 75.27884674 361.15553284 C75.28046757 363.10821188 75.30196615 365.06084291 75.32409668 367.01339722 C75.27273349 377.93682439 75.27273349 377.93682439 70.82641602 382.51757812 C66.87678247 385.68385127 63.73203348 385.90007116 58.74462891 385.92163086 C58.05127945 385.92849411 57.35792999 385.93535736 56.64356995 385.94242859 C54.36185974 385.96066259 52.08083939 385.95686417 49.79907227 385.95117188 C48.20633217 385.95573544 46.61359404 385.96104153 45.02085876 385.96705627 C41.68618764 385.97598075 38.35175609 385.97357206 35.01708984 385.96362305 C30.75209631 385.95213588 26.48793105 385.97234364 22.2230463 386.00154018 C18.9346749 386.01992195 15.64650126 386.01960581 12.35809135 386.01390266 C10.78607458 386.01374968 9.21404421 386.01977509 7.64207649 386.03219414 C5.44006125 386.04714017 3.23956662 386.03640288 1.03759766 386.01928711 C-0.21306992 386.01912094 -1.46373749 386.01895477 -2.75230408 386.01878357 C-6.88963584 385.41267905 -8.97462252 384.18393522 -12.17358398 381.51757812 C-14.86631507 377.7973291 -15.54680676 375.24152035 -15.53434753 370.67729187 C-15.54053352 368.925252 -15.54053352 368.925252 -15.54684448 367.13781738 C-15.53605865 365.86539185 -15.52527283 364.59296631 -15.51416016 363.28198242 C-15.51331347 361.92165648 -15.51378983 360.56132917 -15.51548767 359.20100403 C-15.51634745 355.51534664 -15.49872472 351.82998291 -15.4777658 348.14439368 C-15.45899602 344.29002867 -15.45724832 340.43565672 -15.45368958 336.58125305 C-15.44436998 329.28566547 -15.41975741 321.99021295 -15.38964111 314.6946848 C-15.35609439 306.38761176 -15.33961041 298.08053223 -15.3245548 289.77340829 C-15.29320774 272.68805348 -15.24044896 255.60283009 -15.17358398 238.51757812 C-15.89565127 238.5212653 -16.61771856 238.52495247 -17.36166668 238.52875137 C-34.93003041 238.61708341 -52.49833775 238.68327843 -70.0668745 238.72482681 C-78.56289329 238.7454533 -87.05876385 238.77357545 -95.5546875 238.81933594 C-102.95962428 238.85920118 -110.36445372 238.88501032 -117.76949483 238.8939321 C-121.69056791 238.89914743 -125.61133391 238.91140679 -129.53230858 238.94049835 C-133.22346737 238.96766274 -136.91419279 238.97602121 -140.60544205 238.97000885 C-142.60483071 238.97163277 -144.60417225 238.99315025 -146.60343933 239.01525879 C-147.79670837 239.00976013 -148.98997742 239.00426147 -150.21940613 238.99859619 C-151.25457965 239.00228336 -152.28975317 239.00597054 -153.35629559 239.00976944 C-157.49912785 238.28600042 -160.03742638 236.09433064 -162.46792603 232.72129822 C-163.48930129 229.53161523 -163.4446124 226.60457058 -163.46411133 223.25805664 C-163.47082855 222.53398621 -163.47754578 221.80991577 -163.48446655 221.06390381 C-163.50343619 218.67469386 -163.50737 216.2857649 -163.50952148 213.89648438 C-163.5159495 212.23265976 -163.52267786 210.56883628 -163.5296936 208.90501404 C-163.5416633 205.41898986 -163.54537468 201.93306476 -163.54418945 198.44702148 C-163.54398613 193.98353332 -163.5713027 189.52068092 -163.60573387 185.05734348 C-163.62798653 181.6214863 -163.63202752 178.18578263 -163.63097 174.74986076 C-163.63332787 173.10443872 -163.64216193 171.45901256 -163.65763474 169.81366158 C-163.67726516 167.5108209 -163.67146983 165.20935771 -163.65942383 162.90649414 C-163.66227386 161.59729507 -163.6651239 160.28809601 -163.6680603 158.93922424 C-163.08997082 154.93899703 -161.99888704 153.35081529 -159.17358398 150.51757812 C-155.7359916 148.22584987 -154.50292978 148.26988151 -150.45991516 148.27706909 C-149.26939545 148.27431976 -148.07887573 148.27157043 -146.85227966 148.26873779 C-145.54461136 148.27592834 -144.23694305 148.2831189 -142.88964844 148.29052734 C-141.50006112 148.29109143 -140.1104732 148.29077495 -138.72088623 148.28964233 C-134.9463388 148.28906772 -131.17191808 148.30083954 -127.39740014 148.31479025 C-123.45359452 148.32727955 -119.50978609 148.32846668 -115.56596375 148.33084106 C-108.09680809 148.33706114 -100.62771087 148.35347907 -93.15858096 148.37354004 C-84.65565841 148.39588266 -76.15273309 148.40688835 -67.6497885 148.41693091 C-50.15768651 148.43784485 -32.66564142 148.47303105 -15.17358398 148.51757812 C-15.17634936 147.8058183 -15.17911474 147.09405848 -15.18196392 146.36073017 C-15.24821457 129.04270579 -15.29786008 111.72471359 -15.3290205 94.40659046 C-15.34448994 86.03167482 -15.36558092 77.65684377 -15.39990234 69.28198242 C-15.42980236 61.9825215 -15.44915843 54.68312183 -15.45584947 47.38360137 C-15.45976072 43.51847767 -15.46895421 39.65352922 -15.49077415 35.78846169 C-15.5111489 32.14988162 -15.51741584 28.51154887 -15.51290703 24.87291718 C-15.51412481 22.90217942 -15.5302618 20.93146854 -15.54684448 18.96080017 C-15.54272049 17.78435944 -15.5385965 16.6079187 -15.53434753 15.39582825 C-15.53711291 14.37540341 -15.53987829 13.35497858 -15.54272747 12.30363178 C-14.96357438 7.93256297 -12.97236621 5.3309866 -9.93443298 2.23742676 C-6.41235613 0.04337737 -4.13597743 0.01038328 0 0 Z " fill="#249DFE" transform="translate(482.173583984375,229.482421875)"/>
<path d="M0 0 C1.43807158 -0.00967334 1.43807158 -0.00967334 2.90519512 -0.0195421 C3.95557087 -0.01644489 5.00594661 -0.01334769 6.08815193 -0.01015663 C7.76526841 -0.0169533 7.76526841 -0.0169533 9.47626603 -0.02388728 C13.23643209 -0.03658446 16.9964543 -0.03490747 20.75663948 -0.03325844 C23.44697296 -0.03924034 26.13729503 -0.04598815 28.82762337 -0.05361366 C35.38505223 -0.07023063 41.94244514 -0.07572352 48.49989329 -0.07683842 C53.82965298 -0.07778853 59.15940079 -0.081897 64.48915672 -0.08823967 C79.59761896 -0.10585375 94.70605277 -0.11507825 109.81452535 -0.11357872 C111.0364236 -0.11345885 111.0364236 -0.11345885 112.28300667 -0.11333656 C113.09859925 -0.1132548 113.91419183 -0.11317304 114.75449933 -0.1130888 C127.97428719 -0.11227579 141.19396115 -0.1314169 154.41371606 -0.1596133 C167.98532873 -0.18833194 181.55688583 -0.20215416 195.12852967 -0.20042574 C202.74893765 -0.1997615 210.36922622 -0.20526869 217.98960686 -0.22678185 C224.47744972 -0.24498025 230.96511902 -0.2493521 237.45297633 -0.235763 C240.76317334 -0.22922648 244.07296759 -0.231308 247.38314629 -0.2464695 C250.97196355 -0.26184471 254.55990125 -0.25266383 258.14869881 -0.23720741 C259.71757026 -0.2526381 259.71757026 -0.2526381 261.3181361 -0.26838052 C267.27635999 -0.21152856 270.71413441 0.27398523 275.24540901 4.25726891 C279.0520209 9.52549127 278.69494493 15.01281544 278.62040901 21.25726891 C278.63201057 22.22922203 278.64361214 23.20117516 278.65556526 24.20258141 C278.62840093 30.84878869 277.91814818 35.29666772 273.323946 40.38567924 C268.71334242 43.18868536 264.49931929 42.80998632 259.19975471 42.76520348 C258.07194997 42.77144344 256.94414522 42.7776834 255.78216457 42.78411245 C251.99496183 42.80009453 248.20839803 42.78741712 244.42119026 42.77484703 C241.70937456 42.77806496 238.99758617 42.78724213 236.28578377 42.79608727 C229.67997954 42.81387941 223.07435704 42.81002948 216.46854568 42.7984367 C211.10017578 42.78940536 205.73185683 42.78817708 200.36348152 42.79253197 C199.59960288 42.7931449 198.83572425 42.79375783 198.04869777 42.79438934 C196.49692208 42.79566823 194.94514641 42.79696508 193.39337075 42.7982797 C178.84029115 42.80968753 164.28731231 42.79656864 149.73424923 42.77507824 C137.24540567 42.75720705 124.75671083 42.7603111 112.26786995 42.77875328 C97.76708686 42.80015644 83.26639211 42.80858888 68.76559544 42.79630423 C67.21950914 42.79503002 65.67342283 42.79377254 64.1273365 42.79253197 C63.36662057 42.79191487 62.60590463 42.79129776 61.8221367 42.79066196 C56.45983881 42.78720739 51.09759691 42.7930397 45.73530769 42.80245018 C39.20096289 42.8136654 32.6668103 42.81064032 26.13248754 42.7893272 C22.79806225 42.77880992 19.46422316 42.77685642 16.12975883 42.78792381 C12.51653798 42.79881283 8.90422586 42.78519452 5.29106331 42.76520348 C3.70717292 42.77858781 3.70717292 42.77858781 2.09128475 42.79224253 C-5.00972834 42.71574615 -5.00972834 42.71574615 -8.86422539 40.34322929 C-13.99303245 34.6837482 -13.1216 28.6940249 -13.12959099 21.38226891 C-13.15408318 20.21051109 -13.17857536 19.03875328 -13.20380974 17.83148766 C-13.24103004 6.90112687 -13.24103004 6.90112687 -8.75459099 2.25726891 C-5.7478917 0.41609039 -3.50295904 0.00596337 0 0 Z " fill="#249DFD" transform="translate(379.7545909881592,644.7427310943604)"/>
<path d="M0 0 C1.43209844 -0.00668677 1.43209844 -0.00668677 2.89312816 -0.01350862 C3.94932959 -0.01332426 5.00553102 -0.01313989 6.09373856 -0.01294994 C7.21010736 -0.01662663 8.32647616 -0.02030332 9.47667432 -0.02409142 C13.24301556 -0.03516461 17.00932925 -0.03897824 20.77568436 -0.04278088 C23.46571901 -0.04904275 26.15575067 -0.05567618 28.84578323 -0.0626936 C36.93699822 -0.08246904 45.02821447 -0.09252572 53.11944759 -0.10142139 C56.92813186 -0.10580264 60.73681473 -0.11116988 64.54549789 -0.11641026 C77.20379091 -0.13342385 89.86208305 -0.14791842 102.52038574 -0.155159 C105.80633165 -0.15706895 109.09227754 -0.15898927 112.37822342 -0.16094494 C113.194947 -0.16142868 114.01167058 -0.16191242 114.85314336 -0.16241082 C128.08598575 -0.17071258 141.31873778 -0.19605135 154.5515407 -0.22852562 C168.13212385 -0.2615821 181.71266106 -0.27960649 195.29328465 -0.28280324 C202.92043741 -0.28496968 210.54745841 -0.29373784 218.17457199 -0.31926441 C224.66977374 -0.34095222 231.16481175 -0.34903138 237.66004559 -0.33929763 C240.97428579 -0.33474719 244.28811683 -0.33885565 247.60232544 -0.35605907 C251.19561656 -0.37367017 254.7880455 -0.36672403 258.38133621 -0.35352612 C259.42861476 -0.36449536 260.4758933 -0.37546461 261.55490756 -0.38676625 C267.51796367 -0.33375103 270.95609071 0.14838238 275.49150467 4.13422108 C279.39415442 9.48076872 278.97320639 15.2772096 278.92900467 21.63422108 C278.94898514 22.65386951 278.96896561 23.67351795 278.98955154 24.72406483 C278.98569142 30.66094083 278.70550862 34.58165613 274.49150467 39.13422108 C269.67502616 43.14666238 264.4762445 42.5531899 258.52177811 42.515172 C256.84232164 42.52219196 256.84232164 42.52219196 255.12893677 42.52935374 C251.36946465 42.54133946 247.61035463 42.53183222 243.85087967 42.52240467 C241.15877082 42.52646878 238.4666871 42.53170103 235.77458572 42.53833485 C229.21693365 42.55167862 222.65938456 42.5487916 216.10172844 42.54009692 C210.77245742 42.53332331 205.44321528 42.53240226 200.11394119 42.53566837 C199.35561328 42.53612807 198.59728536 42.53658777 197.81597781 42.5370614 C196.27547613 42.53802057 194.73497446 42.53899321 193.19447279 42.53997917 C178.74728038 42.54853495 164.30014506 42.538696 149.85296202 42.52257808 C137.45510389 42.50917471 125.05733003 42.51150276 112.65947342 42.52533436 C98.26417656 42.54138686 83.86892974 42.54771096 69.47362518 42.53849757 C67.93877285 42.53754191 66.4039205 42.5365988 64.86906815 42.53566837 C63.73628657 42.53497413 63.73628657 42.53497413 62.58062053 42.53426587 C57.2574053 42.53167499 51.93422181 42.53604908 46.61101151 42.54310703 C40.12427479 42.55151857 33.637647 42.54924924 27.15092278 42.5332648 C23.84091151 42.52537732 20.53111954 42.52391181 17.22110367 42.53221226 C13.63429688 42.54037908 10.04800499 42.53016436 6.46123123 42.515172 C5.4130862 42.52186417 4.36494118 42.52855633 3.28503418 42.53545129 C-5.55336279 42.4635244 -5.55336279 42.4635244 -9.50849533 39.13422108 C-13.71903196 33.65677178 -13.060005 27.89005387 -13.07099533 21.25922108 C-13.10773361 20.10035389 -13.14447189 18.9414867 -13.18232346 17.74750233 C-13.23138946 8.20688968 -13.23138946 8.20688968 -9.59833908 3.87640858 C-6.44420443 0.77563606 -4.40355842 0.00950832 0 0 Z " fill="#249DFD" transform="translate(379.50849533081055,703.8657789230347)"/>
<path d="M0 0 C0.96169908 -0.00507454 1.92339817 -0.01014909 2.91423965 -0.0153774 C4.51021464 -0.01612404 4.51021464 -0.01612404 6.13843155 -0.01688576 C7.26296746 -0.02126801 8.38750336 -0.02565027 9.54611611 -0.03016531 C13.3400935 -0.04359302 17.13404763 -0.04974106 20.92804337 -0.0558567 C23.63778339 -0.06322565 26.3475185 -0.07201786 29.05725479 -0.08063698 C37.20779137 -0.10517349 45.35833408 -0.11978993 53.50889623 -0.13269705 C55.81030878 -0.13640806 58.11172072 -0.14038136 60.41313267 -0.14444971 C74.69923363 -0.16968521 88.98533552 -0.19174215 103.27145386 -0.20417786 C106.5814629 -0.20710764 109.8914719 -0.21006929 113.20148087 -0.21308327 C114.43553808 -0.21420234 114.43553808 -0.21420234 115.69452575 -0.21534403 C129.02438798 -0.22799994 142.35411689 -0.26122538 155.68391678 -0.3028851 C169.36394009 -0.3452895 183.04389513 -0.36887115 196.723984 -0.37409842 C204.40706212 -0.37751424 212.08993191 -0.38928933 219.7729454 -0.42220116 C226.31574569 -0.4501824 232.85829495 -0.4612096 239.40115044 -0.4500057 C242.73986581 -0.44481376 246.07762888 -0.45045595 249.41633987 -0.47247124 C253.03606018 -0.49504377 256.65444813 -0.4869214 260.27417374 -0.47098732 C261.32923418 -0.48486941 262.38429462 -0.49875149 263.47132659 -0.51305425 C268.05941498 -0.46315866 271.40429589 -0.42424612 275.0747757 2.51911545 C280.225077 8.17118039 279.82569629 13.79376626 279.83526993 21.07451439 C279.85976212 22.05097923 279.8842543 23.02744408 279.90948868 24.03349876 C279.93922174 31.34287754 278.63134321 34.45856938 273.89776993 39.94951439 C271.11326491 42.24975767 268.31988237 42.263199 264.87557888 42.26844215 C263.45616915 42.27420387 263.45616915 42.27420387 262.00808448 42.28008199 C260.96646873 42.27921551 259.92485299 42.27834902 258.85167313 42.27745628 C257.19421427 42.28191297 257.19421427 42.28191297 255.5032714 42.28645968 C251.78149186 42.2951672 248.05974441 42.29665666 244.33795547 42.2981472 C241.67732973 42.3027739 239.01670694 42.30777759 236.35608292 42.31319237 C229.1143548 42.3267786 221.87263221 42.33280083 214.63089347 42.33720303 C210.10990961 42.3399649 205.58892789 42.34420214 201.06794548 42.3487072 C188.55286894 42.36090013 176.03779411 42.37119947 163.52271175 42.37458229 C162.72160384 42.37480186 161.92049593 42.37502142 161.09511201 42.37524764 C160.29207817 42.37546592 159.48904432 42.3756842 158.66167611 42.37590909 C157.03440074 42.37635256 155.40712537 42.37679912 153.77985001 42.37724876 C152.97266377 42.37747019 152.16547753 42.37769162 151.33383111 42.37791976 C138.25303321 42.38186821 125.172291 42.39932352 112.09151461 42.42260829 C98.66458109 42.4463165 85.23767553 42.4587839 71.81072074 42.45995021 C64.27079951 42.46086726 56.73095084 42.46662703 49.19104958 42.48476982 C42.77091476 42.50016365 36.35087494 42.50529554 29.93072518 42.49703172 C26.65502268 42.49312265 23.37955172 42.49569641 20.10386467 42.50808907 C16.5523498 42.52073905 13.00132865 42.51496919 9.44981766 42.50450706 C7.89743229 42.51659167 7.89743229 42.51659167 6.3136856 42.52892041 C-0.37934427 42.48269235 -4.92601347 41.70763726 -9.87932968 36.835989 C-12.9346922 31.86950868 -12.15326294 26.37617008 -12.10223007 20.69951439 C-12.12607773 19.48457298 -12.14992538 18.26963158 -12.1744957 17.01787376 C-12.15816672 7.08441231 -12.15816672 7.08441231 -9.12957382 3.35185814 C-5.77046965 0.47914009 -4.30299147 0.01201895 0 0 Z " fill="#249DFC" transform="translate(378.5397300720215,762.8629856109619)"/>
</svg>
