<?xml version="1.0" encoding="UTF-8"?>
<svg version="1.1" xmlns="http://www.w3.org/2000/svg" width="1024" height="1024">
<path d="M0 0 C1.54503204 -0.0076664 1.54503204 -0.0076664 3.12127686 -0.01548767 C6.52833874 -0.02939069 9.93519825 -0.02842505 13.34228516 -0.02612305 C15.72059199 -0.03001215 18.09889812 -0.03434727 20.47720337 -0.03910828 C25.46887457 -0.04657391 30.46047508 -0.04627857 35.45214844 -0.04101562 C41.81457417 -0.03524816 48.17670621 -0.05208437 54.53908348 -0.0753603 C59.4568142 -0.09018211 64.37447578 -0.09095742 69.29222488 -0.08785057 C71.63551028 -0.08836046 73.97879988 -0.09353501 76.32206345 -0.10366249 C100.82774334 -0.19650361 121.96284024 2.92003327 141.75634766 18.2746582 C142.59037109 18.8934082 143.42439453 19.5121582 144.28369141 20.1496582 C159.09037511 32.8745175 167.70958997 52.36265744 169.4831543 71.51538086 C171.19297512 96.14018091 164.10406675 118.57442692 148.25268555 137.55004883 C144.30631819 142.03084121 139.81685451 145.55237654 134.73242188 148.67749023 C132.86108669 149.84653753 132.86108669 149.84653753 130.75634766 152.2746582 C130.18628492 159.94072578 134.54228156 166.15809049 138.19384766 172.6496582 C139.14892212 174.3838501 139.14892212 174.3838501 140.12329102 176.15307617 C141.98610468 179.53529203 143.87031407 182.90533239 145.75634766 186.2746582 C146.6556303 187.89398081 147.55417713 189.51371249 148.45166016 191.1340332 C149.62747254 193.25469057 150.80475556 195.37443844 151.98754883 197.49121094 C157.15838485 206.74968107 162.19565743 216.08298375 167.20361328 225.43041992 C168.26791683 227.37996965 169.36208176 229.31342702 170.48095703 231.23217773 C171.03074219 232.18592285 171.58052734 233.13966797 172.14697266 234.12231445 C172.64745117 234.96930908 173.14792969 235.81630371 173.66357422 236.68896484 C174.94294323 239.71617601 174.95453952 242.02021723 174.75634766 245.2746582 C171.75944317 246.99620749 169.60344361 247.52653765 166.15893555 247.53344727 C165.25442154 247.53975159 164.34990753 247.54605591 163.41798401 247.55255127 C161.96318886 247.54647858 161.96318886 247.54647858 160.47900391 247.5402832 C159.475504 247.54219666 158.47200409 247.54411011 157.43809509 247.54608154 C155.31737009 247.54744157 153.19663671 247.54375786 151.07592773 247.53540039 C147.83444442 247.52470964 144.59351673 247.53529623 141.35205078 247.5480957 C139.2902006 247.54677386 137.22835077 247.54421094 135.16650391 247.5402832 C134.1986647 247.54433167 133.2308255 247.54838013 132.23365784 247.55255127 C126.21820109 247.51077008 122.05694043 247.1797232 117.27978516 243.22387695 C114.05020611 239.44936893 111.76861007 235.42841199 109.38134766 231.0871582 C108.3170489 229.18826906 107.2519063 227.28985269 106.18603516 225.3918457 C105.62754883 224.3925 105.0690625 223.3931543 104.49365234 222.36352539 C101.54427714 217.11963907 98.5215538 211.91837196 95.50634766 206.7121582 C92.92089252 202.23421475 90.33800184 197.75479393 87.75634766 193.2746582 C87.39617554 192.64966431 87.03600342 192.02467041 86.66491699 191.3807373 C84.42642249 187.49513616 82.19145438 183.60753614 79.96057129 179.71755981 C79.2453032 178.47130165 78.52908693 177.22558718 77.81188965 175.98043823 C76.8142451 174.24795658 75.82036639 172.51330802 74.82666016 170.77856445 C74.25705566 169.78671143 73.68745117 168.7948584 73.10058594 167.77294922 C71.75634766 165.2746582 71.75634766 165.2746582 70.75634766 162.2746582 C64.89512185 160.93640532 59.11748976 161.05180624 53.13134766 161.0246582 C51.98666016 161.0040332 50.84197266 160.9834082 49.66259766 160.9621582 C48.56689453 160.95700195 47.47119141 160.9518457 46.34228516 160.9465332 C44.8425415 160.93251465 44.8425415 160.93251465 43.3125 160.91821289 C40.79259172 161.08337743 40.79259172 161.08337743 39.12063599 162.35031128 C37.02877962 165.30090265 37.37719745 167.83832068 37.37158203 171.4206543 C37.36620926 172.1445787 37.36083649 172.86850311 37.3553009 173.61436462 C37.34551998 175.18578802 37.34257972 176.75726545 37.34565735 178.32871628 C37.35013229 180.81735777 37.33614431 183.30528694 37.31726074 185.79385376 C37.28045381 191.07911021 37.26676819 196.36429245 37.25634766 201.6496582 C37.24426781 207.76775163 37.22269967 213.88549898 37.17634583 220.00343704 C37.16278101 222.45249283 37.16694591 224.90111062 37.17175293 227.35018921 C37.16241005 228.85675614 37.15224066 230.36331824 37.14111328 231.86987305 C37.13905884 233.18208832 37.13700439 234.49430359 37.1348877 235.84628296 C36.62269064 240.48516797 35.00907459 243.02193127 31.75634766 246.2746582 C27.59860648 247.63619048 23.34119685 247.45524749 19.01025391 247.4777832 C17.73806252 247.48633331 17.73806252 247.48633331 16.44017029 247.49505615 C14.64900961 247.50448727 12.85783174 247.51103262 11.06665039 247.51489258 C8.3320489 247.52461129 5.5981952 247.5556573 2.86376953 247.5871582 C1.12093544 247.59368758 -0.62190401 247.59893831 -2.36474609 247.6027832 C-3.17946884 247.61513 -3.99419159 247.62747681 -4.83360291 247.64019775 C-9.40781814 247.62231202 -12.69100251 247.46817927 -16.24365234 244.2746582 C-19.23242836 238.65326683 -19.67502543 234.0793044 -19.6313324 227.77952576 C-19.63671794 226.84264469 -19.64210347 225.90576362 -19.64765221 224.94049221 C-19.66192243 221.81143024 -19.65483033 218.68279185 -19.64770508 215.55371094 C-19.65340903 213.30628113 -19.66037339 211.05885423 -19.66850281 208.81143188 C-19.68644404 202.71448876 -19.68526425 196.61768947 -19.67956042 190.52072787 C-19.67647074 185.43097937 -19.68255841 180.34125858 -19.68859917 175.25151402 C-19.70344812 162.56039859 -19.69982811 149.86938496 -19.68773586 137.17827577 C-19.67779874 126.16051528 -19.69075399 115.1429226 -19.71467005 104.12518799 C-19.73905829 92.80445103 -19.74827012 81.48381439 -19.74201733 70.16304356 C-19.73864346 63.81029235 -19.74109182 57.45767989 -19.75826836 51.10494804 C-19.77370943 45.13358107 -19.76981323 39.16253534 -19.75096321 33.19118118 C-19.74726985 30.99900563 -19.75040743 28.80680643 -19.760849 26.61465263 C-19.77400877 23.62366481 -19.76255551 20.63374842 -19.74485779 17.64280701 C-19.75446279 16.77403173 -19.7640678 15.90525646 -19.77396387 15.01015466 C-19.70838698 9.62914042 -18.82983122 6.54172995 -15.24365234 2.2746582 C-10.72360587 -0.63441109 -5.19797761 -0.01329862 0 0 Z " fill="#00ABFE" transform="translate(442.24365234375,169.725341796875)"/>
<path d="M0 0 C1.14662109 -0.01836914 1.14662109 -0.01836914 2.31640625 -0.03710938 C9.94137817 -0.05652781 18.15548807 1.01495267 24.125 6.1875 C29.31573119 12.80656042 31.00567122 18.46480782 30.88208008 26.75854492 C30.89110352 27.76313248 30.90012695 28.76772003 30.90942383 29.80274963 C30.93224961 33.09170507 30.91350454 36.3790124 30.89453125 39.66796875 C30.90325329 41.96862463 30.91474689 44.26927151 30.92887878 46.56990051 C30.95919236 52.60562125 30.95485503 58.64081005 30.94226074 64.67657471 C30.93282015 72.0105844 30.96132671 79.34452356 30.98732281 86.67847919 C31.00727337 92.38389087 31.0206161 98.08903157 31.01313782 103.79447937 C31.01345505 104.84450134 31.01377228 105.89452332 31.01409912 106.97636414 C31.01461017 108.92680148 31.01145422 110.87724497 31.00376892 112.82766724 C30.56225967 121.69739295 30.56225967 121.69739295 34.125 129.1875 C36.19675435 129.49259529 36.19675435 129.49259529 38.61505127 129.44578552 C40.03236794 129.45602753 40.03236794 129.45602753 41.47831726 129.46647644 C42.51833389 129.46392349 43.55835052 129.46137054 44.62988281 129.45874023 C45.72269058 129.46396698 46.81549835 129.46919373 47.94142151 129.47457886 C50.32100228 129.48484164 52.70060565 129.49060321 55.08020782 129.49246025 C58.84587672 129.49611096 62.61127916 129.51280303 66.37689209 129.53321838 C75.73357889 129.58173818 85.09029576 129.61325885 94.44708252 129.63452148 C102.34383482 129.65249741 110.24039968 129.68190396 118.13704681 129.72856331 C120.63288125 129.74021967 123.12874925 129.74614371 125.6246109 129.74624443 C129.11745269 129.74643643 132.60977752 129.76470136 136.10253906 129.78686523 C137.13445877 129.78228806 138.16637848 129.77771088 139.22956848 129.772995 C144.60970162 129.82728168 148.50382019 130.11522366 153.125 133.1875 C160.65245546 140.886034 160.4715196 148.70259207 160.44067383 158.87255859 C160.4375186 161.0496655 160.460992 163.22540483 160.48632812 165.40234375 C160.52587999 173.96556804 160.46251218 181.14735368 154.75 188.0625 C150.79917079 191.26079032 147.34859396 192.43437013 142.29196167 192.45251465 C141.34703857 192.46078781 140.40211548 192.46906097 139.42855835 192.47758484 C138.40396515 192.47660294 137.37937195 192.47562103 136.32373047 192.47460938 C135.23541931 192.48144241 134.14710815 192.48827545 133.02581787 192.49531555 C130.66593361 192.50889219 128.30602001 192.51795276 125.94610214 192.52302551 C122.21462479 192.5313112 118.48339254 192.55181183 114.75198364 192.57556152 C106.16096563 192.62788477 97.56989737 192.66208084 88.97879028 192.69532013 C80.47223223 192.72843995 71.96578022 192.7692441 63.45932388 192.82344055 C59.77713704 192.84355904 56.09504172 192.85183769 52.41281128 192.85974121 C50.16436424 192.87270848 47.9159203 192.88622803 45.66748047 192.90039062 C44.63883881 192.89940872 43.61019714 192.89842682 42.55038452 192.89741516 C41.61110107 192.90568832 40.67181763 192.91396149 39.70407104 192.92248535 C38.47907048 192.92688503 38.47907048 192.92688503 37.22932243 192.9313736 C34.82244773 193.06412503 34.82244773 193.06412503 32.125 195.1875 C31.67009287 197.0884251 31.67009287 197.0884251 31.73973083 199.30895996 C31.73008301 200.17232971 31.72043518 201.03569946 31.710495 201.92523193 C31.71507217 202.87480774 31.71964935 203.82438354 31.72436523 204.80273438 C31.71738617 205.80133484 31.7104071 206.7999353 31.70321655 207.82879639 C31.68314407 211.14636539 31.6837396 214.46362547 31.68359375 217.78125 C31.67182578 220.08614952 31.65846299 222.39104141 31.64356995 224.69592285 C31.607279 230.7814067 31.58715873 236.86682302 31.57202148 242.95239258 C31.54726245 252.66491631 31.50733881 262.37729037 31.45012093 272.0896759 C31.43385771 275.476283 31.43001886 278.8627484 31.42710876 282.24938965 C31.41732325 284.34529864 31.40705848 286.44120546 31.39624023 288.53710938 C31.39879318 289.47049133 31.40134613 290.40387329 31.40397644 291.36553955 C31.33838849 299.87552728 30.88943373 308.51289252 25.125 315.1875 C19.73030789 319.90508055 15.74005209 322.31003184 8.4921875 322.3203125 C7.60273437 322.32160156 6.71328125 322.32289063 5.796875 322.32421875 C4.87390625 322.32035156 3.9509375 322.31648438 3 322.3125 C2.10023438 322.31636719 1.20046875 322.32023437 0.2734375 322.32421875 C-19.20741409 322.29622902 -19.20741409 322.29622902 -25.875 317.1875 C-31.04609246 310.98526708 -32.15942101 302.88131216 -32.48461914 295.07006836 C-32.52207025 294.29300757 -32.55952135 293.51594679 -32.59810734 292.71533871 C-32.97939178 284.11173711 -33.05699328 275.50444973 -33.10479546 266.89361763 C-33.1215419 263.98866775 -33.14476988 261.08383049 -33.16969299 258.17893982 C-33.23965967 249.93600232 -33.30103776 241.69302962 -33.35180664 233.44995117 C-33.38352973 228.37168886 -33.42474312 223.29357732 -33.47200203 218.21543694 C-33.48800872 216.28930271 -33.50033644 214.36313425 -33.50890923 212.43695259 C-33.52101733 209.76192831 -33.54513409 207.0872641 -33.57202148 204.41235352 C-33.57261063 203.61920242 -33.57319977 202.82605133 -33.57380676 202.00886536 C-33.62462764 198.20725296 -33.71478824 196.42781763 -35.875 193.1875 C-38.05779717 192.73919457 -38.05779717 192.73919457 -40.63079834 192.82241821 C-41.6345752 192.81710587 -42.63835205 192.81179352 -43.67254639 192.80632019 C-45.33075409 192.82025566 -45.33075409 192.82025566 -47.02246094 192.83447266 C-48.76408508 192.83123238 -48.76408508 192.83123238 -50.54089355 192.82792664 C-53.06945577 192.82483184 -55.59803291 192.82846843 -58.12657928 192.83794022 C-62.1274853 192.85162444 -66.12808387 192.84584517 -70.12896729 192.83309937 C-80.78934099 192.80295431 -91.44966335 192.80441576 -102.11005807 192.82335222 C-109.10944625 192.83569578 -116.10850479 192.83379249 -123.10785508 192.80496442 C-126.43156849 192.79223714 -129.75452822 192.79240914 -133.07823944 192.80965042 C-136.78922783 192.82867106 -140.49899397 192.81731326 -144.20996094 192.79931641 C-145.85602325 192.81932457 -145.85602325 192.81932457 -147.53533936 192.83973694 C-155.84896567 192.75003668 -155.84896567 192.75003668 -159.49078369 189.83676147 C-168.36589301 179.97503664 -166.47404543 165.57850789 -165.875 153.1875 C-165.14001323 145.23747536 -164.03303594 139.60883839 -157.875 134.1875 C-153.26849467 131.04159392 -149.60670864 130.0682755 -144.07955933 130.04273987 C-143.11773743 130.03584137 -142.15591553 130.02894287 -141.16494751 130.02183533 C-140.11648651 130.01922195 -139.06802551 130.01660858 -137.98779297 130.01391602 C-136.32387512 130.0038855 -136.32387512 130.0038855 -134.62634277 129.99365234 C-132.21786471 129.97960447 -129.80937335 129.96770958 -127.40087509 129.95770454 C-123.59419644 129.94130722 -119.78761704 129.91807221 -115.98098755 129.89280701 C-105.15810932 129.82197812 -94.33519578 129.76172127 -83.51220703 129.71069336 C-76.89398682 129.67940739 -70.27587752 129.63773458 -63.65774918 129.59049797 C-61.13069864 129.57443676 -58.60362141 129.56213437 -56.07653427 129.55359077 C-52.55204162 129.54149873 -49.02782412 129.51737699 -45.50341797 129.49047852 C-44.45090851 129.48988937 -43.39839905 129.48930023 -42.31399536 129.48869324 C-41.35781311 129.47897491 -40.40163086 129.46925659 -39.41647339 129.45924377 C-38.16601888 129.45289587 -38.16601888 129.45289587 -36.89030266 129.44641972 C-34.64689638 129.36688702 -34.64689638 129.36688702 -32.875 127.1875 C-32.5676871 125.25912916 -32.5676871 125.25912916 -32.60998535 123.02134705 C-32.60171219 122.14811798 -32.59343903 121.27488892 -32.58491516 120.37519836 C-32.58638802 118.93445198 -32.58638802 118.93445198 -32.58789062 117.46459961 C-32.58105759 116.45463928 -32.57422455 115.44467896 -32.56718445 114.40411377 C-32.55356711 112.20461705 -32.54453273 110.0050884 -32.53947449 107.80555534 C-32.53120409 104.32049866 -32.51071287 100.8357064 -32.48693848 97.35072327 C-32.43861432 89.94218803 -32.40577846 82.53362615 -32.375 75.125 C-32.33930539 66.56412691 -32.29724104 58.00338114 -32.23905945 49.44262886 C-32.2190526 46.01666168 -32.21068109 42.59079297 -32.20275879 39.16477966 C-32.18977676 37.04857025 -32.17625505 34.93236406 -32.16210938 32.81616211 C-32.16358223 31.39667015 -32.16358223 31.39667015 -32.16508484 29.94850159 C-32.08559925 21.36918663 -31.25880777 13.71863448 -25.71484375 6.9140625 C-18.69063326 0.32234055 -9.11613178 0.00760946 0 0 Z " fill="#00ABFE" transform="translate(736.875,509.8125)"/>
<path d="M0 0 C1.08592438 0.00598206 1.08592438 0.00598206 2.19378662 0.01208496 C12.97551844 0.08170018 23.19743535 0.71213744 33.6875 3.375 C35.53988281 3.77525391 35.53988281 3.77525391 37.4296875 4.18359375 C53.36466619 7.9105898 66.86762199 15.37006875 79.6875 25.375 C80.39390625 25.90867188 81.1003125 26.44234375 81.828125 26.9921875 C92.33202915 35.36692189 100.50480768 48.06057687 102.6875 61.375 C103.23407186 67.16866174 102.95878365 71.34225593 99.6875 76.375 C97.2458383 77.59583085 95.60059194 77.53230743 92.87060547 77.58032227 C91.36927567 77.6102401 91.36927567 77.6102401 89.83761597 77.64076233 C88.75424957 77.65747482 87.67088318 77.67418732 86.5546875 77.69140625 C85.44771515 77.71218735 84.3407428 77.73296844 83.20022583 77.75437927 C79.65438201 77.81990991 76.10846246 77.87877614 72.5625 77.9375 C70.1627525 77.98068187 67.76301273 78.02429605 65.36328125 78.06835938 C59.47143487 78.17559488 53.57951269 78.27735472 47.6875 78.375 C47.10234619 77.34729492 46.51719238 76.31958984 45.91430664 75.26074219 C45.12180167 73.8974694 44.32872082 72.53453127 43.53515625 71.171875 C43.1525061 70.49624512 42.76985596 69.82061523 42.37561035 69.12451172 C37.21736403 60.33381068 29.45599313 55.18965056 19.6875 52.375 C6.21622172 49.54843715 -9.56291795 49.89879625 -21.75 56.625 C-25.65420975 59.25714141 -27.32064075 62.15225839 -29.3125 66.375 C-29.6425 67.035 -29.9725 67.695 -30.3125 68.375 C-31.13491895 74.03794193 -30.57514371 78.68757825 -27.234375 83.3984375 C-19.47307412 91.3805884 -8.68692179 95.13225888 1.6875 98.375 C3.22470703 98.87773437 3.22470703 98.87773437 4.79296875 99.390625 C11.16249897 101.42499967 17.59707706 103.1774252 24.0625 104.875 C24.88153809 105.0905957 25.70057617 105.30619141 26.54443359 105.52832031 C30.17736303 106.47892603 33.80953998 107.40377468 37.46484375 108.265625 C52.8714535 112.0108782 68.92788607 117.81068702 81.6875 127.375 C82.54214844 127.97699219 83.39679688 128.57898438 84.27734375 129.19921875 C97.32676884 138.87345419 104.30878031 152.49805891 106.6875 168.375 C108.50940146 188.38780035 104.75438919 206.29622851 92.28515625 222.49609375 C74.34700191 243.77682404 48.58721293 250.89941789 21.6875 253.375 C16.51657588 253.65101753 11.36497591 253.70048264 6.1875 253.6875 C4.25970703 253.71166992 4.25970703 253.71166992 2.29296875 253.73632812 C-6.97856337 253.74098719 -15.30286994 252.50391594 -24.3125 250.375 C-25.1674707 250.18156006 -26.02244141 249.98812012 -26.90332031 249.78881836 C-44.24667187 245.72074284 -62.01333535 238.72837876 -74.3125 225.375 C-75.488125 224.26125 -75.488125 224.26125 -76.6875 223.125 C-88.99033548 210.23631522 -96.34084619 194.71008389 -96.67578125 176.85546875 C-96.23067798 173.81632278 -95.41864054 172.59438418 -93.3125 170.375 C-91.07373047 169.8603363 -91.07373047 169.8603363 -88.4296875 169.84155273 C-86.94299561 169.81779823 -86.94299561 169.81779823 -85.42626953 169.79356384 C-83.82307861 169.80100365 -83.82307861 169.80100365 -82.1875 169.80859375 C-81.08905762 169.80239517 -79.99061523 169.79619659 -78.85888672 169.78981018 C-76.5354908 169.78270326 -74.21204405 169.78590112 -71.88867188 169.79858398 C-68.32587368 169.81244796 -64.7657011 169.77839077 -61.203125 169.74023438 C-58.94791602 169.73928322 -56.69270374 169.74114178 -54.4375 169.74609375 C-53.36870605 169.73283554 -52.29991211 169.71957733 -51.19873047 169.70591736 C-48.47637524 169.74034236 -45.97545952 169.80870191 -43.3125 170.375 C-41.19775391 172.75317383 -41.19775391 172.75317383 -40.3125 175.375 C-39.88710937 176.22578125 -39.46171875 177.0765625 -39.0234375 177.953125 C-38.58257812 178.83484375 -38.14171875 179.7165625 -37.6875 180.625 C-31.29266527 192.35413993 -22.83242141 197.81422097 -10.4375 201.625 C4.14692221 205.53262887 21.89079986 204.98338122 35.25 197.625 C40.14191902 194.35031079 43.7048906 191.00410404 45.2734375 185.2109375 C46.21992464 179.09032065 45.76281035 173.56639295 42.34375 168.30859375 C29.94886653 152.90268906 7.52949726 149.06466737 -10.78515625 145.4765625 C-36.40318176 140.45206835 -65.50367964 129.56939274 -81.07421875 107.33203125 C-89.90202819 93.38019362 -92.21625962 77.02940221 -89.78125 60.84375 C-85.51020538 42.83108357 -74.35174992 27.97643847 -59.3125 17.375 C-58.52617187 16.80007812 -57.73984375 16.22515625 -56.9296875 15.6328125 C-51.41272346 11.83673633 -45.69796862 9.08869088 -39.5 6.625 C-38.80205322 6.34333984 -38.10410645 6.06167969 -37.38500977 5.77148438 C-25.15151847 1.12483703 -12.96133146 -0.14529388 0 0 Z " fill="#00ABFD" transform="translate(280.3125,167.625)"/>
<path d="M0 0 C1.28093808 -0.00445784 2.56187616 -0.00891569 3.88163054 -0.01350862 C5.31656624 -0.01341931 6.75150193 -0.01322944 8.18643761 -0.01294994 C9.70038967 -0.01624753 11.21434086 -0.01997288 12.72829092 -0.02409142 C16.90410779 -0.03413173 21.0799103 -0.03783148 25.25573754 -0.04048073 C29.75351783 -0.04437784 34.25128668 -0.05395666 38.74905968 -0.0626936 C49.61969579 -0.08247601 60.49033286 -0.09252699 71.36098248 -0.10142139 C76.4774167 -0.10580184 81.59384988 -0.11116932 86.71028328 -0.11641026 C103.71436981 -0.13342519 120.7184557 -0.14791956 137.72254944 -0.155159 C142.13738188 -0.15706897 146.55221432 -0.15898929 150.96704674 -0.16094494 C152.06436349 -0.16142868 153.16168024 -0.16191242 154.29224901 -0.16241082 C172.06969731 -0.17071181 189.84707833 -0.19604873 207.62449725 -0.22852562 C225.86752075 -0.26158189 244.11051005 -0.27960651 262.35356367 -0.28280324 C272.59983449 -0.28496979 282.84600725 -0.29373948 293.09224892 -0.31926441 C301.81838427 -0.34095195 310.54439775 -0.34903147 319.270557 -0.33929763 C323.72319316 -0.33474712 328.17557775 -0.33668262 332.62817955 -0.35605907 C336.70576067 -0.3736503 340.78290595 -0.37272607 344.86049144 -0.35716178 C346.33432457 -0.35477953 347.80818756 -0.35914128 349.28197499 -0.37099043 C358.55894738 -0.4409466 365.32190629 -0.20131381 372.40405846 6.32172108 C376.34154435 13.13660051 376.32333463 20.88945609 376.21655846 28.57172108 C376.21591393 29.44892811 376.21526939 30.32613514 376.21460533 31.2299242 C376.09526599 49.22364563 376.09526599 49.22364563 371.02905846 55.13422108 C365.92628158 59.97531709 361.55180098 60.25739119 354.71741486 60.26844215 C353.43685372 60.2729 352.15629259 60.27735784 350.83692658 60.28195077 C349.41798917 60.28186148 347.99905175 60.28167165 346.58011436 60.2813921 C345.07111004 60.28469249 343.5621066 60.28841843 342.05310428 60.29253358 C337.90493796 60.30254112 333.75678612 60.30626834 329.60860944 60.30892289 C325.1354411 60.31282946 320.66228419 60.32240733 316.18912315 60.33113575 C305.38796996 60.35088677 294.58681585 60.36096314 283.78564912 60.36986354 C278.69997459 60.37424733 273.6143011 60.37961378 268.5286274 60.38485241 C251.6256418 60.40186081 234.72265684 60.41635645 217.819664 60.42360115 C213.43454678 60.42551105 209.04942956 60.42743138 204.66431236 60.42938709 C203.57441104 60.42987083 202.48450971 60.43035457 201.36158107 60.43085297 C183.69357873 60.43915888 166.02564397 60.46450699 148.35767116 60.49696777 C130.22190868 60.53001676 112.08618059 60.54804782 93.95038784 60.55124539 C83.76623267 60.55341213 73.58217615 60.56218514 63.39805031 60.58770657 C54.72795351 60.60938377 46.05797934 60.61747856 37.38785852 60.60773978 C32.96367855 60.60318687 28.53975176 60.60513884 24.11560631 60.62450123 C20.06533569 60.64207454 16.01550404 60.64118296 11.96522914 60.62560394 C10.5002517 60.62321901 9.03524432 60.62759721 7.57031275 60.63943259 C-6.12073032 60.74319112 -6.12073032 60.74319112 -11.97094154 56.13422108 C-17.11540693 49.2749339 -16.18997686 41.41851293 -16.21117592 33.22772694 C-16.22083517 30.97156719 -16.25185881 28.71633739 -16.28344154 26.46039295 C-16.33990167 18.8642176 -16.17992274 12.16958839 -12.97094154 5.13422108 C-8.64062746 0.90952441 -5.92954523 0.00953038 0 0 Z " fill="#00ABFE" transform="translate(204.9709415435791,752.8657789230347)"/>
<path d="M0 0 C1.53207142 -0.00389462 3.06413921 -0.00953636 4.5961985 -0.0167709 C8.79891221 -0.03152037 13.00125105 -0.02134745 17.20395267 -0.00703418 C21.73911113 0.00407453 26.27421697 -0.00786662 30.80937195 -0.01687622 C39.69056363 -0.03081103 48.57161316 -0.02325088 57.45279808 -0.00820064 C67.79347852 0.00865621 78.13412352 0.00544964 88.47481345 0.00170528 C106.92349955 -0.00417367 125.3721174 0.01000004 143.82078552 0.03465271 C161.7264105 0.05857706 179.63194431 0.06565565 197.5375824 0.05516052 C217.03271364 0.04375422 236.5278027 0.04181743 256.02293342 0.05625862 C258.10121564 0.05778447 260.17949785 0.05930483 262.25778008 0.06081963 C263.2803558 0.06157744 264.30293152 0.06233525 265.35649439 0.06311603 C272.56629847 0.06786081 279.77608373 0.06600607 286.98588753 0.06175423 C295.77015204 0.05683034 304.55433032 0.06279964 313.33857507 0.08264852 C317.82132333 0.09252782 322.30394019 0.09761873 326.78669548 0.08975601 C330.88921783 0.08270736 334.99147486 0.08948461 339.09396219 0.10735964 C340.57903998 0.11140942 342.06414189 0.11039538 343.54921073 0.10384078 C345.56653877 0.09569812 347.58391818 0.10779155 349.60122013 0.12088871 C350.72215724 0.12191784 351.84309435 0.12294697 352.99799925 0.12400728 C357.83644392 0.70971104 361.08879232 2.42058281 364.42649841 5.93870544 C367.48731915 10.58661842 367.28620558 15.11428027 367.31712341 20.55589294 C367.32282349 21.33506073 367.32852356 22.11422852 367.33439636 22.91700745 C367.34382487 24.5627355 367.35037179 26.20848225 367.35423279 27.85423279 C367.36393796 30.36059258 367.39498049 32.86613166 367.42649841 35.37229919 C367.43302933 36.97515893 367.43827946 38.57802451 367.44212341 40.18089294 C367.45447021 40.92483307 367.46681702 41.66877319 367.47953796 42.43525696 C367.45910202 47.25217239 366.97586558 50.58752339 364.11399841 54.50120544 C356.84930541 60.4695453 348.9723526 60.20741381 339.98748779 60.12939453 C338.45368709 60.13444474 336.91989229 60.14167723 335.38611096 60.15089267 C331.18784505 60.16977401 326.99016381 60.1576048 322.79191291 60.14016974 C318.25814075 60.12677701 313.72445307 60.14223949 309.19068909 60.1539917 C300.31642972 60.17235709 291.44239075 60.1638639 282.56813828 60.14590348 C275.35681298 60.1318724 268.14554746 60.12798577 260.93420982 60.13134575 C259.90750255 60.13182319 258.88079528 60.13230063 257.82297566 60.13279254 C255.73721684 60.13381888 253.65145803 60.13487424 251.56569924 60.13595831 C233.12919954 60.14452281 214.69280621 60.12785702 196.2563324 60.09812927 C178.36435989 60.06927988 160.47254054 60.06221463 142.58055115 60.07762146 C123.09491807 60.09437761 103.60935769 60.09842479 84.12372273 60.0809111 C82.04659507 60.07906671 79.96946739 60.07723198 77.89233971 60.07540703 C76.87035396 60.07449494 75.84836821 60.07358285 74.7954132 60.07264312 C67.59058926 60.06703505 60.38580079 60.07034731 53.18097878 60.07695198 C44.40405721 60.08467846 35.62728649 60.07795692 26.85039536 60.05277694 C22.37164984 60.04026744 17.89313934 60.03415301 13.41438484 60.0453186 C9.31556781 60.05534423 5.21721992 60.04693752 1.11846008 60.02373742 C-0.36520919 60.01856946 -1.84892035 60.02015561 -3.33257147 60.02913208 C-5.34796634 60.04031259 -7.36345696 60.02450691 -9.37880993 60.00736332 C-10.49866289 60.00617184 -11.61851586 60.00498036 -12.77230376 60.00375277 C-17.44773604 59.24914326 -20.60321264 56.96093079 -23.69850159 53.43870544 C-28.16729922 42.38431131 -28.38336751 17.756472 -23.78053284 6.89183044 C-17.52631082 -1.00009507 -9.26764866 -0.06499649 0 0 Z " fill="#00ABFE" transform="translate(213.88600158691406,508.49879455566406)"/>
<path d="M0 0 C0.76351416 -0.00311998 1.52702832 -0.00623996 2.31367928 -0.00945449 C4.87391651 -0.0174363 7.43391685 -0.01111013 9.99415588 -0.00482178 C11.82897582 -0.00753158 13.66379467 -0.01109245 15.49861145 -0.01544189 C20.48411556 -0.02457007 25.46953702 -0.02101969 30.4550426 -0.01468372 C35.66974789 -0.0096252 40.88444604 -0.01431484 46.09915161 -0.01745605 C54.85794853 -0.02109645 63.61671174 -0.01629501 72.37550354 -0.0067749 C82.50361886 0.00410639 92.63165364 0.00058672 102.759767 -0.01042771 C111.45200523 -0.01950254 120.14421921 -0.0207848 128.83646065 -0.01555037 C134.02943972 -0.01243132 139.22238094 -0.01201952 144.41535759 -0.01862335 C149.29825995 -0.02439888 154.18105845 -0.02039605 159.06394958 -0.00883484 C160.8566273 -0.00618923 162.64931375 -0.00695166 164.44198799 -0.01136017 C166.88803856 -0.01682102 169.33375585 -0.00997494 171.77978516 0 C172.4900998 -0.00446144 173.20041445 -0.00892289 173.93225378 -0.01351953 C177.86868695 0.01763993 180.95171468 0.40745773 184.4533844 2.25396729 C188.81753054 7.75449719 188.13339978 14.15896181 188.3283844 20.87896729 C188.38768127 22.09970947 188.44697815 23.32045166 188.5080719 24.57818604 C188.75949686 31.9245091 188.8256181 39.52986172 185.4533844 46.25396729 C182.060362 48.51900991 179.04320497 48.52617867 175.03248596 48.57281494 C173.08091583 48.60261948 173.08091583 48.60261948 171.08992004 48.63302612 C169.67461822 48.6449017 168.2593146 48.65656461 166.8440094 48.66802979 C165.39239912 48.68674525 163.94079967 48.70631895 162.48921204 48.72671509 C158.67527153 48.77800251 154.86129577 48.8176462 151.04719543 48.8548584 C147.15255536 48.89491941 143.25806153 48.94600216 139.36354065 48.99615479 C131.7269223 49.09287388 124.09023309 49.17729133 116.4533844 49.25396729 C115.22123525 53.07387935 115.31533971 56.8706892 115.32881165 60.83854675 C115.3274015 61.60614447 115.32599135 62.37374218 115.32453847 63.16460043 C115.32088634 65.73859724 115.32422161 68.31253892 115.32740784 70.88653564 C115.32601302 72.7312067 115.32411367 74.57587743 115.32174683 76.42054749 C115.31725008 80.39399917 115.31539375 84.36744053 115.31528473 88.3408947 C115.3141449 94.62253822 115.30131102 100.9041229 115.28572083 107.18574524 C115.28314797 108.24561502 115.28057512 109.3054848 115.2779243 110.39747185 C115.27265783 112.56469668 115.26737234 114.73192146 115.26206827 116.8991462 C115.22694267 131.52418366 115.20040925 146.14914781 115.20289612 160.77423096 C115.20448335 170.63891249 115.18848235 180.5033934 115.15218949 190.36801058 C115.13370837 195.58902503 115.12440561 200.80970438 115.13666534 206.03074455 C115.14808181 210.94010028 115.13644588 215.84885533 115.10703087 220.75813103 C115.10037772 222.56047478 115.10227855 224.36287331 115.11332893 226.16519547 C115.12716008 228.62498685 115.11035577 231.08273881 115.08589172 233.54240417 C115.0972471 234.25660977 115.10860248 234.97081536 115.12030196 235.70666355 C115.04603111 239.54341134 114.53975225 241.1467627 112.10135269 244.17343998 C107.52866974 247.76622913 103.19361157 247.42892175 97.62135315 247.45709229 C96.31730278 247.4656424 96.31730278 247.4656424 94.98690796 247.47436523 C93.14688838 247.48381006 91.30685192 247.49034716 89.46681213 247.49420166 C86.66190296 247.50389465 83.85773061 247.53491738 81.05299377 247.56646729 C79.26328457 247.57299896 77.47357014 247.57824879 75.68385315 247.58209229 C74.43199471 247.60061249 74.43199471 247.60061249 73.15484619 247.61950684 C68.24034465 247.60085372 64.56524037 247.24655692 60.4533844 244.25396729 C58.44412779 239.63953291 58.16154753 235.31617109 58.1749115 230.35726929 C58.1691191 229.58035134 58.16332669 228.8034334 58.15735877 228.00297248 C58.14040559 225.40967431 58.13748632 222.8165546 58.13453674 220.22320557 C58.12523533 218.36027085 58.11506634 216.4973403 58.10409546 214.63441467 C58.07680542 209.58328699 58.06164896 204.53218719 58.04866743 199.48100519 C58.03303258 194.19987956 58.00624347 188.91881082 57.9806366 183.63772583 C57.93385513 173.64001948 57.89710793 163.64230242 57.86396372 153.64454257 C57.82573791 142.26127166 57.77632892 130.87805788 57.72597957 119.49483514 C57.6226691 96.08125488 57.53340578 72.66763791 57.4533844 49.25396729 C56.20763641 49.24849884 56.20763641 49.24849884 54.9367218 49.24291992 C47.10873992 49.20504799 39.28117501 49.14820472 31.4534874 49.07006454 C27.42918521 49.03056062 23.40510277 48.99838671 19.38063049 48.98297119 C15.49649199 48.96782339 11.61295752 48.93341243 7.72908783 48.88565826 C6.24758912 48.87082487 4.76600418 48.86292514 3.28443146 48.86208344 C1.20825869 48.85971768 -0.86623937 48.83267522 -2.94212341 48.79986572 C-4.71417145 48.78654205 -4.71417145 48.78654205 -6.52201843 48.77294922 C-10.16581623 48.14772043 -11.324202 47.15488757 -13.5466156 44.25396729 C-14.73587553 40.68618751 -14.72758142 37.4145124 -14.7497406 33.69927979 C-14.75544067 32.96071747 -14.76114075 32.22215515 -14.76701355 31.46121216 C-14.77645206 29.89946928 -14.78299297 28.33770658 -14.78684998 26.77593994 C-14.79655207 24.39456203 -14.82758338 22.01404885 -14.8591156 19.63287354 C-14.86564654 18.11334739 -14.87089666 16.5938151 -14.8747406 15.07427979 C-14.8870874 14.36578888 -14.8994342 13.65729797 -14.91215515 12.92733765 C-14.89246389 8.52700082 -14.33620226 5.69960298 -11.5466156 2.25396729 C-7.93182767 -0.21484431 -4.21858322 -0.02641372 0 0 Z " fill="#00ABFE" transform="translate(649.5466156005859,169.74603271484375)"/>
<path d="M0 0 C1.10577465 -0.00521549 2.21154931 -0.01043099 3.35083228 -0.01580453 C5.16511003 -0.00911236 5.16511003 -0.00911236 7.01603985 -0.002285 C8.94958506 -0.00696498 8.94958506 -0.00696498 10.9221918 -0.01173949 C14.49838286 -0.0200934 18.07446727 -0.01595949 21.65065873 -0.00976706 C25.50829965 -0.00524587 29.36592211 -0.01222476 33.22355938 -0.0177269 C40.78083182 -0.02662686 48.33806457 -0.02469598 55.89533857 -0.01890162 C62.03836584 -0.01438651 68.18138198 -0.01377157 74.32441044 -0.01594925 C75.63545082 -0.01640895 75.63545082 -0.01640895 76.97297686 -0.01687793 C78.74853534 -0.01751738 80.52409382 -0.01816581 82.2996523 -0.01882312 C98.95589039 -0.02452844 115.61210648 -0.01796587 132.26834097 -0.00722238 C146.55670341 0.00170861 160.84503334 0.0001652 175.1333952 -0.00905991 C191.72501828 -0.01976707 208.31662206 -0.02397414 224.90824813 -0.01783538 C226.678225 -0.01719828 228.44820187 -0.01656954 230.21817875 -0.01594925 C231.08903696 -0.0156407 231.95989517 -0.01533215 232.85714302 -0.01501425 C238.99046422 -0.0132883 245.12377317 -0.01620036 251.25709248 -0.02090836 C258.73515299 -0.02652234 266.21317152 -0.02499003 273.69122723 -0.01434687 C277.50585349 -0.00909642 281.3204098 -0.00702267 285.13503551 -0.01364517 C289.27243294 -0.02071926 293.40965429 -0.01226296 297.54704571 -0.002285 C298.74987204 -0.00674645 299.95269837 -0.01120789 301.19197398 -0.01580453 C315.64370051 0.0518796 315.64370051 0.0518796 321.28451824 4.43918228 C327.1168222 11.9378588 326.97097773 19.30916746 326.91806316 28.43942642 C326.90955117 30.68051399 326.93836559 32.91904866 326.97006512 35.15988541 C327.00718649 42.70882615 326.86611278 48.81776037 322.47201824 55.25168228 C317.87404205 59.73470907 314.26274713 60.37503326 308.01464558 60.38311005 C306.89917839 60.38695119 305.7837112 60.39079234 304.63444197 60.39474988 C303.40897355 60.3938834 302.18350513 60.39301692 300.9209013 60.39212418 C298.96814504 60.39658086 298.96814504 60.39658086 296.97593915 60.40112758 C293.35945424 60.40919636 289.74298917 60.41098708 286.12649632 60.41172504 C282.22729618 60.41357577 278.32810634 60.42112313 274.42891216 60.42786026 C265.90216002 60.44144246 257.37541257 60.44746791 248.84865141 60.45187092 C243.52579333 60.4546331 238.20293707 60.45887036 232.88008022 60.46337509 C218.14574135 60.47556679 203.41140393 60.48586683 188.67706013 60.48925018 C187.73404199 60.48946975 186.79102386 60.48968932 185.81942942 60.48991553 C184.87414617 60.49013381 183.92886292 60.49035209 182.95493472 60.49057698 C181.03940527 60.49102045 179.12387582 60.49146701 177.20834637 60.49191666 C175.783091 60.4922488 175.783091 60.4922488 174.3290426 60.49258766 C158.92682916 60.49653717 143.524663 60.5139963 128.12246783 60.53727618 C112.31343685 60.56097839 96.50442961 60.57345149 80.69538057 60.5746181 C71.81743983 60.57553541 62.93956071 60.58130192 54.06163692 60.59943771 C46.50333873 60.61482333 38.94512119 60.61996822 31.38681032 60.61169961 C27.52987091 60.60778785 23.67309401 60.60874825 19.81617451 60.62275696 C15.6363659 60.6377998 11.4569249 60.62964516 7.27710247 60.61917496 C5.445592 60.63125956 5.445592 60.63125956 3.57708132 60.6435883 C-6.83729592 60.58234963 -6.83729592 60.58234963 -11.52798176 57.25168228 C-15.9691587 51.49015543 -16.68581933 47.12514417 -16.69595051 40.04074478 C-16.69927891 39.23559433 -16.70260731 38.43044388 -16.70603657 37.60089493 C-16.71109743 35.89790798 -16.71344515 34.19491112 -16.71328449 32.49191666 C-16.71546768 29.89344197 -16.73362292 27.29539418 -16.75259113 24.69699478 C-16.75552593 23.04074623 -16.75751015 21.38449567 -16.75845051 19.72824478 C-16.76563602 18.95413254 -16.77282154 18.18002029 -16.7802248 17.3824501 C-16.75752082 11.9901994 -16.18074732 8.24639934 -12.71548176 4.06418228 C-8.75172773 0.77992894 -5.07081123 0.00172645 0 0 Z " fill="#00A9FC" transform="translate(203.52798175811768,632.7483177185059)"/>
<path d="M0 0 C1.20286903 -0.01441132 1.20286903 -0.01441132 2.43003845 -0.02911377 C3.72839378 -0.03548859 3.72839378 -0.03548859 5.05297852 -0.04199219 C5.95250748 -0.04769226 6.85203644 -0.05339233 7.77882385 -0.05926514 C9.68782375 -0.06871691 11.59683997 -0.07524982 13.50585938 -0.07910156 C16.38970682 -0.08872642 19.27281643 -0.11971375 22.15649414 -0.15136719 C47.23715937 -0.29845071 47.23715937 -0.29845071 57.01782227 8.05957031 C65.75388684 17.34811328 66.45898467 26.39174536 66.27172852 38.50097656 C66.06140026 43.78220389 65.05270887 47.80302097 61.99438477 52.16113281 C61.58188477 52.79019531 61.16938477 53.41925781 60.74438477 54.06738281 C56.46743301 59.8023863 50.22309659 63.31726073 43.234375 64.71191406 C39.97488024 65.16383708 36.88132629 65.29053546 33.59204102 65.29394531 C32.37822754 65.29612061 31.16441406 65.2982959 29.91381836 65.30053711 C28.64103027 65.29578369 27.36824219 65.29103027 26.05688477 65.28613281 C24.75831543 65.28202393 23.45974609 65.27791504 22.12182617 65.27368164 C-2.71703568 65.12896205 -2.71703568 65.12896205 -5.81030273 62.80566406 C-8.10113261 59.6539014 -8.13177219 56.77407583 -8.13500977 53.01879883 C-8.13816193 51.97083633 -8.14131409 50.92287384 -8.14456177 49.84315491 C-8.14253754 48.71187668 -8.14051331 47.58059845 -8.13842773 46.41503906 C-8.13938446 45.25238022 -8.14034119 44.08972137 -8.1413269 42.89183044 C-8.14200784 40.43138576 -8.14015956 37.97093928 -8.13598633 35.51049805 C-8.13064172 31.74230919 -8.13593179 27.9742398 -8.14233398 24.20605469 C-8.14167309 21.81738255 -8.1403917 19.42871048 -8.13842773 17.04003906 C-8.14045197 15.91078506 -8.1424762 14.78153107 -8.14456177 13.61805725 C-8.14140961 12.5669426 -8.13825745 11.51582794 -8.13500977 10.43286133 C-8.13421417 9.50925308 -8.13341858 8.58564484 -8.13259888 7.63404846 C-8.0118035 5.28164481 -7.86617849 3.35622044 -7.00561523 1.16113281 C-4.32624041 0.26800787 -2.74989345 0.02669857 0 0 Z " fill="#000001" transform="translate(487.005615234375,217.8388671875)"/>
</svg>
