<?xml version="1.0" encoding="utf-8"?>
<svg xmlns="http://www.w3.org/2000/svg" viewBox="0 0 500 500">
  <path d="M 1.087 1.779 C 167.225 1.779 333.468 1.779 504.64 1.779 C 504.64 167.946 504.64 334.117 504.64 505.32 C 338.439 505.32 172.301 505.32 1.087 505.32 C 1.087 339.153 1.087 172.982 1.087 1.779 Z" fill="#1C2436" style="stroke-width: 1;"/>
  <path d="M 114.399 197.786 C 117.617 198.239 119.603 199.564 122.348 201.289 C 122.821 201.61 123.388 201.935 123.862 202.266 C 125.565 203.295 127.174 204.343 128.877 205.385 C 130.486 206.423 132.095 207.458 133.798 208.488 C 135.312 209.421 136.826 210.368 138.246 211.315 C 140.99 212.819 143.261 213.942 146.29 214.598 C 148.087 214 148.087 214 149.412 212.681 C 149.98 212.245 150.453 211.809 151.02 211.36 C 151.589 210.891 152.062 210.421 152.629 209.936 C 153.198 209.478 153.765 209.011 154.333 208.536 C 155.752 207.392 156.983 206.231 158.402 205.06 C 160.863 206.2 162.66 207.419 164.648 209.381 C 165.215 209.901 165.688 210.42 166.256 210.957 C 166.729 211.518 167.297 212.077 167.865 212.654 C 168.433 213.229 169.095 213.804 169.663 214.395 C 171.461 216.229 173.259 218.07 175.151 219.908 C 176.287 221.154 177.612 222.4 178.747 223.644 C 181.87 226.694 184.898 229.748 187.832 232.806 C 185.372 235.351 182.816 237.434 179.978 239.471 C 158.307 255.107 143.261 279.553 138.246 305.847 C 136.164 319.322 136.353 334.129 140.139 347.253 C 140.422 348.157 140.422 348.157 140.706 349.079 C 144.586 362.794 150.737 374.631 160.106 385.403 C 160.578 385.975 161.051 386.546 161.525 387.133 C 166.824 393.722 173.921 398.944 180.924 403.61 C 180.924 402.998 180.924 402.387 180.924 401.756 C 180.829 398.978 180.829 396.2 180.829 393.424 C 180.829 392.46 180.829 391.497 180.829 390.504 C 180.829 389.576 180.829 388.648 180.829 387.692 C 180.829 386.839 180.829 385.987 180.735 385.106 C 180.924 382.638 181.207 381.35 182.721 379.334 C 186.791 375.936 191.05 376.368 196.159 376.402 C 197.106 376.4 198.052 376.394 198.998 376.39 C 202.026 376.379 205.149 376.388 208.272 376.397 C 210.543 376.393 212.719 376.388 214.991 376.383 C 220.385 376.371 225.873 376.374 231.267 376.382 C 235.715 376.387 240.162 376.387 244.515 376.385 C 245.177 376.384 245.746 376.384 246.408 376.384 C 247.733 376.384 248.962 376.383 250.288 376.382 C 262.211 376.374 274.23 376.383 286.152 376.397 C 296.467 376.407 306.782 376.406 317.031 376.393 C 328.963 376.379 340.887 376.375 352.829 376.383 C 354.097 376.384 355.365 376.384 356.643 376.385 C 357.267 376.385 357.892 376.386 358.544 376.386 C 362.945 376.388 367.364 376.385 371.774 376.378 C 377.717 376.37 383.65 376.376 389.583 376.391 C 391.769 376.394 393.955 376.393 396.131 376.387 C 399.113 376.381 402.075 376.39 405.056 376.402 C 405.926 376.398 406.787 376.391 407.686 376.385 C 413.147 376.432 416.269 377.099 420.234 381.067 C 420.651 384.85 420.632 388.644 420.659 392.444 C 420.679 394.329 420.727 396.211 420.773 398.096 C 420.793 399.298 420.802 400.502 420.802 401.704 C 420.821 402.796 420.849 403.89 420.859 405.014 C 420.187 408.198 419.288 409.399 416.752 411.38 C 413.288 413.203 409.522 412.887 405.699 412.854 C 404.762 412.862 403.825 412.871 402.879 412.882 C 399.804 412.906 396.737 412.9 393.672 412.894 C 391.533 412.906 389.403 412.919 387.274 412.934 C 381.672 412.968 376.07 412.976 370.468 412.981 C 364.753 412.989 359.028 413.021 353.311 413.052 C 342.098 413.108 330.875 413.138 319.661 413.148 C 320.352 413.683 321.042 414.219 321.753 414.768 C 323.929 416.558 325.074 417.962 326.475 420.376 C 326.891 421.084 327.298 421.792 327.724 422.523 C 328.14 423.256 328.556 423.99 328.982 424.745 C 329.625 425.834 329.625 425.834 330.279 426.946 C 334.802 434.828 334.802 434.828 334.405 438.292 C 332.389 440.714 329.995 442.503 327.468 444.362 C 326.787 444.864 326.115 445.365 325.424 445.883 C 323.286 447.43 321.128 448.936 318.961 450.43 C 318.194 450.957 317.428 451.484 316.652 452.027 C 315.11 453.061 313.596 454.091 312.176 455.119 C 310.473 456.275 308.769 457.448 307.161 458.633 C 300.915 462.903 300.915 462.903 296.94 463.327 C 292.398 462.268 290.506 460.002 287.572 456.5 C 286.531 455.326 285.49 454.151 284.449 452.978 C 283.03 451.313 281.61 449.654 280.191 447.938 C 278.772 446.259 278.772 446.259 276.311 444.362 C 271.769 444.63 267.605 445.951 263.347 447.45 C 262.779 447.654 262.211 447.857 261.549 448.066 C 260.129 448.56 258.71 449.061 257.196 449.564 C 257.196 450.488 257.101 451.41 257.006 452.361 C 256.628 455.796 256.344 459.229 255.965 462.662 C 255.871 464.145 255.682 465.63 255.587 467.115 C 255.398 469.254 255.208 471.389 254.925 473.525 C 254.925 474.186 254.83 474.846 254.83 475.527 C 254.451 478.69 253.789 480.706 251.991 483.344 C 248.49 485.731 245.746 485.885 241.677 485.979 C 240.919 486.002 240.257 486.023 239.5 486.045 C 237.324 486.093 235.052 486.1 232.876 486.093 C 232.024 486.094 231.267 486.095 230.415 486.097 C 228.712 486.098 227.009 486.095 225.305 486.093 C 222.656 486.087 220.101 486.093 217.546 486.098 C 215.842 486.097 214.139 486.095 212.531 486.093 C 211.679 486.095 211.017 486.098 210.165 486.1 C 195.308 486.044 195.308 486.044 191.238 483.318 C 189.251 480.221 188.778 477.541 188.494 473.949 C 188.4 473.307 188.4 472.666 188.305 472.004 C 188.21 470.017 188.021 468.029 187.832 466.037 C 187.832 465.097 187.832 465.097 187.737 464.137 C 187.548 461.325 187.358 458.513 187.264 455.697 C 187.075 452.537 187.075 452.537 186.129 449.564 C 184.047 448.12 184.047 448.12 181.492 446.949 C 180.072 446.262 180.072 446.262 178.653 445.56 C 177.707 445.094 176.665 444.626 175.719 444.144 C 174.678 443.664 173.732 443.184 172.691 442.689 C 170.231 441.501 167.771 440.326 165.31 439.159 C 164.269 439.963 163.134 440.772 161.998 441.58 C 161.43 442.031 160.768 442.48 160.2 442.942 C 158.497 444.28 156.983 445.676 155.563 447.234 C 152.156 450.666 148.561 453.594 144.869 456.571 C 142.788 458.181 142.788 458.181 141.084 459.968 C 137.773 460.313 135.69 460.376 132.852 458.719 C 131.81 457.809 131.81 457.809 130.675 456.879 C 129.918 456.161 129.067 455.44 128.215 454.699 C 127.268 453.855 126.322 453.011 125.471 452.164 C 124.997 451.713 124.43 451.263 123.957 450.798 C 119.698 446.989 115.629 443.086 111.56 439.159 C 110.803 438.433 110.046 437.709 109.289 436.96 C 106.829 434.654 104.463 432.33 102.097 430.001 C 100.961 428.903 100.961 428.903 99.826 427.781 C 99.069 427.082 98.407 426.383 97.65 425.663 C 96.703 424.737 96.703 424.737 95.757 423.795 C 93.865 421.372 93.58 419.607 93.391 416.617 C 94.337 414.448 94.337 414.448 95.757 412.28 C 96.324 411.464 96.893 410.649 97.555 409.809 C 98.122 408.909 98.785 408.008 99.447 407.079 C 100.204 406.026 100.961 404.971 101.718 403.916 C 107.491 395.587 107.491 395.587 110.14 392.685 C 111.844 390.741 111.844 390.741 111.276 388.568 C 110.709 386.281 109.952 384.264 108.91 382.114 C 108.532 381.354 108.248 380.594 107.869 379.81 C 107.491 379.026 107.112 378.244 106.829 377.438 C 106.072 375.873 105.315 374.308 104.652 372.74 C 104.273 372.05 103.895 371.36 103.611 370.65 C 102.949 368.93 102.949 368.93 102.949 367.195 C 102.381 367.205 101.813 367.213 101.245 367.223 C 73.519 367.631 73.519 367.631 68.03 364.235 C 65.664 360.688 65.475 356.951 65.097 352.781 C 64.907 351.885 64.812 350.99 64.718 350.067 C 63.866 342.2 63.204 334.358 63.015 326.445 C 63.015 325.571 62.92 324.695 62.92 323.794 C 62.92 320.939 62.826 318.083 62.826 315.229 C 62.826 314.318 62.826 313.407 62.731 312.469 C 62.731 311.62 62.731 310.77 62.731 309.894 C 62.731 308.756 62.731 308.756 62.731 307.594 C 63.015 305.636 63.015 305.636 63.961 304.17 C 66.516 302.455 69.26 302.022 72.289 301.453 C 72.951 301.323 73.519 301.192 74.276 301.056 C 76.263 300.641 78.345 300.24 80.427 299.839 C 81.846 299.558 83.265 299.278 84.591 298.997 C 94.715 296.966 94.715 296.966 96.798 296.966 C 96.893 296.018 97.081 295.07 97.176 294.094 C 97.744 289.476 98.785 285.007 99.921 280.492 C 100.109 279.656 100.393 278.817 100.583 277.957 C 101.056 275.911 101.53 273.865 102.002 271.822 C 101.53 271.573 100.961 271.324 100.488 271.067 C 98.028 269.77 96.23 268.042 94.243 266.132 C 90.079 262.315 85.821 258.908 81.373 255.61 C 78.913 252.941 78.723 251.131 78.628 247.545 C 79.291 245.415 79.291 245.415 80.521 243.373 C 81.089 242.559 81.468 241.746 81.941 240.907 C 88.281 231.002 94.905 221.233 101.813 211.777 C 102.57 210.71 103.327 209.64 104.179 208.567 C 105.409 206.842 106.639 205.139 107.964 203.437 C 108.343 202.903 108.721 202.372 109.1 201.822 C 111.844 198.222 111.844 198.222 114.399 197.786 Z" fill="#1185DC" style="stroke-width: 1;"/>
  <path d="M 250.193 40.885 C 251.613 40.88 252.937 40.854 254.263 40.814 C 256.155 40.775 258.142 40.753 260.035 40.735 C 260.981 40.713 260.981 40.713 261.833 40.678 C 265.713 40.695 267.984 41.628 270.917 44.189 C 272.81 46.587 272.621 48.933 272.621 51.942 C 272.621 52.581 272.621 53.214 272.621 53.874 C 272.621 56.004 272.621 58.133 272.526 60.267 C 272.526 61.799 272.526 63.326 272.526 64.853 C 272.526 69.006 272.526 73.156 272.526 77.305 C 272.431 81.644 272.431 85.982 272.431 90.32 C 272.431 98.531 272.431 106.746 272.336 114.962 C 272.336 124.313 272.242 133.663 272.242 143.022 C 272.147 162.251 272.053 181.487 271.958 200.726 C 273.093 199.753 274.23 198.785 275.27 197.813 C 275.932 197.271 276.501 196.73 277.163 196.171 C 283.03 191.058 288.708 185.849 294.102 180.282 C 296.373 177.95 298.738 175.754 301.294 173.625 C 305.552 169.937 309.432 165.937 313.406 161.925 C 314.825 160.464 316.264 159.002 317.702 157.551 C 318.327 156.913 318.951 156.275 319.604 155.615 C 322.5 152.852 324.099 151.43 328.111 150.761 C 331.291 150.889 332.739 151.804 335.048 153.925 C 335.644 154.475 336.25 155.029 336.865 155.597 C 339.959 158.533 342.997 161.507 346.006 164.525 C 346.621 165.142 347.236 165.749 347.87 166.382 C 348.457 166.972 349.044 167.561 349.65 168.173 C 350.18 168.701 350.709 169.229 351.249 169.774 C 353.15 171.83 354.267 173.404 354.778 176.178 C 353.501 184.608 343.886 191.489 338.076 197.285 C 336.997 198.362 335.919 199.441 334.84 200.519 C 332.597 202.767 330.355 205.012 328.102 207.256 C 325.207 210.133 322.33 213.018 319.453 215.907 C 317.238 218.13 315.015 220.348 312.839 222.566 C 311.703 223.628 310.661 224.694 309.621 225.76 C 308.107 227.242 306.688 228.718 305.174 230.193 C 304.7 230.636 304.322 231.079 303.848 231.535 C 300.82 234.54 300.82 234.54 298.833 234.54 C 298.833 235.112 298.833 235.684 298.833 236.274 C 297.414 237.759 295.994 239.196 294.48 240.609 C 293.629 241.567 292.682 242.524 291.736 243.481 C 289.275 245.811 289.275 245.811 287.572 245.811 C 287.383 246.293 287.194 246.776 287.004 247.272 C 285.585 249.826 283.787 251.578 281.705 253.639 C 281.232 254.046 280.853 254.454 280.38 254.875 C 279.15 256.176 277.825 257.47 276.501 258.763 C 275.554 259.629 274.702 260.494 273.85 261.361 C 272.242 262.966 270.633 264.566 269.024 266.166 C 266.186 268.944 263.347 271.727 260.602 274.568 C 260.035 275.147 259.467 275.724 258.9 276.321 C 258.331 276.904 257.764 277.489 257.196 278.091 C 255.492 279.594 254.073 280.407 251.991 281.36 C 251.613 280.945 251.234 280.531 250.761 280.103 C 248.869 278.189 246.976 276.28 245.083 274.369 C 244.42 273.717 243.853 273.065 243.191 272.393 C 239.595 268.806 235.904 265.391 232.118 262.09 C 228.239 258.679 224.738 254.946 221.142 251.288 C 218.208 248.38 215.369 245.546 212.246 242.885 C 206.947 238.317 202.121 233.228 197.201 228.245 C 193.321 224.307 189.346 220.509 185.182 216.903 C 181.776 213.887 178.653 210.575 175.436 207.322 C 172.218 204.044 168.906 200.959 165.405 197.949 C 162.187 195.194 159.254 192.312 156.226 189.399 C 155.279 188.515 155.279 188.515 154.333 187.609 C 149.98 183.344 149.98 183.344 148.939 179.921 C 151.115 172.489 158.118 167.003 163.417 161.762 C 164.08 161.018 164.837 160.27 165.688 159.495 C 171.934 153.225 171.934 153.225 175.814 152.605 C 180.735 153.239 182.721 155.742 186.129 159.109 C 187.358 160.27 188.684 161.436 189.914 162.598 C 195.402 167.575 200.702 172.63 206.095 177.677 C 213.003 184.176 220.006 190.632 227.104 196.986 C 227.861 197.685 228.618 198.385 229.469 199.111 C 230.037 199.643 230.604 200.177 231.267 200.726 C 231.267 199.938 231.267 199.154 231.267 198.345 C 231.267 179.217 231.267 160.09 231.361 140.966 C 231.361 131.722 231.361 122.468 231.361 113.219 C 231.361 105.162 231.456 97.097 231.456 89.04 C 231.456 84.767 231.456 80.504 231.456 76.232 C 231.456 72.213 231.456 68.197 231.551 64.175 C 231.551 62.705 231.551 61.231 231.551 59.753 C 231.456 57.742 231.551 55.731 231.551 53.707 C 231.551 52.581 231.551 51.453 231.551 50.301 C 232.308 46.311 233.633 44.906 236.472 42.055 C 240.352 40.123 245.934 40.92 250.193 40.885 Z" fill="#1386DC" style="stroke-width: 1;"/>
  <path d="M 194.551 329.362 C 195.97 329.353 195.97 329.353 197.389 329.343 C 200.512 329.325 203.635 329.339 206.852 329.353 C 209.124 329.346 211.395 329.339 213.666 329.329 C 219.154 329.31 224.738 329.314 230.226 329.327 C 234.674 329.337 239.216 329.338 243.663 329.333 C 244.326 329.333 244.989 329.332 245.651 329.331 C 246.881 329.329 248.205 329.328 249.531 329.327 C 261.643 329.314 273.85 329.328 285.963 329.353 C 296.373 329.371 306.876 329.369 317.276 329.348 C 329.398 329.325 341.511 329.316 353.624 329.329 C 354.92 329.33 356.207 329.332 357.494 329.333 C 358.138 329.334 358.772 329.336 359.434 329.336 C 363.91 329.339 368.387 329.333 372.862 329.323 C 378.9 329.309 384.927 329.318 390.956 329.344 C 393.17 329.349 395.384 329.347 397.599 329.338 C 400.617 329.327 403.636 329.342 406.655 329.362 C 407.535 329.353 408.415 329.344 409.333 329.334 C 413.383 329.39 415.294 329.455 418.616 331.939 C 420.679 334.874 420.802 336.668 420.821 340.24 C 420.821 341.383 420.83 342.528 420.83 343.706 C 420.821 344.298 420.812 344.889 420.802 345.498 C 420.773 347.307 420.802 349.112 420.83 350.92 C 420.83 352.063 420.821 353.206 420.821 354.383 C 420.812 355.428 420.802 356.471 420.802 357.548 C 420.234 360.259 420.234 360.259 418.607 362.136 C 414.67 364.456 411.197 364.21 406.692 364.173 C 405.755 364.18 404.818 364.185 403.854 364.193 C 400.702 364.209 397.552 364.199 394.4 364.19 C 392.148 364.197 389.895 364.203 387.634 364.213 C 382.136 364.232 376.648 364.231 371.15 364.225 C 366.683 364.218 362.217 364.219 357.75 364.226 C 356.794 364.227 356.794 364.227 355.829 364.228 C 354.542 364.229 353.245 364.231 351.958 364.233 C 339.846 364.248 327.733 364.241 315.583 364.226 C 304.51 364.212 293.439 364.226 282.367 364.25 C 271.012 364.276 259.657 364.285 248.3 364.278 C 246.976 364.277 245.651 364.276 244.42 364.275 C 243.475 364.274 243.475 364.274 242.528 364.272 C 237.986 364.27 233.538 364.279 229.09 364.292 C 223.129 364.31 217.073 364.303 211.111 364.281 C 208.84 364.278 206.663 364.28 204.487 364.291 C 201.459 364.304 198.525 364.292 195.497 364.272 C 194.172 364.287 194.172 364.287 192.847 364.303 C 188.872 364.252 186.129 364.148 183.006 361.697 C 180.45 358.833 180.262 357.424 180.262 353.621 C 180.262 352.52 180.262 351.42 180.262 350.285 C 180.262 349.142 180.262 347.998 180.356 346.82 C 180.262 345.678 180.262 344.533 180.262 343.356 C 180.356 335.047 180.356 335.047 182.533 331.944 C 186.507 329.004 189.724 329.31 194.551 329.362 Z" fill="#1086DC" style="stroke-width: 1;"/>
  <path d="M 196.727 281.498 C 198.525 281.477 198.525 281.477 200.229 281.454 C 202.595 281.428 204.96 281.421 207.325 281.423 C 210.448 281.423 213.382 281.364 216.505 281.291 C 219.344 281.23 222.277 281.233 225.211 281.228 C 226.819 281.181 226.819 281.181 228.523 281.133 C 234.674 281.213 237.797 282.049 242.149 286.469 C 243.475 287.938 244.705 289.414 245.934 290.897 C 246.976 291.757 248.017 292.594 249.057 293.389 C 251.14 295.215 251.802 295.968 251.991 298.699 C 252.654 298.699 253.221 298.699 253.789 298.699 C 253.978 297.923 253.978 297.923 254.073 297.129 C 254.641 295.231 254.641 295.231 256.344 292.631 C 256.912 292.631 257.479 292.631 258.142 292.631 C 258.331 292.134 258.521 291.637 258.805 291.124 C 260.886 287.154 263.725 284.48 267.605 282.227 C 272.431 281.228 277.163 281.311 282.083 281.385 C 283.503 281.38 285.017 281.374 286.437 281.364 C 290.411 281.347 294.291 281.374 298.265 281.41 C 302.334 281.44 306.498 281.434 310.568 281.432 C 317.513 281.436 324.421 281.464 331.338 281.513 C 339.334 281.568 347.322 281.586 355.318 281.583 C 363.835 281.581 372.352 281.605 380.877 281.637 C 383.318 281.644 385.769 281.646 388.23 281.648 C 392.073 281.651 395.924 281.673 399.784 281.708 C 401.194 281.718 402.614 281.722 404.024 281.72 C 405.954 281.718 407.875 281.738 409.806 281.762 C 410.884 281.769 411.964 281.775 413.08 281.781 C 416.43 282.311 417.897 283.269 420.234 285.694 C 420.783 288.5 420.783 288.5 420.783 291.791 C 420.783 292.376 420.793 292.957 420.793 293.56 C 420.793 294.789 420.773 296.019 420.764 297.25 C 420.727 299.128 420.736 301.004 420.754 302.883 C 420.745 304.081 420.745 305.279 420.736 306.476 C 420.717 308.105 420.717 308.105 420.707 309.767 C 420.158 313.052 419.391 314.061 416.771 316.04 C 414.32 316.856 412.834 317.019 410.298 317.025 C 409.503 317.028 408.708 317.033 407.885 317.036 C 407.014 317.036 406.134 317.036 405.235 317.036 C 404.298 317.039 403.371 317.042 402.415 317.045 C 399.283 317.055 396.141 317.059 393.009 317.06 C 390.766 317.068 388.533 317.072 386.29 317.077 C 379.562 317.095 372.824 317.104 366.096 317.112 C 362.926 317.116 359.756 317.12 356.586 317.126 C 346.054 317.14 335.521 317.153 324.988 317.159 C 322.254 317.161 319.519 317.163 316.785 317.164 C 315.772 317.164 315.772 317.164 314.731 317.165 C 303.753 317.172 292.682 317.195 281.705 317.221 C 270.35 317.251 259.088 317.267 247.827 317.27 C 241.487 317.272 235.052 317.279 228.712 317.302 C 222.75 317.322 216.789 317.324 210.827 317.316 C 208.651 317.316 206.474 317.321 204.297 317.333 C 201.269 317.348 198.241 317.341 195.308 317.331 C 194.456 317.34 193.509 317.349 192.658 317.358 C 188.872 317.324 186.696 317.275 183.479 315.256 C 179.788 311.198 180.64 306.31 180.64 301.071 C 180.64 299.892 180.64 298.714 180.545 297.535 C 180.545 295.832 180.545 294.129 180.45 292.425 C 180.45 291.405 180.45 290.386 180.356 289.334 C 180.924 286.561 180.924 286.561 182.438 284.074 C 186.98 281.145 191.523 281.522 196.727 281.498 Z" fill="#1185DB" style="stroke-width: 1;"/>
</svg>