<?xml version="1.0" encoding="utf-8"?>
<svg xmlns="http://www.w3.org/2000/svg" viewBox="0 0 500 500">
  <path d="M 116.751 184.663 C 120.115 185.136 122.192 186.521 125.062 188.325 C 125.556 188.661 126.149 189 126.645 189.346 C 128.425 190.422 130.107 191.518 131.888 192.607 C 133.57 193.693 135.252 194.775 137.033 195.852 C 138.616 196.827 140.199 197.817 141.683 198.807 C 144.552 200.38 146.927 201.554 150.093 202.24 C 151.972 201.615 151.972 201.615 153.358 200.236 C 153.951 199.78 154.446 199.324 155.039 198.854 C 155.634 198.364 156.128 197.873 156.721 197.366 C 157.316 196.887 157.909 196.398 158.503 195.902 C 159.986 194.706 161.273 193.492 162.757 192.268 C 165.33 193.459 167.209 194.734 169.287 196.785 C 169.88 197.329 170.374 197.872 170.968 198.433 C 171.463 199.02 172.057 199.604 172.65 200.207 C 173.244 200.808 173.936 201.41 174.53 202.028 C 176.41 203.945 178.29 205.87 180.268 207.791 C 181.456 209.094 182.841 210.397 184.028 211.698 C 187.293 214.886 190.459 218.079 193.526 221.277 C 190.954 223.937 188.282 226.115 185.315 228.245 C 162.657 244.593 146.927 270.151 141.683 297.642 C 139.507 311.731 139.704 327.212 143.662 340.933 C 143.958 341.878 143.958 341.878 144.255 342.842 C 148.312 357.181 154.743 369.557 164.538 380.819 C 165.032 381.418 165.526 382.014 166.022 382.628 C 171.562 389.517 178.982 394.977 186.304 399.855 C 186.304 399.215 186.304 398.577 186.304 397.917 C 186.205 395.012 186.205 392.108 186.205 389.206 C 186.205 388.198 186.205 387.191 186.205 386.153 C 186.205 385.182 186.205 384.212 186.205 383.213 C 186.205 382.321 186.205 381.43 186.106 380.509 C 186.304 377.929 186.6 376.582 188.183 374.474 C 192.438 370.922 196.891 371.373 202.232 371.409 C 203.222 371.407 204.212 371.4 205.201 371.396 C 208.366 371.385 211.632 371.394 214.897 371.404 C 217.271 371.399 219.546 371.394 221.922 371.389 C 227.561 371.376 233.299 371.379 238.938 371.388 C 243.589 371.393 248.238 371.393 252.789 371.391 C 253.482 371.39 254.076 371.39 254.769 371.39 C 256.154 371.39 257.439 371.389 258.825 371.388 C 271.291 371.379 283.857 371.389 296.322 371.404 C 307.106 371.414 317.891 371.413 328.606 371.399 C 341.081 371.385 353.548 371.381 366.034 371.389 C 367.359 371.39 368.685 371.39 370.021 371.391 C 370.674 371.391 371.327 371.392 372.009 371.392 C 376.61 371.394 381.23 371.391 385.841 371.384 C 392.055 371.375 398.258 371.382 404.461 371.397 C 406.746 371.4 409.032 371.399 411.307 371.393 C 414.424 371.387 417.521 371.396 420.638 371.409 C 421.548 371.405 422.448 371.397 423.388 371.391 C 429.097 371.44 432.361 372.137 436.507 376.286 C 436.943 380.241 436.923 384.208 436.951 388.181 C 436.972 390.152 437.022 392.119 437.07 394.09 C 437.091 395.347 437.101 396.606 437.101 397.862 C 437.121 399.004 437.15 400.148 437.16 401.323 C 436.458 404.652 435.518 405.908 432.866 407.979 C 429.245 409.885 425.307 409.554 421.31 409.52 C 420.331 409.528 419.351 409.538 418.362 409.549 C 415.147 409.574 411.94 409.568 408.736 409.562 C 406.499 409.574 404.272 409.588 402.047 409.604 C 396.19 409.639 390.333 409.648 384.476 409.653 C 378.5 409.661 372.515 409.695 366.538 409.727 C 354.814 409.786 343.08 409.817 331.356 409.827 C 332.078 410.387 332.8 410.947 333.543 411.521 C 335.818 413.393 337.015 414.86 338.48 417.384 C 338.915 418.125 339.341 418.865 339.786 419.629 C 340.221 420.395 340.656 421.163 341.101 421.952 C 341.773 423.091 341.773 423.091 342.457 424.253 C 347.186 432.494 347.186 432.494 346.771 436.116 C 344.663 438.648 342.16 440.519 339.518 442.462 C 338.806 442.987 338.104 443.511 337.381 444.052 C 335.146 445.67 332.89 447.244 330.624 448.806 C 329.822 449.357 329.021 449.908 328.21 450.476 C 326.598 451.557 325.015 452.634 323.53 453.709 C 321.75 454.917 319.968 456.144 318.287 457.383 C 311.757 461.847 311.757 461.847 307.601 462.29 C 302.852 461.183 300.874 458.814 297.806 455.153 C 296.718 453.925 295.63 452.697 294.541 451.47 C 293.058 449.73 291.573 447.995 290.089 446.201 C 288.606 444.446 288.606 444.446 286.033 442.462 C 281.284 442.742 276.93 444.123 272.479 445.691 C 271.885 445.904 271.291 446.116 270.599 446.335 C 269.114 446.851 267.631 447.375 266.048 447.901 C 266.048 448.867 265.948 449.831 265.849 450.825 C 265.454 454.417 265.157 458.006 264.761 461.595 C 264.662 463.146 264.465 464.698 264.365 466.251 C 264.168 468.487 263.969 470.719 263.673 472.953 C 263.673 473.644 263.574 474.334 263.574 475.046 C 263.178 478.353 262.486 480.46 260.606 483.219 C 256.945 485.714 254.076 485.875 249.822 485.973 C 249.03 485.998 248.338 486.019 247.546 486.042 C 245.271 486.093 242.896 486.1 240.621 486.093 C 239.73 486.094 238.938 486.095 238.048 486.097 C 236.267 486.098 234.487 486.095 232.705 486.093 C 229.935 486.086 227.264 486.093 224.593 486.098 C 222.811 486.097 221.031 486.095 219.35 486.093 C 218.459 486.095 217.767 486.098 216.876 486.1 C 201.343 486.041 201.343 486.041 197.087 483.191 C 195.01 479.953 194.515 477.151 194.218 473.396 C 194.12 472.725 194.12 472.055 194.021 471.362 C 193.922 469.285 193.724 467.206 193.526 465.124 C 193.526 464.141 193.526 464.141 193.427 463.137 C 193.229 460.197 193.031 457.257 192.932 454.313 C 192.735 451.009 192.735 451.009 191.746 447.901 C 189.569 446.391 189.569 446.391 186.898 445.167 C 185.413 444.449 185.413 444.449 183.93 443.715 C 182.94 443.227 181.851 442.738 180.862 442.234 C 179.774 441.732 178.785 441.231 177.696 440.713 C 175.124 439.471 172.552 438.242 169.979 437.022 C 168.891 437.863 167.704 438.709 166.516 439.554 C 165.923 440.025 165.23 440.495 164.637 440.978 C 162.856 442.376 161.273 443.836 159.789 445.465 C 156.226 449.053 152.468 452.114 148.608 455.227 C 146.432 456.91 146.432 456.91 144.65 458.779 C 141.189 459.139 139.011 459.205 136.044 457.473 C 134.954 456.521 134.954 456.521 133.768 455.549 C 132.976 454.798 132.086 454.044 131.196 453.27 C 130.206 452.387 129.217 451.505 128.327 450.619 C 127.831 450.148 127.238 449.677 126.744 449.191 C 122.291 445.209 118.037 441.128 113.783 437.022 C 112.991 436.263 112.2 435.506 111.408 434.723 C 108.836 432.312 106.363 429.882 103.889 427.447 C 102.701 426.3 102.701 426.3 101.514 425.126 C 100.723 424.396 100.031 423.665 99.239 422.912 C 98.249 421.944 98.249 421.944 97.26 420.959 C 95.282 418.426 94.984 416.58 94.787 413.454 C 95.776 411.187 95.776 411.187 97.26 408.92 C 97.853 408.067 98.448 407.215 99.14 406.336 C 99.733 405.395 100.426 404.453 101.118 403.482 C 101.91 402.381 102.701 401.278 103.493 400.175 C 109.528 391.467 109.528 391.467 112.298 388.433 C 114.08 386.4 114.08 386.4 113.486 384.129 C 112.893 381.737 112.101 379.629 111.012 377.381 C 110.617 376.586 110.32 375.792 109.924 374.972 C 109.528 374.152 109.132 373.335 108.836 372.492 C 108.045 370.856 107.253 369.219 106.56 367.58 C 106.164 366.859 105.769 366.137 105.472 365.395 C 104.78 363.597 104.78 363.597 104.78 361.783 C 104.186 361.793 103.592 361.801 102.998 361.812 C 74.01 362.239 74.01 362.239 68.271 358.688 C 65.798 354.979 65.6 351.072 65.205 346.713 C 65.006 345.776 64.907 344.84 64.808 343.875 C 63.918 335.65 63.226 327.451 63.028 319.178 C 63.028 318.264 62.929 317.348 62.929 316.406 C 62.929 313.421 62.83 310.435 62.83 307.451 C 62.83 306.499 62.83 305.546 62.731 304.566 C 62.731 303.678 62.731 302.789 62.731 301.873 C 62.731 300.684 62.731 300.684 62.731 299.469 C 63.028 297.422 63.028 297.422 64.017 295.889 C 66.688 294.096 69.557 293.643 72.724 293.048 C 73.416 292.912 74.01 292.775 74.802 292.633 C 76.879 292.199 79.056 291.78 81.232 291.361 C 82.716 291.067 84.2 290.774 85.586 290.48 C 96.171 288.357 96.171 288.357 98.349 288.357 C 98.448 287.366 98.645 286.375 98.744 285.354 C 99.338 280.526 100.426 275.854 101.614 271.133 C 101.81 270.259 102.107 269.382 102.306 268.483 C 102.8 266.344 103.296 264.204 103.79 262.068 C 103.296 261.808 102.701 261.548 102.207 261.279 C 99.635 259.923 97.755 258.116 95.677 256.119 C 91.324 252.129 86.872 248.567 82.222 245.119 C 79.65 242.328 79.451 240.436 79.352 236.686 C 80.045 234.459 80.045 234.459 81.331 232.325 C 81.925 231.473 82.321 230.623 82.815 229.746 C 89.444 219.39 96.369 209.177 103.592 199.29 C 104.383 198.175 105.175 197.056 106.066 195.934 C 107.352 194.131 108.638 192.35 110.023 190.571 C 110.419 190.012 110.814 189.457 111.211 188.882 C 114.08 185.118 114.08 185.118 116.751 184.663 Z" fill="#1185DC" style="stroke-width: 1;"/>
  <path d="M 258.726 20.62 C 260.211 20.614 261.595 20.587 262.981 20.545 C 264.959 20.505 267.037 20.482 269.016 20.463 C 270.005 20.44 270.005 20.44 270.896 20.403 C 274.952 20.421 277.327 21.397 280.393 24.074 C 282.372 26.581 282.175 29.034 282.175 32.18 C 282.175 32.848 282.175 33.51 282.175 34.2 C 282.175 36.427 282.175 38.653 282.075 40.884 C 282.075 42.486 282.075 44.082 282.075 45.679 C 282.075 50.021 282.075 54.36 282.075 58.697 C 281.976 63.234 281.976 67.769 281.976 72.305 C 281.976 80.89 281.976 89.479 281.877 98.069 C 281.877 107.845 281.779 117.621 281.779 127.406 C 281.679 147.51 281.581 167.622 281.482 187.736 C 282.668 186.719 283.857 185.707 284.944 184.691 C 285.636 184.124 286.231 183.558 286.924 182.974 C 293.058 177.628 298.994 172.182 304.634 166.362 C 307.008 163.924 309.481 161.628 312.153 159.402 C 316.605 155.546 320.661 151.364 324.816 147.169 C 326.3 145.642 327.804 144.113 329.308 142.596 C 329.961 141.929 330.614 141.262 331.296 140.572 C 334.324 137.683 335.996 136.196 340.191 135.497 C 343.515 135.631 345.029 136.587 347.443 138.805 C 348.066 139.38 348.7 139.959 349.343 140.553 C 352.578 143.623 355.754 146.732 358.9 149.888 C 359.543 150.533 360.186 151.167 360.849 151.829 C 361.463 152.446 362.076 153.062 362.71 153.702 C 363.264 154.254 363.817 154.806 364.382 155.375 C 366.369 157.525 367.537 159.171 368.071 162.071 C 366.736 170.885 356.684 178.079 350.609 184.139 C 349.481 185.265 348.354 186.393 347.226 187.52 C 344.881 189.87 342.537 192.217 340.181 194.564 C 337.154 197.572 334.146 200.588 331.138 203.608 C 328.823 205.933 326.498 208.251 324.223 210.57 C 323.036 211.681 321.946 212.795 320.859 213.91 C 319.276 215.459 317.792 217.002 316.21 218.545 C 315.714 219.008 315.319 219.471 314.823 219.948 C 311.657 223.089 311.657 223.089 309.58 223.089 C 309.58 223.688 309.58 224.286 309.58 224.902 C 308.096 226.455 306.612 227.957 305.029 229.435 C 304.139 230.436 303.149 231.437 302.16 232.437 C 299.587 234.874 299.587 234.874 297.806 234.874 C 297.609 235.377 297.411 235.882 297.212 236.401 C 295.729 239.071 293.849 240.903 291.672 243.058 C 291.178 243.483 290.781 243.91 290.287 244.35 C 289.001 245.71 287.616 247.063 286.231 248.415 C 285.241 249.32 284.351 250.225 283.46 251.131 C 281.779 252.809 280.096 254.482 278.414 256.155 C 275.447 259.059 272.479 261.969 269.609 264.939 C 269.016 265.545 268.422 266.148 267.829 266.772 C 267.234 267.382 266.642 267.993 266.048 268.623 C 264.266 270.194 262.783 271.044 260.606 272.041 C 260.211 271.607 259.814 271.174 259.32 270.726 C 257.342 268.725 255.362 266.729 253.383 264.731 C 252.69 264.05 252.097 263.368 251.405 262.665 C 247.646 258.915 243.786 255.345 239.828 251.894 C 235.773 248.327 232.112 244.424 228.353 240.6 C 225.285 237.559 222.317 234.596 219.052 231.814 C 213.511 227.038 208.466 221.718 203.322 216.508 C 199.265 212.391 195.109 208.42 190.756 204.65 C 187.195 201.496 183.93 198.034 180.566 194.633 C 177.202 191.205 173.739 187.98 170.079 184.833 C 166.714 181.953 163.648 178.939 160.482 175.894 C 159.492 174.97 159.492 174.97 158.503 174.022 C 153.951 169.563 153.951 169.563 152.863 165.984 C 155.138 158.214 162.46 152.478 168 146.999 C 168.693 146.221 169.485 145.439 170.374 144.629 C 176.905 138.073 176.905 138.073 180.961 137.425 C 186.106 138.088 188.183 140.705 191.746 144.225 C 193.031 145.439 194.417 146.658 195.703 147.873 C 201.441 153.076 206.982 158.361 212.621 163.638 C 219.843 170.433 227.165 177.183 234.586 183.826 C 235.377 184.557 236.169 185.289 237.059 186.048 C 237.652 186.604 238.245 187.162 238.938 187.736 C 238.938 186.912 238.938 186.093 238.938 185.247 C 238.938 165.248 238.938 145.251 239.037 125.256 C 239.037 115.591 239.037 105.916 239.037 96.246 C 239.037 87.822 239.136 79.39 239.136 70.967 C 239.136 66.499 239.136 62.042 239.136 57.576 C 239.136 53.374 239.136 49.175 239.235 44.97 C 239.235 43.433 239.235 41.892 239.235 40.347 C 239.136 38.244 239.235 36.141 239.235 34.025 C 239.235 32.848 239.235 31.669 239.235 30.464 C 240.027 26.293 241.412 24.824 244.38 21.843 C 248.437 19.823 254.273 20.656 258.726 20.62 Z" fill="#1386DC" style="stroke-width: 1;"/>
  <path d="M 200.551 322.228 C 202.035 322.218 202.035 322.218 203.518 322.208 C 206.784 322.189 210.049 322.204 213.412 322.218 C 215.788 322.211 218.162 322.204 220.536 322.193 C 226.274 322.173 232.112 322.177 237.85 322.191 C 242.501 322.201 247.249 322.202 251.899 322.197 C 252.592 322.197 253.285 322.196 253.977 322.195 C 255.263 322.193 256.647 322.192 258.034 322.191 C 270.697 322.177 283.46 322.192 296.124 322.218 C 307.008 322.237 317.989 322.235 328.862 322.213 C 341.536 322.189 354.201 322.179 366.865 322.193 C 368.22 322.194 369.565 322.196 370.911 322.197 C 371.584 322.198 372.247 322.2 372.939 322.2 C 377.619 322.204 382.3 322.197 386.979 322.187 C 393.291 322.172 399.593 322.182 405.896 322.209 C 408.211 322.214 410.526 322.212 412.842 322.202 C 415.997 322.191 419.153 322.207 422.31 322.228 C 423.23 322.218 424.15 322.209 425.11 322.198 C 429.344 322.257 431.342 322.325 434.815 324.922 C 436.972 327.99 437.101 329.866 437.121 333.601 C 437.121 334.796 437.13 335.993 437.13 337.225 C 437.121 337.843 437.111 338.461 437.101 339.098 C 437.07 340.989 437.101 342.877 437.13 344.767 C 437.13 345.962 437.121 347.157 437.121 348.387 C 437.111 349.48 437.101 350.571 437.101 351.697 C 436.507 354.531 436.507 354.531 434.806 356.493 C 430.69 358.919 427.058 358.662 422.348 358.623 C 421.369 358.63 420.389 358.636 419.381 358.644 C 416.086 358.661 412.792 358.65 409.497 358.641 C 407.142 358.648 404.787 358.654 402.423 358.665 C 396.675 358.685 390.937 358.684 385.189 358.677 C 380.518 358.67 375.849 358.671 371.179 358.679 C 370.179 358.68 370.179 358.68 369.17 358.681 C 367.825 358.682 366.469 358.684 365.123 358.686 C 352.46 358.702 339.795 358.694 327.092 358.679 C 315.515 358.664 303.94 358.679 292.364 358.704 C 280.493 358.731 268.621 358.74 256.747 358.733 C 255.362 358.732 253.977 358.731 252.69 358.73 C 251.702 358.729 251.702 358.729 250.712 358.727 C 245.963 358.725 241.313 358.734 236.662 358.748 C 230.43 358.766 224.098 358.759 217.865 358.736 C 215.491 358.733 213.215 358.735 210.939 358.746 C 207.774 358.76 204.706 358.748 201.54 358.727 C 200.155 358.742 200.155 358.742 198.77 358.759 C 194.614 358.706 191.746 358.597 188.481 356.034 C 185.808 353.04 185.612 351.567 185.612 347.591 C 185.612 346.44 185.612 345.29 185.612 344.103 C 185.612 342.908 185.612 341.712 185.71 340.48 C 185.612 339.286 185.612 338.089 185.612 336.859 C 185.71 328.171 185.71 328.171 187.986 324.927 C 192.141 321.853 195.504 322.173 200.551 322.228 Z" fill="#1086DC" style="stroke-width: 1;"/>
  <path d="M 202.826 272.185 C 204.706 272.163 204.706 272.163 206.488 272.139 C 208.961 272.112 211.434 272.104 213.907 272.107 C 217.172 272.107 220.239 272.045 223.504 271.968 C 226.473 271.905 229.539 271.908 232.607 271.903 C 234.288 271.853 234.288 271.853 236.07 271.803 C 242.501 271.887 245.766 272.761 250.316 277.382 C 251.702 278.918 252.988 280.461 254.273 282.012 C 255.362 282.911 256.451 283.786 257.538 284.617 C 259.716 286.526 260.408 287.314 260.606 290.169 C 261.299 290.169 261.892 290.169 262.486 290.169 C 262.683 289.358 262.683 289.358 262.783 288.527 C 263.376 286.543 263.376 286.543 265.157 283.825 C 265.751 283.825 266.344 283.825 267.037 283.825 C 267.234 283.305 267.433 282.785 267.73 282.249 C 269.906 278.098 272.874 275.303 276.93 272.947 C 281.976 271.903 286.924 271.989 292.067 272.067 C 293.552 272.062 295.135 272.055 296.62 272.045 C 300.775 272.027 304.831 272.055 308.986 272.093 C 313.24 272.124 317.594 272.118 321.849 272.116 C 329.11 272.12 336.333 272.149 343.564 272.201 C 351.924 272.258 360.276 272.277 368.636 272.274 C 377.541 272.272 386.445 272.297 395.358 272.33 C 397.91 272.338 400.473 272.34 403.046 272.342 C 407.064 272.345 411.09 272.368 415.126 272.404 C 416.6 272.415 418.085 272.419 419.559 272.417 C 421.577 272.415 423.585 272.436 425.604 272.461 C 426.731 272.468 427.86 272.475 429.027 272.481 C 432.53 273.035 434.063 274.037 436.507 276.572 C 437.081 279.506 437.081 279.506 437.081 282.946 C 437.081 283.558 437.091 284.166 437.091 284.796 C 437.091 286.081 437.07 287.367 437.061 288.654 C 437.022 290.617 437.032 292.579 437.051 294.543 C 437.041 295.796 437.041 297.048 437.032 298.3 C 437.012 300.003 437.012 300.003 437.001 301.741 C 436.427 305.175 435.625 306.23 432.886 308.299 C 430.324 309.152 428.77 309.323 426.119 309.329 C 425.287 309.332 424.456 309.337 423.596 309.341 C 422.685 309.341 421.765 309.341 420.825 309.341 C 419.845 309.344 418.876 309.347 417.877 309.35 C 414.602 309.36 411.317 309.365 408.043 309.366 C 405.698 309.374 403.363 309.378 401.018 309.383 C 393.984 309.402 386.939 309.412 379.905 309.42 C 376.59 309.424 373.276 309.428 369.962 309.435 C 358.95 309.449 347.938 309.463 336.925 309.469 C 334.067 309.471 331.207 309.473 328.349 309.474 C 327.29 309.474 327.29 309.474 326.202 309.475 C 314.724 309.483 303.149 309.507 291.672 309.534 C 279.8 309.565 268.026 309.582 256.252 309.585 C 249.624 309.587 242.896 309.595 236.267 309.619 C 230.034 309.64 223.801 309.642 217.568 309.633 C 215.293 309.633 213.017 309.639 210.741 309.651 C 207.575 309.667 204.409 309.659 201.343 309.649 C 200.452 309.658 199.462 309.668 198.572 309.677 C 194.614 309.642 192.339 309.59 188.975 307.48 C 185.116 303.237 186.007 298.126 186.007 292.649 C 186.007 291.416 186.007 290.185 185.908 288.952 C 185.908 287.171 185.908 285.391 185.808 283.609 C 185.808 282.543 185.808 281.477 185.71 280.378 C 186.304 277.478 186.304 277.478 187.887 274.878 C 192.636 271.816 197.385 272.21 202.826 272.185 Z" fill="#1185DB" style="stroke-width: 1;"/>
</svg>