<?xml version="1.0" encoding="UTF-8"?>
<svg version="1.1" xmlns="http://www.w3.org/2000/svg" width="1024" height="1024">
<path d="M0 0 C0.89267578 0.05671875 1.78535156 0.1134375 2.70507812 0.171875 C46.94198754 3.10544548 89.59559225 16.07501502 129 36 C130.53628711 36.75815956 132.07273002 37.51600355 133.609375 38.2734375 C157.37163388 50.19587824 179.74675012 66.73497002 199 85 C200.36900819 86.19440271 201.74368711 87.38234918 203.125 88.5625 C220.91513247 104.06065221 220.91513247 104.06065221 225 113 C225.66 113 226.32 113 227 113 C228.46948242 114.63256836 228.46948242 114.63256836 230.16796875 116.90234375 C230.79106934 117.72718262 231.41416992 118.55202148 232.05615234 119.40185547 C233.01835693 120.68793701 233.01835693 120.68793701 234 122 C235.2033426 123.56463675 236.40775828 125.12844882 237.61328125 126.69140625 C245.32727518 136.81119367 252.55602199 147.02578058 259 158 C259.3511084 158.59474121 259.7022168 159.18948242 260.06396484 159.80224609 C262.43508729 163.83637799 264.72398692 167.91152028 267 172 C267.62261719 173.07507813 268.24523437 174.15015625 268.88671875 175.2578125 C309.26207386 247.16361734 313.59972744 338.21478013 291.96484375 416.5859375 C282.71590243 448.40928883 269.22299185 478.92962301 250 506 C249.14668952 507.2223451 248.29383238 508.44500677 247.44140625 509.66796875 C242.54427039 516.6505946 237.45252123 523.4391623 232 530 C231.17628906 531.00933594 230.35257813 532.01867187 229.50390625 533.05859375 C223.44312756 540.37960906 216.96666842 547.21432129 210.25 553.9375 C209.45811279 554.73019287 208.66622559 555.52288574 207.8503418 556.33959961 C203.05640922 561.08841518 198.13165396 565.61961118 193 570 C192.09636719 570.78503906 191.19273437 571.57007813 190.26171875 572.37890625 C169.7595048 589.77001034 147.24816078 604.69933286 122.87158203 616.11279297 C120.91912176 617.03833962 118.98899952 618.00202159 117.05859375 618.97265625 C99.26201234 627.80386639 80.10510874 633.69256962 61 639 C60.31905273 639.19045898 59.63810547 639.38091797 58.93652344 639.57714844 C3.56076792 654.71446569 -56.98126966 651.45582452 -112 637 C-112.77069824 636.80325684 -113.54139648 636.60651367 -114.33544922 636.40380859 C-141.72811441 629.34993035 -169.09612392 617.05853819 -193 602 C-194.08087891 601.32469238 -194.08087891 601.32469238 -195.18359375 600.63574219 C-211.52093794 590.39260064 -226.7041303 578.92006189 -240.90625 565.84765625 C-243.06333263 563.86054661 -243.06333263 563.86054661 -246 562 C-246 561.34 -246 560.68 -246 560 C-246.59530518 559.73445312 -247.19061035 559.46890625 -247.80395508 559.1953125 C-250.0642319 557.96503842 -251.40616269 556.76218112 -253.13671875 554.875 C-253.99571777 553.9466333 -253.99571777 553.9466333 -254.87207031 552.99951172 C-255.47116211 552.33967285 -256.07025391 551.67983398 -256.6875 551 C-257.31108398 550.3208252 -257.93466797 549.64165039 -258.57714844 548.94189453 C-259.8234187 547.58247351 -261.0671275 546.22069924 -262.30810547 544.85644531 C-263.71790849 543.30952725 -265.14058233 541.77435141 -266.56640625 540.2421875 C-272.48587916 533.82501293 -277.800167 527.00085874 -283 520 C-283.61294922 519.18039795 -283.61294922 519.18039795 -284.23828125 518.34423828 C-291.47766383 508.6199089 -297.86506059 498.45028465 -304 488 C-304.4552002 487.23478027 -304.91040039 486.46956055 -305.37939453 485.68115234 C-316.99466072 466.02803943 -325.25462163 444.76518003 -332 423 C-332.20492569 422.33887207 -332.40985138 421.67774414 -332.62098694 420.99658203 C-335.80606013 410.63400767 -338.50067735 400.25588444 -340.625 389.625 C-340.77341339 388.88820007 -340.92182678 388.15140015 -341.07473755 387.39227295 C-345.78203113 363.69818981 -348.0531464 339.15442223 -347 315 C-346.95746094 313.92105469 -346.91492188 312.84210938 -346.87109375 311.73046875 C-346.24056438 297.06661899 -344.87876192 282.61852571 -342.625 268.125 C-342.42817627 266.84971436 -342.23135254 265.57442871 -342.02856445 264.26049805 C-339.62119085 249.55897254 -335.7598896 235.37006029 -331.0625 221.25 C-330.82967316 220.54777313 -330.59684631 219.84554626 -330.35696411 219.12203979 C-323.21002006 197.74490964 -313.59742049 177.33401586 -302 158 C-301.64550781 157.40687012 -301.29101562 156.81374023 -300.92578125 156.20263672 C-289.01581606 136.50581232 -274.57137992 116.8352 -257.9296875 100.89453125 C-256.05403281 99.05304841 -254.37454764 97.13896357 -252.6875 95.125 C-244.88667847 86.06307568 -235.34319153 78.39723026 -226 71 C-224.99324219 70.19820313 -223.98648438 69.39640625 -222.94921875 68.5703125 C-204.78785094 54.25583732 -184.83849531 41.84948774 -163.95214844 31.93554688 C-161.96898186 30.98513488 -160.00388679 30.00333187 -158.0390625 29.015625 C-146.40223309 23.24615154 -134.34104117 19.00578058 -122 15 C-120.70956787 14.57823486 -120.70956787 14.57823486 -119.39306641 14.14794922 C-80.91165193 1.70183998 -40.30771749 -2.80026895 0 0 Z M-207 131 C-207.66418945 131.64372559 -208.32837891 132.28745117 -209.01269531 132.95068359 C-217.53114879 141.23854807 -225.83214339 149.49654966 -233 159 C-233.4031543 159.52142578 -233.80630859 160.04285156 -234.22167969 160.58007812 C-271.55285659 208.91737095 -288.14168853 265.01683303 -288.3125 325.5625 C-288.31511841 326.45718994 -288.31773682 327.35187988 -288.32043457 328.27368164 C-288.32548539 344.4925706 -287.03486724 360.03714026 -284 376 C-283.85046875 376.80614746 -283.7009375 377.61229492 -283.546875 378.44287109 C-282.59972982 383.36824528 -281.37522542 388.17815987 -280 393 C-279.73203613 393.95406738 -279.46407227 394.90813477 -279.18798828 395.89111328 C-268.04708327 435.07407991 -249.37497458 468.32517419 -224 500 C-223.42121094 500.72574219 -222.84242188 501.45148438 -222.24609375 502.19921875 C-219.28581726 505.78865482 -216.04971418 508.74375469 -212.5 511.7421875 C-209.86407131 514.1227606 -207.41732599 516.63009073 -204.94970703 519.18237305 C-196.61359467 527.76328456 -187.74697209 535.07899565 -178 542 C-177.29004883 542.5062793 -176.58009766 543.01255859 -175.84863281 543.53417969 C-140.5981792 568.42531632 -100.55000118 583.50680063 -58 590 C-56.82083008 590.18022705 -55.64166016 590.3604541 -54.42675781 590.54614258 C-43.96845901 592.00606069 -33.67646798 592.35977128 -23.125 592.3125 C-22.27583008 592.31067719 -21.42666016 592.30885437 -20.55175781 592.30697632 C2.20130987 592.22519017 23.90299538 589.42866134 46 584 C47.13381104 583.73413086 47.13381104 583.73413086 48.29052734 583.46289062 C68.73912494 578.63404288 88.83447975 570.51811859 107 560 C108.77000952 559.08174362 110.54081395 558.1650175 112.3125 557.25 C125.32844988 550.1115953 137.42064847 541.25007532 149 532 C149.94230469 531.2884375 150.88460938 530.576875 151.85546875 529.84375 C152.56316406 529.2353125 153.27085937 528.626875 154 528 C154 527.34 154 526.68 154 526 C154.55308838 525.76998291 155.10617676 525.53996582 155.67602539 525.30297852 C158.65118656 523.63490044 160.75074482 521.54476474 163.18359375 519.15234375 C163.67554733 518.66881439 164.16750092 518.18528503 164.67436218 517.68710327 C166.26975407 516.11141262 167.85501532 514.52614881 169.4375 512.9375 C169.97945007 512.39467377 170.52140015 511.85184753 171.07977295 511.29257202 C179.90530899 502.41981177 187.91589323 493.34229428 195 483 C195.57927246 482.16339844 196.15854492 481.32679688 196.75537109 480.46484375 C207.21425848 465.29407439 216.68235171 449.94832241 224 433 C224.2872998 432.33581055 224.57459961 431.67162109 224.87060547 430.98730469 C230.52304599 417.70265083 234.35003314 403.94751841 238 390 C238.26216309 389.02651611 238.52432617 388.05303223 238.79443359 387.05004883 C240.75489984 379.5702964 242.04113452 372.08959031 243.125 364.4375 C243.29386719 363.29603516 243.46273437 362.15457031 243.63671875 360.97851562 C245.96809827 344.90668279 246.20502021 329.22071682 246 313 C245.99274902 312.11103027 245.98549805 311.22206055 245.97802734 310.30615234 C245.84493346 299.12852157 244.4358757 288.21102283 242.6875 277.1875 C242.48680908 275.91229492 242.28611816 274.63708984 242.0793457 273.32324219 C231.97628313 212.71269554 197.06529852 153.40403923 148 116 C146.53626953 114.82824219 146.53626953 114.82824219 145.04296875 113.6328125 C126.1099907 98.5492044 104.58461227 85.74328264 82 77 C81.38527832 76.75588379 80.77055664 76.51176758 80.13720703 76.26025391 C47.85049923 63.45089756 13.97720959 56.78009998 -20.75 56.75 C-21.46210632 56.74932526 -22.17421265 56.74865051 -22.90789795 56.74795532 C-90.49056828 56.84848842 -158.5039377 83.74999719 -207 131 Z " fill="#00A3FE" transform="translate(532,185)"/>
<path d="M0 0 C0.94617188 -0.04253906 1.89234375 -0.08507812 2.8671875 -0.12890625 C12.07565161 1.82540808 18.96580351 9.98672952 25.32641602 16.42333984 C26.3123073 17.41007924 27.29886341 18.39615477 28.286026 19.38162231 C30.94092541 22.03566754 33.58652856 24.69880208 36.23045468 27.36377287 C39.00367539 30.15585752 41.78550048 32.93934352 44.56639099 35.7237854 C49.82078898 40.98747547 55.06749822 46.25875979 60.31143087 51.53287375 C66.28620344 57.54127904 72.26958496 63.5410801 78.25367463 69.54020381 C90.55366312 81.871477 102.84289566 94.21341438 115.125 106.5625 C118.96087053 103.32005543 122.74070422 100.07175856 126.296875 96.52001953 C127.03454102 95.78550568 127.77220703 95.05099182 128.53222656 94.29421997 C129.3053418 93.51908051 130.07845703 92.74394104 130.875 91.9453125 C131.69194336 91.12932587 132.50888672 90.31333923 133.35058594 89.47262573 C135.06958836 87.7543007 136.78734107 86.03472464 138.50390625 84.31396484 C141.11347064 81.69905299 143.72831766 79.08950999 146.34375 76.48046875 C148.02115397 74.80240378 149.69824761 73.12402854 151.375 71.4453125 C152.14811523 70.6742215 152.92123047 69.90313049 153.71777344 69.1086731 C157.82413359 64.98476583 161.74884652 60.7701413 165.54785156 56.36203003 C167.72032584 53.88323183 170.02872768 51.56388512 172.375 49.25 C172.83680664 48.79197998 173.29861328 48.33395996 173.77441406 47.86206055 C175.70639565 45.94608083 177.64444784 44.03628835 179.58203125 42.12597656 C184.66555084 37.10754246 189.64076122 32.06451384 194.28808594 26.63525391 C198.25291613 22.16138251 202.52592031 17.97703773 206.75 13.75 C207.68759828 12.80022722 208.62509882 11.85035794 209.5625 10.90039062 C210.46226562 9.99869141 211.36203125 9.09699219 212.2890625 8.16796875 C213.09811035 7.35481201 213.9071582 6.54165527 214.74072266 5.70385742 C220.14014183 0.85455314 224.00553687 0.02356115 231.1171875 0.20703125 C237.46118512 0.95677642 242.50674002 4.23288127 247.125 8.5625 C247.125 9.2225 247.125 9.8825 247.125 10.5625 C247.68582275 10.80097656 248.24664551 11.03945313 248.82446289 11.28515625 C253.23274234 13.73279692 256.57445464 17.600386 260.12426758 21.13623047 C261.54226229 22.54243062 262.97904808 23.92959979 264.41601562 25.31640625 C271.00629647 31.85552754 277.03623284 38.53917417 277.625 48.1875 C277.45925229 58.67104284 270.58524849 64.78665694 263.61328125 71.59765625 C262.55953817 72.64459518 261.50683666 73.69258339 260.4551239 74.74156189 C257.69263318 77.4906969 254.91505523 80.22409239 252.13433838 82.95477295 C249.88260767 85.17119001 247.64198836 87.39865193 245.40188313 89.62680912 C242.70533775 92.30845288 240.00372618 94.98496466 237.30078125 97.66015625 C236.7951446 98.16088213 236.28950794 98.66160801 235.76854897 99.1775074 C226.8056282 108.03850264 226.8056282 108.03850264 222.11791992 112.05859375 C216.83211026 116.60306883 211.97503628 121.58858324 207.0625 126.52734375 C206.0204026 127.57131066 204.97808091 128.61505372 203.93554688 129.65858459 C201.21755554 132.38035922 198.5025831 135.10512523 195.78826904 137.83056641 C193.00782982 140.62131073 190.22448971 143.40915871 187.44140625 146.19726562 C181.99979158 151.64954358 176.56136897 157.10499109 171.125 162.5625 C175.07656966 167.29270681 179.18929822 171.77549234 183.5546875 176.125 C184.14871368 176.71998291 184.74273987 177.31496582 185.35476685 177.92797852 C186.60230842 179.17619554 187.85109339 180.42317099 189.10107422 181.66894531 C190.99170801 183.55423147 192.87695347 185.44478651 194.76171875 187.3359375 C195.98405463 188.5576123 197.20670082 189.77897671 198.4296875 191 C199.25821732 191.83156616 199.25821732 191.83156616 200.10348511 192.67993164 C202.87908476 195.43934749 205.70212315 198.08147248 208.6809082 200.62060547 C215.06682235 206.15413741 220.95242821 212.2253806 226.92578125 218.1953125 C228.25230365 219.51861633 229.57889893 220.8418471 230.90556335 222.16500854 C233.6716439 224.92513153 236.43568066 227.68728274 239.19848633 230.45068359 C242.73517081 233.98747016 246.27871379 237.51729889 249.82401752 241.04544258 C252.5597893 243.77009513 255.29100332 246.49928127 258.02095604 249.22976303 C259.32586483 250.53349398 260.63239039 251.83560883 261.94057655 253.13605118 C263.76636382 254.95202909 265.58569241 256.7742478 267.40356445 258.59814453 C267.94125458 259.13021515 268.4789447 259.66228577 269.03292847 260.21047974 C274.35110429 265.57350175 277.17981896 270.27193912 277.4375 277.8125 C277.47488281 278.51890625 277.51226563 279.2253125 277.55078125 279.953125 C276.34394713 287.34913592 271.6435233 292.65248383 266.48828125 297.765625 C265.84940475 298.41070007 265.21052826 299.05577515 264.55229187 299.72039795 C263.20660621 301.07314518 261.85583144 302.42084722 260.50024414 303.76367188 C258.44467954 305.80536889 256.41426086 307.86992562 254.38476562 309.9375 C253.06655615 311.25666086 251.74693954 312.57441742 250.42578125 313.890625 C249.82856766 314.5010968 249.23135406 315.1115686 248.61604309 315.74053955 C243.21529871 321.02597824 237.2249027 324.56022551 229.5625 325.0625 C215.43313242 324.255806 204.51893954 309.0946131 195.20227051 299.7149353 C193.27108124 297.77080366 191.33662825 295.82997055 189.40136719 293.88989258 C185.30639329 289.78359729 181.21542192 285.67332901 177.125 281.5625 C172.35386006 276.76773436 167.58108055 271.97462389 162.80410767 267.18566895 C160.89754384 265.27262052 158.99401073 263.35659095 157.09057617 261.44042969 C155.93032257 260.27654636 154.76992992 259.11280163 153.609375 257.94921875 C153.08058243 257.41525986 152.55178986 256.88130096 152.00697327 256.3311615 C149.32449854 253.60527378 149.32449854 253.60527378 146.125 251.5625 C146.125 250.9025 146.125 250.2425 146.125 249.5625 C145.465 249.5625 144.805 249.5625 144.125 249.5625 C144.125 248.9025 144.125 248.2425 144.125 247.5625 C143.58584961 247.34932129 143.04669922 247.13614258 142.49121094 246.91650391 C139.25997542 245.06751173 136.85101307 242.53454371 134.265625 239.8984375 C133.71638367 239.34636627 133.16714233 238.79429504 132.60125732 238.22549438 C130.85440707 236.46748185 129.11465399 234.7026311 127.375 232.9375 C126.18926409 231.7417292 125.0030712 230.54641135 123.81640625 229.3515625 C120.91394915 226.42709747 118.0178359 223.49648126 115.125 220.5625 C108.18704014 226.28936808 101.99056408 232.66824424 95.71289062 239.1015625 C94.89369141 239.93171875 94.07449219 240.761875 93.23046875 241.6171875 C92.11901489 242.75389893 92.11901489 242.75389893 90.98510742 243.91357422 C89.125 245.5625 89.125 245.5625 87.125 245.5625 C86.88232391 246.14296585 86.63964783 246.7234317 86.38961792 247.32148743 C84.89063126 249.97782173 83.21509313 251.44320825 80.89111328 253.41870117 C74.58384731 258.95947725 68.72240103 264.89782155 62.83007431 270.87395668 C60.82278729 272.90827947 58.81081953 274.93786377 56.7973938 276.96611023 C51.08041497 282.72546672 45.36642691 288.48769823 39.66845703 294.26586914 C36.16430562 297.81866083 32.65036147 301.36150868 29.12991714 304.89815331 C27.79866722 306.23925719 26.47106985 307.58399769 25.14733505 308.93251991 C23.29608735 310.81769626 21.43258029 312.68991715 19.56591797 314.55981445 C19.03064484 315.11103973 18.4953717 315.66226501 17.94387817 316.23019409 C13.39196225 320.74650533 8.39439682 324.00670254 2 325.09375 C0.576875 325.07828125 0.576875 325.07828125 -0.875 325.0625 C-1.82375 325.0728125 -2.7725 325.083125 -3.75 325.09375 C-11.31950215 323.80693464 -16.60106884 319.44102487 -21.859375 314.109375 C-22.48225403 313.49032288 -23.10513306 312.87127075 -23.74688721 312.23345947 C-25.05248363 310.93056776 -26.35311197 309.62268017 -27.64892578 308.31005859 C-29.61980575 306.31775072 -31.61113413 304.34770395 -33.60546875 302.37890625 C-34.87888854 301.10284293 -36.1510668 299.82553918 -37.421875 298.546875 C-38.01047302 297.9663739 -38.59907104 297.3858728 -39.20550537 296.78778076 C-43.67328648 292.21840385 -47.19220741 287.26140791 -48.37109375 280.875 C-48.35175781 280.111875 -48.33242188 279.34875 -48.3125 278.5625 C-48.31121094 277.799375 -48.30992187 277.03625 -48.30859375 276.25 C-47.07044005 268.57567795 -44.02087066 263.97358156 -38.59936523 258.6875 C-37.96815765 258.0523497 -37.33695007 257.4171994 -36.68661499 256.76280212 C-34.61418916 254.68370723 -32.52447614 252.62301914 -30.43359375 250.5625 C-28.9844088 249.11756785 -27.53618546 247.67167068 -26.08888245 246.22485352 C-23.06269495 243.20481604 -20.02845044 240.19320829 -16.98754883 237.18798828 C-13.08244935 233.32834207 -9.19295257 229.45342844 -5.30866909 225.57284546 C-2.32328957 222.59188349 0.6674864 219.61638885 3.66023064 216.64282227 C5.09707347 215.2148779 6.53283191 213.78584154 7.96750069 212.35571289 C9.96616993 210.36604165 11.97135884 208.38320008 13.97875977 206.40234375 C14.57465408 205.80711411 15.1705484 205.21188446 15.78450012 204.59861755 C19.89582106 200.5625 19.89582106 200.5625 22.125 200.5625 C22.125 199.9025 22.125 199.2425 22.125 198.5625 C23.3828125 197.32592773 23.3828125 197.32592773 25.25 195.80859375 C31.9159698 190.14046202 37.96397236 183.82886868 44.125 177.625 C45.3890885 176.35588627 46.65340956 175.08700411 47.91796875 173.81835938 C50.98966724 170.7357368 54.05820008 167.64999572 57.125 164.5625 C55.65028073 161.14586056 53.74122125 158.93774463 51.10829163 156.32546997 C50.26846237 155.48722687 49.42863312 154.64898376 48.56335449 153.78533936 C47.64018433 152.87407288 46.71701416 151.9628064 45.76586914 151.02392578 C44.78478138 150.04831522 43.80415626 149.07223924 42.82395935 148.09573364 C40.71397508 145.99545392 38.60097366 143.89827421 36.48564339 141.80337906 C33.13926381 138.48883948 29.80107878 135.16612927 26.46421814 131.8420105 C18.17414448 123.58600907 9.87482631 115.33931727 1.57061768 107.09753418 C-4.88216775 100.69323051 -11.3317218 94.28575471 -17.77077967 87.86764514 C-21.08537097 84.56456105 -24.40677897 81.26853848 -27.73349941 77.97767282 C-29.80447964 75.92592485 -31.86914163 73.86790803 -33.93211937 71.80811691 C-35.34228168 70.40387081 -36.75994008 69.0071649 -38.17782593 67.61071777 C-39.44179955 66.34489365 -39.44179955 66.34489365 -40.73130798 65.05349731 C-41.46337935 64.32678896 -42.19545073 63.6000806 -42.94970608 62.85135078 C-46.69779809 58.39549953 -48.29526947 54.35699184 -48.25 48.5625 C-48.25773437 47.5725 -48.26546875 46.5825 -48.2734375 45.5625 C-47.08851633 36.64074062 -39.82761872 30.71616164 -33.875 24.5625 C-33.06450195 23.71945312 -32.25400391 22.87640625 -31.41894531 22.0078125 C-29.13211106 19.63886123 -26.83568628 17.2800766 -24.52801514 14.931427 C-23.14639028 13.52182345 -21.7735561 12.10362101 -20.40087891 10.68530273 C-14.0801731 4.31013838 -9.32658765 0.18956479 0 0 Z " fill="#00A3FE" transform="translate(396.875,349.4375)"/>
</svg>
