<?xml version="1.0" encoding="UTF-8"?>
<svg version="1.1" xmlns="http://www.w3.org/2000/svg" width="1024" height="1024">
<path d="M0 0 C3.65551578 0.01028674 7.31096707 -0.0029473 10.9664733 -0.01297333 C17.3527643 -0.027325 23.73891969 -0.027041 30.12521669 -0.01678469 C39.62228163 -0.00157442 49.11923343 -0.00943112 58.61629776 -0.02161792 C75.58386302 -0.0426225 92.55136783 -0.04087867 109.51893876 -0.02930227 C124.36795012 -0.0192216 139.21693938 -0.01662182 154.06595346 -0.02139284 C155.54607365 -0.02185116 155.54607365 -0.02185116 157.05609526 -0.02231872 C161.06208894 -0.02356417 165.0680826 -0.02483778 169.07407626 -0.02615778 C206.61780877 -0.03838104 244.16150289 -0.02732017 281.70522948 -0.00577019 C315.02666833 0.01321081 348.34804602 0.01151224 381.66948434 -0.00761416 C419.14658614 -0.02905423 456.62365405 -0.03751401 494.10076114 -0.0251651 C498.09925989 -0.02388232 502.09775865 -0.02263096 506.09625741 -0.02139284 C507.08071761 -0.02107654 508.06517782 -0.02076023 509.07947015 -0.02043433 C523.91550939 -0.01589333 538.75152406 -0.02118893 553.5875599 -0.03131106 C570.46465082 -0.04276864 587.34167209 -0.03984505 604.21875437 -0.01818808 C613.65264047 -0.00648016 623.08637558 -0.00562209 632.52025762 -0.02077278 C638.83469217 -0.02979132 645.14900654 -0.02407238 651.46342339 -0.0067537 C655.05242279 0.00269206 658.64112395 0.00616234 662.23011317 -0.00837763 C681.9984829 -0.08260948 701.12962935 0.95406575 719.76860543 8.13887022 C720.67022409 8.47805479 721.57184274 8.81723936 722.50078317 9.16670225 C736.94489623 14.79493876 749.7208917 22.58934835 761.58110543 32.51387022 C762.39966012 33.18031553 763.21821481 33.84676084 764.06157418 34.53340147 C770.02467165 39.57278332 774.80323459 45.36179271 779.58110543 51.51387022 C780.3642109 52.48066709 780.3642109 52.48066709 781.16313668 53.46699522 C794.28626859 70.09685933 801.27860037 88.96968364 805.58110543 109.51387022 C805.75318133 110.30520491 805.92525723 111.0965396 806.10254755 111.91185413 C806.79005714 117.08661079 806.72216081 122.21042088 806.71532651 127.42518041 C806.71767874 128.64005223 806.72003097 129.85492404 806.72245448 131.10661016 C806.72797351 134.48600048 806.72901676 137.86533886 806.72817707 141.24473008 C806.72834674 144.91875867 806.73425473 148.59277878 806.73941793 152.26680312 C806.74874222 159.5573088 806.7526657 166.8478084 806.7549369 174.1383193 C806.75789949 182.86998091 806.76659733 191.60163448 806.77535118 200.33329187 C806.79619609 221.44092722 806.80666611 242.54856397 806.81548079 263.65620722 C806.81968791 273.64405163 806.82490987 283.63189543 806.83016532 293.61973932 C806.84805705 327.81592216 806.86305191 362.01210517 806.87048551 396.20829199 C806.87096026 398.35523191 806.87143615 400.50217183 806.87191317 402.64911175 C806.87226773 404.24613452 806.87226773 404.24613452 806.87262946 405.87542038 C806.87383065 411.2695521 806.8750461 416.66368381 806.87627145 422.05781553 C806.8765116 423.12829493 806.87675175 424.19877432 806.87699918 425.30169249 C806.88488882 459.99461597 806.90831295 494.68750523 806.94082739 529.38041377 C806.97514786 566.0674196 806.99483878 602.75440542 806.99812975 639.44142757 C806.99854728 643.47131624 806.99902684 647.50120491 806.99955293 651.53109358 C806.99967612 652.52335131 806.99979931 653.51560904 806.99992624 654.53793519 C807.00225569 670.48775042 807.01790162 686.43752583 807.03839477 702.38732689 C807.05868035 718.43056425 807.06411719 734.47375393 807.05462414 750.51700174 C807.04941954 760.0399017 807.05523726 769.56264257 807.07715881 779.08551954 C807.09071639 785.45852748 807.08954637 791.83142654 807.07675685 798.20443569 C807.06989295 801.8279874 807.06907665 805.4512361 807.08631694 809.07476013 C807.15610739 824.69827849 806.5353878 839.35146541 802.58110543 854.51387022 C802.28049638 855.71055755 801.97988732 856.90724488 801.6701689 858.14019547 C797.72276511 873.06526965 790.04365776 887.39997473 780.58110543 899.51387022 C780.14459664 900.07380674 779.70808786 900.63374326 779.25835153 901.21064756 C773.59142407 908.38475784 767.46249636 914.80410646 760.58110543 920.82637022 C759.94608102 921.38388975 759.31105661 921.94140928 758.65678903 922.51582334 C755.63154038 925.08230869 753.54669014 926.74823219 749.58110543 927.51387022 C749.58110543 928.17387022 749.58110543 928.83387022 749.58110543 929.51387022 C745.92895779 931.54124352 742.25732276 933.53052828 738.58110543 935.51387022 C737.70196481 936.00500303 736.82282418 936.49613584 735.91704293 937.00215147 C729.61771189 940.36966129 723.13569935 942.88886753 716.39360543 945.20137022 C715.58165719 945.48681699 714.76970895 945.77226377 713.93315621 946.06636045 C696.66041063 951.78433872 679.60851089 951.95696609 661.60000131 951.9116756 C657.9376606 951.90581361 654.2753653 951.91745233 650.61303737 951.92673729 C644.20848545 951.94058836 637.80400417 951.94340108 631.39944001 951.9387779 C621.87497248 951.9319206 612.35057597 951.94223547 602.82611832 951.95573546 C584.82162204 951.98060052 566.8171555 951.98516662 548.81264479 951.98326949 C534.90449842 951.98189452 520.99636231 951.9857233 507.08821794 951.99319456 C505.08750952 951.99424491 503.08680111 951.99529253 501.08609269 951.99633742 C499.59628867 951.99711644 499.59628867 951.99711644 498.0763876 951.99791119 C496.58380054 951.9986914 496.58380054 951.9986914 495.06106021 951.99948738 C494.06428947 952.00001137 493.06751872 952.00053536 492.0405428 952.00107523 C464.0179585 952.01565184 435.99537797 952.02394402 407.97278997 952.01932523 C406.91710667 952.01915328 405.86142338 952.01898132 404.77374969 952.01880416 C399.423579 952.01791532 394.07340832 952.01697051 388.72323765 952.01600615 C387.66074842 952.01581512 386.59825919 952.01562408 385.50357332 952.01542726 C383.35496291 952.01504017 381.20635249 952.01464984 379.05774208 952.01425628 C345.63622097 952.00828821 312.21476913 952.02371877 278.79326364 952.0558624 C241.21032142 952.09197804 203.62742312 952.11126674 166.04446246 952.1063237 C162.03320941 952.10585375 158.02195635 952.10544349 154.01070329 952.105072 C152.52928793 952.10491842 152.52928793 952.10491842 151.017945 952.10476174 C136.14010786 952.10356929 121.26231835 952.11550293 106.38449403 952.13421629 C89.45285561 952.15550314 72.52131676 952.15925243 55.58967383 952.1399167 C46.12751901 952.12962886 36.66560743 952.13296204 27.20347486 952.15644755 C20.86623339 952.17077505 14.5291702 952.16659872 8.19194048 952.14800178 C4.5922506 952.13794003 0.99303088 952.13527615 -2.60662799 952.15532247 C-43.3641175 952.36689887 -78.50949428 941.7597761 -108.16889457 913.13887022 C-117.65347481 903.32003164 -125.13288485 892.6036209 -131.41889457 880.51387022 C-132.026043 879.35371397 -132.63319144 878.19355772 -133.25873832 876.99824522 C-136.78711205 869.9864391 -139.44810415 862.83425836 -141.73139457 855.32637022 C-141.97389945 854.53150205 -142.21640433 853.73663389 -142.46625785 852.91767881 C-145.54341141 842.2987807 -146.71685168 831.91328518 -146.67616347 820.87989042 C-146.67966955 819.65978391 -146.68317562 818.4396774 -146.68678794 817.18259797 C-146.69445197 813.81643944 -146.69326922 810.45050131 -146.6882324 807.0843524 C-146.68494826 803.41429616 -146.6932628 799.74426241 -146.70005075 796.07421348 C-146.71033276 789.648476 -146.71319767 783.22276864 -146.71113852 776.79702375 C-146.70808384 767.24118359 -146.71642291 757.68537666 -146.72688778 748.12954296 C-146.74621608 730.06718468 -146.75185558 712.00483776 -146.75300189 693.94247035 C-146.75392153 679.99078921 -146.75804109 666.03911253 -146.76440314 652.08743284 C-146.76619828 648.06913962 -146.76797791 644.0508464 -146.7697529 640.03255317 C-146.77019499 639.03354332 -146.77063709 638.03453347 -146.77109258 637.0052506 C-146.78339889 608.90943801 -146.79129393 580.81362696 -146.79040603 552.71781156 C-146.79037487 551.65881446 -146.79034371 550.59981735 -146.79031161 549.50872942 C-146.7901454 544.14149621 -146.78994732 538.774263 -146.78974219 533.40702979 C-146.7897023 532.34111113 -146.78966241 531.27519247 -146.78962131 530.17697325 C-146.78954044 528.02142568 -146.78945684 525.86587811 -146.78937053 523.71033053 C-146.78814534 490.18226131 -146.80315319 456.65423255 -146.83051566 423.1261749 C-146.86125753 385.44186482 -146.87844686 347.75758132 -146.87658922 310.0732579 C-146.87643996 306.05244984 -146.87634254 302.03164178 -146.87628058 298.01083372 C-146.87625727 297.02083814 -146.87623397 296.03084256 -146.87620995 295.01084711 C-146.87614848 279.1004174 -146.88890357 263.19002291 -146.90614511 247.27960366 C-146.92312464 231.2796631 -146.9250573 215.2797739 -146.91192647 199.2798293 C-146.90455262 189.78356306 -146.9081483 180.28745315 -146.92781115 170.79120358 C-146.93985409 164.43615626 -146.93717241 158.08122156 -146.92287015 151.7261793 C-146.91514332 148.11299606 -146.91344934 144.5001142 -146.92978486 140.8869528 C-147.10171031 100.22877144 -135.83061387 66.23590764 -106.86420707 36.82246397 C-93.51821445 23.76724173 -76.57545335 13.4984896 -58.91889457 7.51387022 C-58.1751055 7.25968321 -57.43131644 7.00549619 -56.66498832 6.74360655 C-53.93588574 5.89247052 -51.19485781 5.2000799 -48.41889457 4.51387022 C-47.76840028 4.35291461 -47.117906 4.191959 -46.44769976 4.02612595 C-30.96831197 0.33122596 -15.85125346 -0.06421773 0 0 Z " fill="#094CA0" transform="translate(182.41889456659555,36.48612978309393)"/>
<path d="M0 0 C5.76216158 3.94067909 10.49930233 9.49680967 15.1875 14.625 C20.02535299 19.85748149 24.92794149 24.99404388 30 30 C33.99382893 33.94549483 37.82572956 37.96231214 41.4609375 42.2421875 C43.60896997 44.69552407 45.93653754 46.94653244 48.26171875 49.23046875 C50.02957316 51.03010481 51.67254542 52.89601912 53.3125 54.8125 C56.07618029 58.02333755 58.98619596 61.02267165 62 64 C65.60719127 67.56359983 68.99477889 71.21924856 72.2890625 75.0703125 C74.7469496 77.84245001 77.39623604 80.40550689 80.03515625 83.00390625 C81.92230744 84.92107177 83.68685375 86.89575322 85.4375 88.9375 C88.00665271 91.92801716 90.69317256 94.73116684 93.5 97.5 C97.54937595 101.50108697 101.31521514 105.664396 105 110 C106.175625 111.2684375 106.175625 111.2684375 107.375 112.5625 C109.53538251 115.80307376 109.93187446 118.11684403 110 122 C108.33917095 126.70568231 106.1132785 129.22353702 102 132 C99.03312966 132.98895678 97.07682997 133.12986468 93.98120117 133.1418457 C92.44897163 133.15239738 92.44897163 133.15239738 90.88578796 133.16316223 C89.78265762 133.16732651 88.67952728 133.17149078 87.54296875 133.17578125 C85.21027743 133.19897919 82.87759511 133.22309652 80.54492188 133.24804688 C76.86476621 133.28316614 73.18494155 133.31250933 69.50463867 133.32592773 C65.95450716 133.34140761 62.40534422 133.38161916 58.85546875 133.42578125 C57.20988228 133.42291862 57.20988228 133.42291862 55.53105164 133.41999817 C49.56919592 133.51536387 45.56825592 133.7490284 41 138 C37.95755853 141.85329248 37.36164732 145.68741167 36.859375 150.44921875 C36.67865583 151.9396267 36.49714554 153.42993888 36.31494141 154.92016602 C36.17780731 156.0869841 36.17780731 156.0869841 36.03790283 157.27737427 C34.08089721 173.66008772 31.06423282 189.25690157 26 205 C25.72430176 205.85787109 25.44860352 206.71574219 25.16455078 207.59960938 C16.44342456 234.06012143 3.06500806 258.1715684 -15.87890625 278.69140625 C-17.82998345 280.81495436 -19.69968282 282.98675681 -21.5625 285.1875 C-48.13138813 315.59845773 -91.80739731 335.70456986 -131 342 C-132.84851563 342.30357422 -132.84851563 342.30357422 -134.734375 342.61328125 C-143.61913381 343.92513934 -152.46272391 344.20207489 -161.4375 344.25 C-162.54649658 344.25926514 -163.65549316 344.26853027 -164.7980957 344.27807617 C-166.35016724 344.27191284 -166.35016724 344.27191284 -167.93359375 344.265625 C-168.86228271 344.26336914 -169.79097168 344.26111328 -170.74780273 344.25878906 C-173 344 -173 344 -175 342 C-175.0625 339.125 -175.0625 339.125 -174 336 C-168.56004601 332.33933391 -162.73421072 330.35868123 -156.5625 328.25 C-116.99212407 314.26984972 -83.0710909 285.90583383 -64.65991211 247.88183594 C-57.76370886 233.10347793 -53.50167575 217.91254193 -50 202 C-49.81775879 201.1970752 -49.63551758 200.39415039 -49.44775391 199.56689453 C-46.78993002 187.37792909 -46.69426641 175.1079275 -46.625 162.6875 C-46.6169635 161.86569244 -46.608927 161.04388489 -46.60064697 160.19717407 C-46.58301932 157.82245606 -46.58829816 155.44894539 -46.6015625 153.07421875 C-46.59268005 152.00963943 -46.59268005 152.00963943 -46.58361816 150.92355347 C-46.66957403 144.6752877 -47.93524877 140.0250919 -52.453125 135.59399414 C-57.56948767 133.29465962 -62.20144227 133.45435113 -67.75 133.49609375 C-68.88147461 133.48667252 -70.01294922 133.47725128 -71.17871094 133.46754456 C-74.78599237 133.43891953 -78.39261422 133.43581565 -82 133.4375 C-85.60728931 133.43389079 -89.21409969 133.42434188 -92.82128906 133.39674377 C-95.06276401 133.37997541 -97.3043967 133.37706378 -99.54589844 133.38975525 C-106.4406262 133.3432841 -111.11686443 132.7272904 -116.3125 127.8125 C-118.47729181 124.20451365 -119.33306943 121.21332831 -119 117 C-116.78995899 112.48783294 -113.41975384 109.30196914 -109.8515625 105.84765625 C-107.98937898 103.98940139 -106.27422858 102.05951668 -104.5625 100.0625 C-102.14382221 97.25423653 -99.64100317 94.60029407 -97 92 C-92.41161382 87.47349957 -88.22877707 82.64554027 -84.078125 77.71875 C-83.45421875 76.9865625 -82.8303125 76.254375 -82.1875 75.5 C-81.62417969 74.8296875 -81.06085938 74.159375 -80.48046875 73.46875 C-79 72 -79 72 -77 72 C-76.76667969 71.43796875 -76.53335938 70.8759375 -76.29296875 70.296875 C-74.68062924 67.43265858 -72.6806438 65.52747979 -70.3125 63.25 C-66.566925 59.5851486 -63.04938216 55.84225222 -59.64453125 51.86328125 C-57.99601248 49.99548207 -56.27696419 48.24544376 -54.5 46.5 C-52.148274 44.18980559 -49.94960735 41.82217812 -47.8125 39.3125 C-44.70384609 35.69860211 -41.38884352 32.3471411 -38 29 C-34.75701576 25.79658244 -31.57063745 22.60892653 -28.625 19.125 C-25.1821935 15.09126403 -21.4790651 11.32943324 -17.75 7.5625 C-17.13463379 6.93424316 -16.51926758 6.30598633 -15.88525391 5.65869141 C-15.29921387 5.0713623 -14.71317383 4.4840332 -14.109375 3.87890625 C-13.58311523 3.3485376 -13.05685547 2.81816895 -12.51464844 2.27172852 C-9.03469168 -0.65011139 -4.303354 -0.93871945 0 0 Z " fill="#59AFF5" transform="translate(742,198)"/>
<path d="M0 0 C1.19932763 -0.00384115 2.39865527 -0.00768229 3.63432616 -0.01163983 C4.97199362 -0.01085955 6.30966103 -0.00998075 7.64732838 -0.00901413 C9.06314815 -0.01159713 10.4789672 -0.01461011 11.89478523 -0.01801753 C15.79470731 -0.02609859 19.69461101 -0.02787772 23.59454048 -0.028615 C27.79713904 -0.03046366 31.99972802 -0.03801009 36.20232105 -0.04475021 C45.39660089 -0.05834239 54.59087638 -0.06435976 63.78516459 -0.06876087 C69.52496448 -0.07152206 75.26476268 -0.07575922 81.00456142 -0.08026505 C96.89264508 -0.09245936 112.78072738 -0.10275803 128.66881561 -0.10614014 C130.19467623 -0.10646949 130.19467623 -0.10646949 131.75136231 -0.10680549 C132.77105645 -0.10702377 133.79075058 -0.10724204 134.84134454 -0.10746694 C136.90767936 -0.1079104 138.97401418 -0.10835697 141.04034901 -0.10880661 C142.0653255 -0.10902804 143.09030199 -0.10924947 144.14633838 -0.10947761 C160.75326988 -0.1134253 177.36015749 -0.13087771 193.96707203 -0.15416613 C211.01231444 -0.17787649 228.05753482 -0.19034186 245.10279399 -0.19150805 C254.67498209 -0.19242505 264.24711303 -0.19818333 273.81928539 -0.21632767 C281.97079937 -0.23172446 290.12223852 -0.23685164 298.27376428 -0.22858956 C302.43270484 -0.22468143 306.59149471 -0.22562055 310.75041676 -0.23964691 C314.559591 -0.25237617 318.36850116 -0.25119698 322.17767499 -0.2390562 C324.20466447 -0.23617129 326.23165847 -0.24804242 328.25861186 -0.26047826 C336.28818016 -0.21683336 341.9590297 0.61875461 348.96832752 4.69392776 C355.25614053 11.32162255 357.04010829 18.74119709 356.90973377 27.63533401 C356.91214573 28.5986615 356.91455769 29.56198898 356.91704273 30.55450821 C356.91607022 32.57555159 356.90282039 34.59662362 356.87775135 36.61751175 C356.84336993 39.690138 356.85714371 42.75989251 356.87653065 45.83259964 C356.8696325 47.80852319 356.8599604 49.78443941 356.84723377 51.76033401 C356.85219364 52.66683197 356.85715351 53.57332993 356.86226368 54.50729752 C356.73641947 61.40472077 355.3532709 67.75598426 350.58968067 72.98935318 C342.67946529 80.39081703 334.88043097 80.56560497 324.47127247 80.51237869 C323.05612243 80.51583758 321.64097509 80.5206037 320.22583336 80.52656043 C316.34628025 80.53906859 312.46694891 80.53290092 308.58739507 80.52360177 C304.39985339 80.51681079 300.21234969 80.52729279 296.02481556 80.53554153 C287.82477425 80.54888088 279.62481532 80.54600013 271.42477078 80.53730361 C264.75976253 80.53052781 258.09477736 80.5296099 251.42976665 80.53287506 C250.48107596 80.53333476 249.53238527 80.53379446 248.55494637 80.53426809 C246.62767196 80.53522727 244.70039754 80.53619991 242.77312314 80.53718586 C224.7009717 80.54574047 206.62886592 80.53590475 188.55672198 80.51978476 C173.05286905 80.50638369 157.54908352 80.50870781 142.04523182 80.52254105 C124.03919218 80.53859934 106.03319256 80.54491421 88.02714676 80.53570426 C86.1066659 80.53474861 84.18618503 80.5338055 82.26570415 80.53287506 C81.32080494 80.53241223 80.37590573 80.53194941 79.40237321 80.53147256 C72.74654326 80.52888326 66.0907387 80.53325242 59.43491268 80.54031372 C51.32191204 80.54873177 43.20899846 80.54644223 35.09600777 80.53047149 C30.95729973 80.52259256 26.8187368 80.51949069 22.68002987 80.52941895 C18.88950611 80.53837434 15.09926165 80.53341921 11.30876314 80.51748629 C9.29191566 80.51256076 7.27504872 80.52232751 5.25822169 80.53265798 C-2.34784199 80.48333497 -8.55841667 80.10655227 -14.92620373 75.55330276 C-15.45600842 75.00158401 -15.9858131 74.44986526 -16.53167248 73.88142776 C-17.07436779 73.34002151 -17.6170631 72.79861526 -18.17620373 72.24080276 C-22.74984471 65.98823029 -23.1863091 60.25598789 -23.18792248 52.73689651 C-23.195536 51.74949982 -23.20314953 50.76210312 -23.21099377 49.74478531 C-23.2217608 47.66299837 -23.22466175 45.58115757 -23.22014904 43.49934769 C-23.21917854 40.3386665 -23.26080283 37.18042986 -23.30510998 34.02009964 C-23.31031927 31.98820361 -23.31300513 29.95629922 -23.31292248 27.92439651 C-23.32931774 26.9917749 -23.34571301 26.05915329 -23.36260509 25.09827042 C-23.2907404 18.16616605 -21.46946497 12.97104466 -17.71917248 7.13142776 C-15.36760998 4.87752151 -15.36760998 4.87752151 -13.09417248 3.56892776 C-11.96108654 2.88636917 -11.96108654 2.88636917 -10.80510998 2.19002151 C-7.05837233 0.28858724 -4.14534406 0.00497074 0 0 Z " fill="#FEFEFE" transform="translate(210.71917247772217,196.86857223510742)"/>
<path d="M0 0 C1.1077657 -0.00583219 2.2155314 -0.01166439 3.35686576 -0.01767331 C4.56347142 -0.01389399 5.77007707 -0.01011467 7.01324654 -0.00622082 C8.3031311 -0.01004636 9.59301567 -0.01387191 10.92198765 -0.01781338 C14.49591463 -0.02809507 18.06974131 -0.02591114 21.64367652 -0.02163279 C25.50062183 -0.01916587 29.35754298 -0.02817933 33.21447945 -0.03567028 C40.76826882 -0.04842036 48.32202266 -0.05021058 55.87582098 -0.04787002 C62.01596463 -0.046087 68.15609749 -0.04783615 74.29623985 -0.05209446 C75.17013128 -0.05268965 76.04402271 -0.05328484 76.9443957 -0.05389806 C78.71971265 -0.05510981 80.49502959 -0.05632395 82.27034654 -0.05754044 C98.91991038 -0.06841722 115.56945397 -0.06625286 132.21901895 -0.06015559 C147.44839485 -0.05498663 162.67770678 -0.06624108 177.90707003 -0.08525381 C193.54667629 -0.10462893 209.18625229 -0.11288876 224.82587063 -0.10913056 C233.6054718 -0.10721798 242.38501853 -0.1097116 251.16460991 -0.1238451 C258.63899972 -0.13575573 266.11330159 -0.13716739 273.5876926 -0.12505493 C277.40033425 -0.11916393 281.21281499 -0.11807285 285.02544594 -0.13005733 C289.1606673 -0.14290465 293.29550531 -0.13245695 297.43072701 -0.11974621 C299.23394332 -0.13080764 299.23394332 -0.13080764 301.07358825 -0.14209253 C308.96112045 -0.09102083 315.98734421 0.61391522 322.16147041 6.06697559 C322.70416573 6.52717091 323.24686104 6.98736622 323.80600166 7.46150684 C328.81399469 13.28092153 328.8036826 18.97078888 328.78256416 26.27791309 C328.78780602 27.33805622 328.79304787 28.39819935 328.79844856 29.49046803 C328.8048575 31.72787572 328.80354643 33.96531717 328.79501534 36.20271778 C328.78651596 39.61121153 328.81526727 43.01802264 328.84701729 46.42635059 C328.84862982 48.60603759 328.84805077 50.78572754 328.84506416 52.96541309 C328.85629814 53.97711567 328.86753212 54.98881824 328.87910652 56.03117847 C328.80849422 63.2651676 327.51531519 68.9343003 322.41928291 74.27791309 C321.77732979 74.72392872 321.13537666 75.16994434 320.47397041 75.62947559 C319.83717354 76.09095997 319.20037666 76.55244434 318.54428291 77.02791309 C314.0539157 79.53676595 309.81326078 80.50418471 304.70073414 80.5117445 C303.59358514 80.51819339 302.48643613 80.52464228 301.34573716 80.5312866 C300.13981362 80.52818939 298.93389009 80.52509219 297.69142342 80.52190113 C296.40224441 80.52643224 295.11306541 80.53096336 293.78482038 80.53563178 C290.21282884 80.54785175 286.64093102 80.5476025 283.06892335 80.54524302 C279.21400028 80.5448346 275.35910716 80.5558764 271.50419807 80.56535816 C263.95408774 80.58196354 256.40400863 80.5874675 248.85388156 80.58858292 C242.71612969 80.5895336 236.57838811 80.59364488 230.4406395 80.59998417 C213.03501515 80.61759519 195.62941546 80.62682324 178.22378214 80.62532322 C177.28564847 80.62524331 176.3475148 80.6251634 175.38095284 80.62508106 C173.97203214 80.62495842 173.97203214 80.62495842 172.5346484 80.6248333 C157.31239761 80.6240204 142.09024577 80.64315936 126.8680236 80.6713578 C111.23406157 80.70009021 95.60014779 80.7138979 79.96615869 80.71217024 C71.19041694 80.71150647 62.41477893 80.7169931 53.63906097 80.73852634 C46.16724446 80.75674283 38.69557871 80.76108165 31.2237496 80.7475075 C27.41296093 80.74098021 23.60246147 80.74085172 19.79170036 80.758214 C15.65673781 80.7768593 11.52244401 80.76438412 7.38746834 80.74895191 C5.58862128 80.7643826 5.58862128 80.7643826 3.75343388 80.78012502 C-4.26142499 80.71400912 -10.73207525 79.54535044 -16.99087334 74.28963184 C-17.5180999 73.63865528 -18.04532646 72.98767872 -18.58852959 72.31697559 C-19.13380302 71.66857716 -19.67907646 71.02017872 -20.24087334 70.35213184 C-24.01851061 64.73276559 -23.97165388 59.55767134 -23.98696709 52.98494434 C-23.99362389 51.9899744 -24.00028069 50.99500446 -24.00713921 49.96988392 C-24.01724856 47.86774508 -24.02195676 45.76557426 -24.02163506 43.66341114 C-24.02600036 40.46340388 -24.0623172 37.26478521 -24.10024834 34.06502247 C-24.10611858 32.01750112 -24.11008658 29.96997325 -24.11196709 27.92244434 C-24.13352364 26.49861691 -24.13352364 26.49861691 -24.15551567 25.04602528 C-24.10631748 17.81642759 -22.47183897 12.53209621 -17.72134209 7.01228809 C-17.07938896 6.47345997 -16.43743584 5.93463184 -15.77602959 5.37947559 C-15.13923271 4.82517872 -14.50243584 4.27088184 -13.84634209 3.69978809 C-9.500191 0.83844307 -5.13694081 0.00467062 0 0 Z " fill="#F6FBFE" transform="translate(211.651029586792,329.7455244064331)"/>
<path d="M0 0 C0.88067491 -0.00382555 1.76134982 -0.00765109 2.66871184 -0.01159257 C5.61958993 -0.02191092 8.57027302 -0.01793259 11.52116394 -0.01396179 C13.6369749 -0.01830895 15.75278427 -0.02349212 17.86859131 -0.02944946 C23.61660066 -0.04285146 29.3645443 -0.0434167 35.11256623 -0.04088616 C39.91123729 -0.03981709 44.70989502 -0.0446983 49.50856322 -0.04949158 C60.83080744 -0.06059132 72.15301848 -0.06102181 83.4752655 -0.05497742 C95.15353513 -0.04893876 106.83168423 -0.06124488 118.50993329 -0.08254749 C128.53726018 -0.10016571 138.56454872 -0.10616442 148.59189051 -0.10290974 C154.5803042 -0.10109681 160.56863196 -0.10373397 166.55703163 -0.11762428 C172.19017088 -0.13020121 177.82312241 -0.12825964 183.45625877 -0.11521339 C185.52181436 -0.11284764 187.58738314 -0.11558225 189.65292358 -0.12383652 C192.47675949 -0.13430579 195.29996579 -0.12620164 198.1237793 -0.11352539 C198.9375108 -0.12089968 199.7512423 -0.12827396 200.58963233 -0.13587171 C208.58303032 -0.06059678 214.85321933 2.25983104 220.77970886 7.71382141 C225.01595966 12.16357026 226.35899353 16.64267068 226.41349792 22.64277649 C226.42310547 23.50079361 226.43271301 24.35881073 226.44261169 25.24282837 C226.44898651 26.62259102 226.44898651 26.62259102 226.45549011 28.03022766 C226.46119019 28.98459213 226.46689026 29.9389566 226.47276306 30.92224121 C226.4822008 32.94040319 226.48874217 34.9585805 226.49259949 36.97676086 C226.50229668 40.05149977 226.53332841 43.12556764 226.56486511 46.20014954 C226.57139655 48.16433829 226.57664647 50.12853181 226.58049011 52.09272766 C226.59283691 53.00649673 226.60518372 53.92026581 226.61790466 54.86172485 C226.58959806 63.04380631 224.39192508 68.63695263 218.86564636 74.75288391 C213.01080331 80.22496483 206.18885664 80.40956114 198.62498474 80.40786743 C197.74516426 80.41154412 196.86534378 80.41522081 195.95886207 80.41900891 C193.00493271 80.43003926 190.05103854 80.43388848 187.09709167 80.43769836 C184.98142892 80.44396344 182.86576726 80.45061028 180.75010681 80.45761108 C173.79774237 80.4786464 166.84537771 80.48901212 159.89299011 80.49897766 C157.4996769 80.50302524 155.10636381 80.50714216 152.71305084 80.51132774 C141.47049428 80.53037725 130.22794429 80.5446095 118.98537469 80.55293971 C106.00622149 80.56271542 93.02723868 80.5890448 80.04814553 80.62944061 C70.01659889 80.65959171 59.98510113 80.67440759 49.95351005 80.67772073 C43.96168442 80.68007211 37.97004089 80.68904449 31.97826385 80.7141819 C26.34100865 80.73745022 20.7040556 80.74170068 15.06676483 80.73142052 C12.99958797 80.73092477 10.93239629 80.73725664 8.86526489 80.75097656 C6.03904168 80.76868288 3.21390435 80.76159538 0.38768005 80.7484436 C-0.42673357 80.75941285 -1.24114719 80.7703821 -2.08024001 80.78168374 C-9.15305932 80.70243961 -14.23189628 78.4410032 -19.56013489 73.82319641 C-23.92364216 68.71165932 -25.83884241 64.48210288 -25.92463684 57.8026886 C-25.93747208 56.92787842 -25.95030731 56.05306824 -25.96353149 55.15174866 C-25.97091843 54.21317017 -25.97830536 53.27459167 -25.98591614 52.30757141 C-25.99398788 51.33338257 -26.00205963 50.35919373 -26.01037598 49.35548401 C-26.02419496 47.29444649 -26.03492687 45.2333863 -26.0428009 43.1723175 C-26.05431801 41.07166303 -26.07476544 38.97103776 -26.10432434 36.87055969 C-26.14712606 33.82852879 -26.16318786 30.78736656 -26.17341614 27.74507141 C-26.19967827 26.34934906 -26.19967827 26.34934906 -26.22647095 24.9254303 C-26.20280861 17.74788201 -24.5513915 12.46021191 -19.78279114 7.01850891 C-19.13181458 6.47968079 -18.48083801 5.94085266 -17.81013489 5.38569641 C-17.16173645 4.83139954 -16.51333801 4.27710266 -15.84529114 3.70600891 C-10.76182154 0.2034321 -6.03085025 -0.02778142 0 0 Z " fill="#E2F0FE" transform="translate(213.7476348876953,461.7393035888672)"/>
<path d="M0 0 C6.27 0 12.54 0 19 0 C19.33 11.55 19.66 23.1 20 35 C22.31 33.02 24.62 31.04 27 29 C35.4153732 24.7923134 45.83948258 24.87116751 54.81640625 27.19140625 C63.54002875 30.42179956 71.04102513 37.38136852 75.3515625 45.56640625 C80.01052833 57.07974987 80.20771735 69.48221002 75.84375 81.0703125 C71.70095851 90.2535003 66.124082 96.51768297 56.75 100.4375 C48.07485457 103.59854155 38.74139726 104.37266509 30 101 C25.83588475 98.81309055 22.24197886 96.42153461 19 93 C19 95.64 19 98.28 19 101 C12.73 101 6.46 101 0 101 C0 67.67 0 34.34 0 0 Z " fill="#FCFDFE" transform="translate(302,653)"/>
<path d="M0 0 C54.02009346 0 54.02009346 0 64.08984375 9.77734375 C72.43367801 19.48622247 72.74988114 29.74576949 72 42 C70.78782784 50.67169312 63.51047576 57.02372708 57.125 62.4375 C48.6321824 66.6839088 40.17326722 67.419789 30.8125 67.1875 C27.244375 67.125625 23.67625 67.06375 20 67 C20 78.22 20 89.44 20 101 C13.4 101 6.8 101 0 101 C0 67.67 0 34.34 0 0 Z " fill="#FDFEFE" transform="translate(823,653)"/>
<path d="M0 0 C5.24887438 4.1765237 8.78401294 9.00940037 10.81640625 15.4453125 C10.81640625 18.0853125 10.81640625 20.7253125 10.81640625 23.4453125 C4.21640625 23.4453125 -2.38359375 23.4453125 -9.18359375 23.4453125 C-9.84359375 21.1353125 -10.50359375 18.8253125 -11.18359375 16.4453125 C-15.61433408 12.01457217 -19.4084646 11.2986386 -25.49609375 11.1953125 C-30.53296482 11.24918278 -33.84952928 11.86331665 -38.18359375 14.4453125 C-40.63920097 17.54151291 -40.50446056 20.59491081 -40.18359375 24.4453125 C-38.62286696 28.45426613 -36.49834993 29.68345367 -32.60009766 31.48535156 C-28.12308564 33.26385341 -23.50407631 34.51785392 -18.87109375 35.8203125 C-7.06285559 39.30258728 3.71271912 42.69658474 10.81640625 53.4453125 C14.30408743 60.21000956 13.63043512 69.62774164 12.38671875 76.98828125 C10.0209005 84.30479323 4.57694931 89.80641606 -2.12109375 93.3203125 C-15.30966035 99.18409136 -31.28901226 99.45251489 -44.90234375 94.4453125 C-53.71606064 90.41011681 -58.96586693 85.16254414 -62.5546875 76.16796875 C-63.18359375 73.4453125 -63.18359375 73.4453125 -63.18359375 65.4453125 C-56.58359375 65.4453125 -49.98359375 65.4453125 -43.18359375 65.4453125 C-42.19359375 68.9103125 -42.19359375 68.9103125 -41.18359375 72.4453125 C-36.834328 77.21889686 -32.58051681 78.88558173 -26.18359375 79.4453125 C-19.41902118 79.52047442 -14.37069176 78.94989761 -9.18359375 74.4453125 C-7.56646736 71.21105972 -7.61762779 67.94217362 -8.18359375 64.4453125 C-12.90857667 57.51533755 -21.68056828 55.84138118 -29.34912109 53.69213867 C-42.93036795 49.86988058 -53.53236625 45.74249323 -61.12109375 33.2578125 C-63.16630729 25.9191051 -63.51216798 17.34272194 -60.26953125 10.27734375 C-55.12620893 1.60029998 -47.61293466 -3.46637191 -37.890625 -6.19921875 C-24.75228923 -7.92445476 -11.25923933 -7.5971433 0 0 Z " fill="#FCFDFE" transform="translate(193.18359375,658.5546875)"/>
<path d="M0 0 C6.6 0 13.2 0 20 0 C20.00410889 2.00755371 20.00821777 4.01510742 20.01245117 6.08349609 C20.02972186 12.74926037 20.0743447 19.41464518 20.13209057 26.0801754 C20.16624348 30.11781478 20.19145215 34.15508049 20.19555664 38.19287109 C20.19986498 42.09656596 20.22853445 45.99941961 20.27343178 49.9028511 C20.28632651 51.38497627 20.29074318 52.86720253 20.28615379 54.34937668 C20.26540429 63.09294565 20.67459693 70.69382187 26 78 C30.40015501 82.3224732 34.36634926 83.32822862 40.5 83.5625 C46.08808302 83.32291822 50.5665273 82.53583131 55 79 C59.95006947 73.13807563 61.23214076 66.67577713 61.31884766 59.14672852 C61.33391609 58.17959175 61.33391609 58.17959175 61.34928894 57.19291687 C61.37987148 55.08825472 61.39708546 52.98371823 61.4140625 50.87890625 C61.43279431 49.40916379 61.4523692 47.93943185 61.4727478 46.4697113 C61.52386263 42.6212894 61.56359812 38.77283272 61.60089111 34.92425537 C61.64106101 30.98913107 61.6920938 27.05414889 61.7421875 23.11914062 C61.83870202 15.41285098 61.92217888 7.70650524 62 0 C68.6 0 75.2 0 82 0 C82.09073061 9.19764099 82.16396213 18.39497988 82.20724869 27.59296894 C82.22803457 31.86496555 82.25618527 36.13663746 82.30175781 40.40844727 C82.34553989 44.53874546 82.3692046 48.66873331 82.37950897 52.79924583 C82.38684278 54.36716782 82.40116247 55.93507476 82.42292023 57.50286293 C82.60346276 71.06383948 80.67786756 81.84617175 71 92 C61.98207435 100.55938705 50.14710715 103.37580878 37.99609375 103.2109375 C26.83723037 102.42530696 16.90316275 98.48114883 9.1875 90.25 C2.90274159 82.52405586 -0.13079292 74.8135488 -0.11352539 64.93652344 C-0.11367142 64.23368225 -0.11381744 63.53084106 -0.1139679 62.80670166 C-0.11327299 60.49089437 -0.10550038 58.17516819 -0.09765625 55.859375 C-0.09579057 54.25083459 -0.09436737 52.64229362 -0.09336853 51.03375244 C-0.08955516 46.80544458 -0.07973495 42.57717121 -0.06866455 38.34887695 C-0.05842506 34.03206855 -0.05386547 29.71525456 -0.04882812 25.3984375 C-0.03811162 16.9322741 -0.02052437 8.46614532 0 0 Z " fill="#FDFDFE" transform="translate(728,653)"/>
<path d="M0 0 C7.21112251 4.03973879 12.66795195 10.2526672 15.875 17.875 C17 23 17 23 17 41 C-0.49 41 -17.98 41 -36 41 C-34.03914938 49.1700038 -34.03914938 49.1700038 -29 55 C-23.50380509 57.73875019 -18.00950319 57.52929229 -12 57 C-8.45566557 55.75637388 -6.68628595 55.05165656 -4.6394043 51.91503906 C-3 50 -3 50 -0.82348633 49.54589844 C-0.00130615 49.5668457 0.82087402 49.58779297 1.66796875 49.609375 C2.56064453 49.62226562 3.45332031 49.63515625 4.37304688 49.6484375 C5.30181641 49.68195312 6.23058594 49.71546875 7.1875 49.75 C8.59805664 49.77707031 8.59805664 49.77707031 10.03710938 49.8046875 C12.35909889 49.8518345 14.6790369 49.91761769 17 50 C13.15310357 59.02541085 8.39889499 66.23924062 -0.75 70.4375 C-10.92210127 74.5173176 -24.69023318 74.86559165 -35.125 71.5625 C-42.91183139 68.09214837 -49.73850422 62.02659818 -53.28125 54.21484375 C-55.32903281 47.90455651 -56.36541237 42.23451141 -56.3125 35.625 C-56.30686035 34.88185547 -56.3012207 34.13871094 -56.29541016 33.37304688 C-56.05776467 22.57782432 -52.70588434 14.27926978 -45.40625 6.24609375 C-33.88784133 -4.59316346 -14.1986702 -6.13808744 0 0 Z " fill="#FDFDFE" transform="translate(629,682)"/>
<path d="M0 0 C6.6 0 13.2 0 20 0 C20.01401855 2.17940186 20.01401855 2.17940186 20.02832031 4.40283203 C20.06825412 9.80402045 20.13402342 15.20464133 20.20751953 20.60546875 C20.23570929 22.94100645 20.2569337 25.2766392 20.27099609 27.61230469 C20.29245246 30.97380159 20.33911906 34.33415807 20.390625 37.6953125 C20.39185364 38.73615997 20.39308228 39.77700745 20.39434814 40.84939575 C20.51550199 46.87410783 21.00294766 50.40012881 25 55 C28.86058958 58.40640257 32.61658923 58.4509822 37.5625 58.2890625 C41.83510608 57.78237524 44.73310622 56.26689378 47.75 53.25 C51.21771226 47.00811793 51.32713451 40.6623569 51.4140625 33.69140625 C51.43342865 32.72468491 51.4527948 31.75796356 51.4727478 30.76194763 C51.53219191 27.69555287 51.57878769 24.62911984 51.625 21.5625 C51.66321217 19.47459364 51.70226576 17.3867025 51.7421875 15.29882812 C51.83943712 10.19930109 51.91928486 5.09992239 52 0 C58.27 0 64.54 0 71 0 C71 24.42 71 48.84 71 74 C64.73 74 58.46 74 52 74 C52.33 71.36 52.66 68.72 53 66 C52.43152344 66.39832031 51.86304688 66.79664063 51.27734375 67.20703125 C50.50519531 67.73683594 49.73304688 68.26664063 48.9375 68.8125 C48.18339844 69.33457031 47.42929687 69.85664062 46.65234375 70.39453125 C40.54409267 74.09186733 35.57909503 75.51231874 28.5625 75.375 C27.8111377 75.36412354 27.05977539 75.35324707 26.28564453 75.34204102 C18.91555483 75.12942684 13.85810054 73.95130343 8.25 68.8125 C2.58094426 62.70338058 -0.13326644 55.97190437 -0.11352539 47.68066406 C-0.11344986 46.61986633 -0.11337433 45.5590686 -0.11329651 44.46612549 C-0.10813522 43.32746033 -0.10297394 42.18879517 -0.09765625 41.015625 C-0.09553383 39.25952911 -0.09553383 39.25952911 -0.09336853 37.46795654 C-0.0877709 33.72861171 -0.0752188 29.98932674 -0.0625 26.25 C-0.0574847 23.71484461 -0.05292184 21.17968829 -0.04882812 18.64453125 C-0.03780223 12.42966443 -0.02053919 6.21484237 0 0 Z " fill="#FEFEFE" transform="translate(217,680)"/>
<path d="M0 0 C3.97616433 2.97228126 6.1198014 6.43692039 8.140625 10.8671875 C8.20362403 12.86619503 8.21371258 14.86852339 8.140625 16.8671875 C5.03695003 17.01234427 1.93414473 17.10119603 -1.171875 17.1796875 C-2.05294922 17.22158203 -2.93402344 17.26347656 -3.84179688 17.30664062 C-6.2762138 17.35292232 -8.47154105 17.35014299 -10.859375 16.8671875 C-12.69921875 14.4375 -12.69921875 14.4375 -13.859375 11.8671875 C-18.03598472 9.80316525 -22.46246525 9.47974767 -26.921875 10.7421875 C-27.89125 11.1134375 -28.860625 11.4846875 -29.859375 11.8671875 C-30.62654351 14.71796841 -30.62654351 14.71796841 -30.859375 17.8671875 C-28.58447773 21.09195416 -25.66838722 21.7553295 -21.984375 22.8046875 C-20.82808594 23.14628906 -19.67179688 23.48789062 -18.48046875 23.83984375 C-16.1227658 24.50874977 -13.76088974 25.16317169 -11.39453125 25.80078125 C-3.00589993 28.15977792 4.07742588 30.78553781 8.640625 38.6171875 C11.20110985 44.58027221 10.96298688 50.89677188 9.140625 57.0546875 C6.51630068 63.1411486 1.12616361 67.3064988 -4.921875 69.7421875 C-16.55248866 73.41619918 -29.45025222 73.11682076 -40.41015625 67.578125 C-45.61209193 64.39396143 -48.52199192 61.51586328 -50.859375 55.8671875 C-51.32106738 53.2075184 -51.57013092 50.55382001 -51.859375 47.8671875 C-48.75570003 47.72203073 -45.65289473 47.63317897 -42.546875 47.5546875 C-41.66580078 47.51279297 -40.78472656 47.47089844 -39.87695312 47.42773438 C-37.44323757 47.38146602 -35.2469902 47.38711644 -32.859375 47.8671875 C-31.00390625 50.26171875 -31.00390625 50.26171875 -29.859375 52.8671875 C-26.67927176 55.12889885 -23.69771399 55.19420826 -19.859375 55.2421875 C-18.3125 55.28472656 -18.3125 55.28472656 -16.734375 55.328125 C-13.17033716 54.75671676 -12.01368506 53.71395436 -9.859375 50.8671875 C-9.36556393 47.74560969 -9.36556393 47.74560969 -10.859375 44.8671875 C-17.27732471 42.03954822 -23.97409555 40.4917215 -30.79296875 38.9375 C-38.5339624 37.03048049 -45.46380288 33.79866661 -49.859375 26.8671875 C-52.46443712 21.53301268 -52.09286694 16.53944972 -50.859375 10.8671875 C-48.55495129 4.68225755 -44.31330521 0.7149194 -38.625 -2.328125 C-26.4148676 -7.61918237 -11.38676663 -6.93731581 0 0 Z " fill="#FBFCFD" transform="translate(706.859375,684.1328125)"/>
<path d="M0 0 C6.6 0 13.2 0 20 0 C20 6.27 20 12.54 20 19 C25.94 19 31.88 19 38 19 C38 24.61 38 30.22 38 36 C32.06 36 26.12 36 20 36 C20.07412174 40.75145924 20.15705269 45.50107697 20.26245117 50.25170898 C20.2956311 51.86651963 20.32368458 53.48144431 20.34643555 55.09643555 C20.38011025 57.42285592 20.43242963 59.74823783 20.48828125 62.07421875 C20.49467117 62.79212082 20.5010611 63.51002289 20.50764465 64.24967957 C20.63543856 68.64197334 21.30282943 71.50008533 24 75 C26.70183055 76.35091528 29.11808206 76.33858058 32.125 76.5625 C34.06375 76.706875 36.0025 76.85125 38 77 C38 82.28 38 87.56 38 93 C33.61729758 94.09567561 29.73817476 94.25749786 25.25 94.3125 C24.08984375 94.35600586 24.08984375 94.35600586 22.90625 94.40039062 C16.17048534 94.47385115 11.13772229 92.65313197 5.9765625 88.2890625 C5.53054688 87.73992187 5.08453125 87.19078125 4.625 86.625 C4.16351563 86.08101562 3.70203125 85.53703125 3.2265625 84.9765625 C-0.26064604 79.3570481 -0.27144659 73.83143984 -0.1953125 67.4453125 C-0.1924826 66.54376434 -0.18965271 65.64221619 -0.18673706 64.71334839 C-0.17559439 61.85042724 -0.1505008 58.98782566 -0.125 56.125 C-0.11496255 54.17708787 -0.10583804 52.22917081 -0.09765625 50.28125 C-0.07567443 45.5207113 -0.0411855 40.76040973 0 36 C-4.62 36 -9.24 36 -14 36 C-14 30.39 -14 24.78 -14 19 C-9.38 19 -4.76 19 0 19 C0 12.73 0 6.46 0 0 Z " fill="#FBFCFD" transform="translate(400,661)"/>
<path d="M0 0 C6.6 0 13.2 0 20 0 C20 6.27 20 12.54 20 19 C25.94 19 31.88 19 38 19 C38 24.61 38 30.22 38 36 C32.06 36 26.12 36 20 36 C20.11997848 40.91145948 20.2426667 45.82269492 20.37231445 50.73388672 C20.41558489 52.40409334 20.45726549 54.07434194 20.49731445 55.74462891 C20.55520851 58.14758955 20.6188474 60.55034041 20.68359375 62.953125 C20.70030624 63.69806213 20.71701874 64.44299927 20.73423767 65.21051025 C20.83309323 68.68205988 21.15166747 71.60666987 22 75 C27.28 75.66 32.56 76.32 38 77 C38 82.28 38 87.56 38 93 C33.91300724 94.36233092 30.09426461 94.26350956 25.8125 94.3125 C24.5740332 94.35600586 24.5740332 94.35600586 23.31054688 94.40039062 C16.37552199 94.47143501 11.33689211 92.76356509 5.9765625 88.32421875 C5.30753906 87.51404297 5.30753906 87.51404297 4.625 86.6875 C3.93277344 85.88892578 3.93277344 85.88892578 3.2265625 85.07421875 C-0.2322742 79.22503949 -0.27647974 73.16213566 -0.1953125 66.56640625 C-0.1924826 65.68846909 -0.18965271 64.81053192 -0.18673706 63.9059906 C-0.17561598 61.12468355 -0.15052672 58.34370836 -0.125 55.5625 C-0.11495975 53.66732239 -0.10583573 51.77213968 -0.09765625 49.87695312 C-0.07570315 45.25117583 -0.0412296 40.62564402 0 36 C-4.29 36 -8.58 36 -13 36 C-13 30.39 -13 24.78 -13 19 C-8.71 19 -4.42 19 0 19 C0 12.73 0 6.46 0 0 Z " fill="#FCFCFD" transform="translate(495,661)"/>
<path d="M0 0 C6.27 0 12.54 0 19 0 C19 33.33 19 66.66 19 101 C12.73 101 6.46 101 0 101 C0 67.67 0 34.34 0 0 Z " fill="#FEFEFE" transform="translate(543,653)"/>
<path d="M0 0 C6.27 0 12.54 0 19 0 C19 24.42 19 48.84 19 74 C12.73 74 6.46 74 0 74 C0 49.58 0 25.16 0 0 Z " fill="#FEFEFE" transform="translate(452,680)"/>
<path d="M0 0 C5.05420899 2.71389048 8.61730192 7.00260235 10.734375 12.27734375 C11.56902562 19.90341465 12.03010523 27.42579019 7.16796875 33.76171875 C2.29660718 38.91182308 -1.43642549 40.43847014 -8.453125 40.65234375 C-13.66896575 40.58272185 -17.40284621 40.1894455 -21.609375 37.0078125 C-26.53126594 31.86536513 -28.5516601 26.20665771 -28.828125 19.15234375 C-28.5125927 12.33334007 -26.7218954 7.61080063 -21.765625 2.90234375 C-15.1300027 -1.41081075 -7.72873853 -2.46520108 0 0 Z " fill="#094BA2" transform="translate(349.265625,697.72265625)"/>
<path d="M0 0 C3.67416264 0.01394317 7.34828307 0.00421507 11.022456 -0.00230996 C17.44089677 -0.01054436 23.85918813 -0.00413462 30.27761139 0.01224287 C39.82132517 0.03652674 49.3649461 0.03757285 58.90868515 0.03407492 C74.96791619 0.02883638 91.02708108 0.04211981 107.08629288 0.06614454 C122.97534321 0.08985352 138.86436595 0.10521656 154.75343384 0.1095558 C155.74322825 0.10983076 156.73302267 0.11010572 157.75281085 0.11038901 C162.77995481 0.11174243 167.80709879 0.11294793 172.8342428 0.11409651 C208.39486805 0.12248691 243.95545737 0.14940486 279.51606239 0.18730696 C314.05186775 0.22407416 348.58766325 0.25239416 383.12348427 0.26933821 C384.1889722 0.26986431 385.25446012 0.27039042 386.35223556 0.27093247 C397.05279442 0.27620677 407.75335335 0.28131 418.45391235 0.2862879 C440.25007613 0.29643138 462.04623927 0.30771639 483.84240211 0.31969221 C484.84444361 0.32024137 485.8464851 0.32079053 486.87889148 0.32135633 C553.73623488 0.3581277 620.59355835 0.42150481 687.45087685 0.48906477 C687.45087685 0.81906477 687.45087685 1.14906477 687.45087685 1.48906477 C686.5213493 1.49013299 686.5213493 1.49013299 685.57304342 1.49122278 C618.14254206 1.56874947 550.71204218 1.64750531 483.28155006 1.73273237 C482.27513552 1.73400405 481.26872097 1.73527574 480.23180901 1.73658595 C458.36247278 1.76422692 436.49313684 1.79208989 414.62380119 1.82018171 C403.89990003 1.83395554 393.17599881 1.84768027 382.45209755 1.86137922 C381.38491063 1.86274331 380.3177237 1.86410739 379.21819778 1.86551281 C344.59489856 1.90974546 309.97159642 1.95073373 275.3482913 1.9900489 C239.78392807 2.03044972 204.21957028 2.07410493 168.65521616 2.12188588 C163.63804647 2.12862496 158.62087674 2.13532662 153.60370697 2.14200552 C152.61620495 2.14332125 151.62870293 2.14463698 150.61127661 2.14599257 C134.68157542 2.16712061 118.75187216 2.18479307 102.82216548 2.20119008 C86.82782041 2.21772676 70.83348313 2.23786392 54.83914729 2.26173319 C45.32345306 2.27582303 35.80776493 2.28709552 26.29206304 2.29442915 C19.94788512 2.29958966 13.60371884 2.30832521 7.25954967 2.32005251 C3.63686463 2.32664424 0.01419642 2.33160139 -3.60849498 2.33222676 C-7.49743719 2.33293402 -11.38634068 2.34123936 -15.27527271 2.35039957 C-16.98958616 2.34886557 -16.98958616 2.34886557 -18.7385322 2.34730058 C-20.27709296 2.35282164 -20.27709296 2.35282164 -21.84673576 2.35845425 C-23.18294378 2.36009204 -23.18294378 2.36009204 -24.5461459 2.36176293 C-26.54782139 2.26748556 -26.54782139 2.26748556 -27.54912315 3.48906477 C-30.60823419 3.93793557 -33.66646353 4.30649808 -36.73857628 4.65117415 C-40.90578266 5.15716268 -44.59619371 6.10640005 -48.54912315 7.48906477 C-51.42412315 7.61406477 -51.42412315 7.61406477 -53.54912315 7.48906477 C-53.87912315 8.47906477 -54.20912315 9.46906477 -54.54912315 10.48906477 C-55.41537315 10.61281477 -56.28162315 10.73656477 -57.17412315 10.86406477 C-61.9853673 11.75503591 -65.64060627 12.88338685 -69.73662315 15.61406477 C-72.54912315 17.48906477 -72.54912315 17.48906477 -75.54912315 17.48906477 C-75.54912315 18.14906477 -75.54912315 18.80906477 -75.54912315 19.48906477 C-76.62162315 19.77781477 -77.69412315 20.06656477 -78.79912315 20.36406477 C-81.64312679 21.21726586 -83.98421298 22.05271508 -86.54912315 23.48906477 C-86.54912315 24.14906477 -86.54912315 24.80906477 -86.54912315 25.48906477 C-88.1936544 26.74297102 -88.1936544 26.74297102 -90.36162315 28.05156477 C-91.42316612 28.70318587 -91.42316612 28.70318587 -92.5061544 29.36797102 C-94.54912315 30.48906477 -94.54912315 30.48906477 -97.54912315 31.48906477 C-97.87912315 32.14906477 -98.20912315 32.80906477 -98.54912315 33.48906477 C-99.04412315 34.47906477 -99.04412315 34.47906477 -99.54912315 35.48906477 C-100.53912315 35.81906477 -101.52912315 36.14906477 -102.54912315 36.48906477 C-103.91986101 38.12510673 -105.24967571 39.79584538 -106.54912315 41.48906477 C-107.88245649 42.82239811 -109.21578982 44.15573144 -110.54912315 45.48906477 C-111.76836935 46.81242637 -112.97574241 48.1467791 -114.17412315 49.48906477 C-114.76451378 50.14906477 -115.3549044 50.80906477 -115.96318565 51.48906477 C-117.50032481 53.42752598 -118.45163052 55.28533453 -119.54912315 57.48906477 C-121.04119795 59.29380245 -122.61529401 60.99301386 -124.2092794 62.70781477 C-125.66354179 64.64117817 -126.12953633 66.12694634 -126.54912315 68.48906477 C-127.20912315 68.48906477 -127.86912315 68.48906477 -128.54912315 68.48906477 C-128.81724815 69.39656477 -129.08537315 70.30406477 -129.36162315 71.23906477 C-130.54912315 74.48906477 -130.54912315 74.48906477 -132.02568565 76.32890852 C-133.87101258 78.94548747 -134.41157726 81.18536047 -135.11162315 84.30156477 C-135.35654503 85.35472883 -135.6014669 86.4078929 -135.85381065 87.49297102 C-136.08326378 88.48168196 -136.3127169 89.4703929 -136.54912315 90.48906477 C-137.18324776 92.83376009 -137.8608628 95.1595682 -138.54912315 97.48906477 C-139.20912315 97.48906477 -139.86912315 97.48906477 -140.54912315 97.48906477 C-141.96061189 103.64508302 -141.96061189 103.64508302 -143.04912315 109.86406477 C-143.54912315 112.48906477 -143.54912315 112.48906477 -145.54912315 115.48906477 C-144.2270203 83.69249115 -126.14464981 54.84125724 -103.54912315 33.48906477 C-90.65165086 22.16313322 -75.306124 12.99930964 -59.04912315 7.48906477 C-58.30533409 7.23487776 -57.56154503 6.98069075 -56.7952169 6.7188011 C-54.06615227 5.86767691 -51.32499567 5.17545101 -48.54912315 4.48906477 C-47.89938028 4.32796604 -47.2496374 4.1668673 -46.58020534 4.00088679 C-31.05725953 0.28728422 -15.89637317 -0.08004447 0 0 Z " fill="#1677ED" transform="translate(182.5491231540218,36.510935228317976)"/>
<path d="M0 0 C2.990625 -0.061875 5.98125 -0.12375 9.0625 -0.1875 C9.99070557 -0.21481201 10.91891113 -0.24212402 11.87524414 -0.27026367 C18.4592465 -0.33568863 23.25738316 0.61825379 28.375 5.0625 C32.42593047 9.89245556 31.38022914 15.99676688 31 22 C29.9976295 25.57094489 29.27128653 27.15247565 26.1953125 29.203125 C17.50471462 33.85997367 10.3341218 33 0 33 C0 22.11 0 11.22 0 0 Z " fill="#013C88" transform="translate(843,670)"/>
<path d="M0 0 C3.99722111 2.36872362 6.17074332 4.54292284 7.5625 8.9375 C8.14933041 12.07911734 7.95369196 13.13635146 6.875 16.3125 C3.9270182 20.53794058 2.25268449 21.69196283 -2.8125 22.9375 C-7.6346911 23.38817206 -10.15661596 21.84410419 -14 19 C-16.42321257 16.05000209 -16.41836177 12.72573345 -16.3203125 8.96484375 C-15.68712904 5.08080377 -13.27490716 2.95618037 -10.25 0.6875 C-6.77127197 -0.37544468 -3.55753143 -0.64993363 0 0 Z " fill="#FAFBFD" transform="translate(466,648)"/>
<path d="M0 0 C3.73805228 2.11151456 5.77797228 4.4763809 7.6875 8.375 C7.6875 10.025 7.6875 11.675 7.6875 13.375 C-3.5325 13.375 -14.7525 13.375 -26.3125 13.375 C-25.36916252 7.71497515 -24.47571254 5.03129288 -20.3125 1.375 C-13.69001118 -2.44566663 -7.01061729 -3.11438203 0 0 Z " fill="#033E8F" transform="translate(619.3125,695.625)"/>
</svg>
