<?xml version="1.0" encoding="UTF-8"?>
<svg version="1.1" xmlns="http://www.w3.org/2000/svg" width="1024" height="1024">
<path d="M0 0 C1.8582626 -0.0215249 3.71642533 -0.05556226 5.57421875 -0.10253906 C24.13286491 -0.56708383 24.13286491 -0.56708383 30.53515625 4.42431641 C35.906647 10.89963653 36.76261963 15.74113362 36.69720459 23.96556091 C36.70845647 25.54261648 36.70845647 25.54261648 36.71993566 27.15153176 C36.74020465 30.66779168 36.73211131 34.1834063 36.72412109 37.69970703 C36.73285648 40.22288145 36.74334214 42.74605032 36.75544739 45.26921082 C36.77755752 50.69795723 36.78750911 56.12650849 36.78633881 61.55529594 C36.78466788 69.40428601 36.80502139 77.25309839 36.83069411 85.10204101 C36.87175395 97.83738717 36.89508264 110.57270132 36.90722656 123.30810547 C36.91905901 135.67695186 36.93926335 148.04573801 36.97070312 160.41455078 C36.97360728 161.55879849 36.97360728 161.55879849 36.9765701 162.72616231 C36.98633484 166.55319047 36.99626392 170.38021818 37.0062747 174.20724571 C37.08906861 205.93981498 37.14277612 237.67237071 37.17822266 269.4050293 C37.78560902 268.7893468 37.78560902 268.7893468 38.40526581 268.16122627 C48.2714303 258.16239812 58.15428965 248.18033147 68.05583954 238.21653938 C72.84382349 233.39765332 77.6260551 228.57331113 82.39501953 223.7355957 C86.99783137 219.0664602 91.61633275 214.4132063 96.24464417 209.76934433 C98.0073357 207.99557152 99.76473997 206.21652816 101.51670837 204.43216324 C103.97274647 201.93253392 106.44696541 199.45235443 108.92626953 196.97583008 C109.64556641 196.23496155 110.36486328 195.49409302 111.10595703 194.73077393 C115.62339635 190.26779764 118.82543719 188.22344544 125.17822266 187.4050293 C132.315245 189.12320134 137.04814238 194.41194143 142.17822266 199.4050293 C142.92378418 200.12480957 143.6693457 200.84458984 144.4375 201.58618164 C147.00839776 204.07681723 149.56412446 206.58213227 152.11572266 209.0925293 C152.9571582 209.91237305 153.79859375 210.7322168 154.66552734 211.5769043 C163.62676661 220.49103636 163.62676661 220.49103636 164.49853516 226.6784668 C163.39830994 238.51689014 150.13058911 247.60128713 142.13647461 255.59204102 C140.71318032 257.01833111 139.29009007 258.44482485 137.8671875 259.87150574 C134.02070993 263.72677866 130.1710306 267.57883869 126.32047296 271.43003607 C123.91423638 273.836985 121.50871387 276.24464519 119.10344505 278.65256119 C110.71121805 287.05402256 102.31642902 295.45291397 93.91918945 303.84936523 C86.0909473 311.67700516 78.26831596 319.51022161 70.44825965 327.3460387 C63.72895619 334.07840177 57.00581923 340.80692011 50.27966279 347.53243649 C46.26431006 351.54753403 42.25053211 355.56417576 38.24059486 359.58468246 C34.47507061 363.35986255 30.70480928 367.13024553 26.93080902 370.89695168 C25.54554506 372.28116708 24.16199431 373.66709939 22.78027153 375.05484962 C20.89705822 376.9457466 19.00781551 378.83040489 17.11689758 380.71359253 C16.56913628 381.26649739 16.02137498 381.81940225 15.45701486 382.38906181 C10.77005686 387.03365164 7.99707881 388.57099117 1.37353516 388.8659668 C-4.52793337 387.62686842 -9.04151565 382.47384136 -13.14176941 378.34573364 C-13.74914501 377.74218359 -14.35652061 377.13863353 -14.98230153 376.51679409 C-17.00672185 374.5026539 -19.02396395 372.48147899 -21.04125977 370.46020508 C-22.49498072 369.01083327 -23.94911844 367.56187937 -25.40364075 366.11331177 C-29.34616684 362.18416299 -33.2822767 358.24864603 -37.21685195 354.31153727 C-40.50299212 351.02432683 -43.79210516 347.74009897 -47.08117467 344.45581996 C-54.83943125 336.70865353 -62.59235303 328.95617652 -70.34204102 321.20043945 C-78.33701496 313.19942108 -86.34113158 305.20763325 -94.3497631 297.22028744 C-101.22747434 290.36018479 -108.09937232 283.49429686 -114.96665651 276.62375629 C-119.06741795 272.52118116 -123.17037787 268.42086724 -127.27898216 264.32614517 C-131.14096115 260.47672821 -134.9956342 256.62014255 -138.84480095 252.7579155 C-140.25836253 251.34198531 -141.67448702 249.92860842 -143.09334946 248.51799011 C-145.03016557 246.59161832 -146.95749846 244.65622574 -148.88273621 242.71829224 C-149.72727986 241.88481001 -149.72727986 241.88481001 -150.58888501 241.03448975 C-154.27608216 237.29597713 -157.26763518 233.53039107 -158.21240234 228.2019043 C-157.86886083 223.20146668 -156.36240357 220.47841223 -152.95068359 216.8269043 C-152.13905762 215.95582031 -151.32743164 215.08473633 -150.49121094 214.18725586 C-146.35229348 209.87345456 -142.19065085 205.58788463 -137.96313477 201.36108398 C-136.48798422 199.883704 -135.02108103 198.39842702 -133.55419922 196.9128418 C-132.60611942 195.96183431 -131.65756939 195.01129531 -130.70849609 194.0612793 C-129.86504639 193.2137207 -129.02159668 192.36616211 -128.15258789 191.49291992 C-124.83112116 188.51762051 -122.19225597 186.99358479 -117.69677734 187.2175293 C-105.93419406 189.15484554 -94.2124862 205.88859871 -86.09521484 214.03393555 C-84.49546916 215.63554971 -82.89550003 217.23694071 -81.2953186 218.83811951 C-77.11420894 223.02302049 -72.93611292 227.21091734 -68.75866699 231.3994751 C-64.48336557 235.68506397 -60.20517987 239.96777148 -55.92724609 244.25073242 C-47.55595338 252.63270265 -39.18784598 261.01784511 -30.82177734 269.4050293 C-30.81938899 268.09120459 -30.81700064 266.77737988 -30.81453991 265.42374229 C-30.75718685 234.240028 -30.68446116 203.05639136 -30.59279106 171.87276008 C-30.58152283 168.03504676 -30.57038438 164.19733307 -30.55932617 160.35961914 C-30.55712249 159.59559562 -30.5549188 158.8315721 -30.55264834 158.04439636 C-30.51727069 145.6715287 -30.4924092 133.29866111 -30.47143032 120.92576163 C-30.449672 108.23113284 -30.41662129 95.53656972 -30.37307578 82.84199679 C-30.34655958 75.00801655 -30.32886399 67.17411814 -30.3224313 59.34009524 C-30.31655644 53.33413941 -30.29497459 47.3283451 -30.26750183 41.32244492 C-30.25869436 38.85776562 -30.2550046 36.39306201 -30.25676918 33.92836761 C-30.2584161 30.56713052 -30.24177149 27.20646521 -30.22050476 23.8453064 C-30.22535234 22.86670068 -30.23019991 21.88809497 -30.23519439 20.87983453 C-30.17095488 14.74091389 -29.43035707 10.23296686 -25.10302734 5.54174805 C-24.51521484 5.06350586 -23.92740234 4.58526367 -23.32177734 4.0925293 C-22.73396484 3.60139648 -22.14615234 3.11026367 -21.54052734 2.60424805 C-15.8334301 -1.37774935 -6.72436173 0.05848812 0 0 Z " fill="#19A1FE" transform="translate(508.82177734375,167.594970703125)"/>
<path d="M0 0 C0.66068434 -0.00235223 1.32136868 -0.00470446 2.00207376 -0.00712797 C4.22555694 -0.01380794 6.44898154 -0.01336005 8.67247391 -0.01294994 C10.27889763 -0.01624918 11.88532053 -0.01997487 13.49174237 -0.02409142 C17.91387511 -0.03411251 22.33599427 -0.03782838 26.75813675 -0.04048073 C31.52445935 -0.04438338 36.2907712 -0.05396166 41.05708694 -0.0626936 C52.57057178 -0.08245767 64.08405749 -0.09252351 75.59755504 -0.10142139 C81.01782531 -0.10580382 86.43809461 -0.11117069 91.85836411 -0.11641026 C109.87306261 -0.13342142 127.88776051 -0.1479165 145.90246582 -0.155159 C150.57753119 -0.15706892 155.25259655 -0.15898925 159.9276619 -0.16094494 C161.08964117 -0.16142868 162.25162044 -0.16191242 163.4488112 -0.16241082 C182.28017434 -0.17071454 201.11147402 -0.19605775 219.94280943 -0.22852562 C239.27070808 -0.26157838 258.59857445 -0.27960609 277.92650151 -0.28280324 C288.78083815 -0.28496983 299.63508221 -0.29374056 310.48939133 -0.31926441 C319.73150538 -0.34094692 328.97350439 -0.34903384 338.21564099 -0.33929763 C342.93157037 -0.33474602 347.64726222 -0.33668921 352.36315918 -0.35605907 C356.68120751 -0.37364182 360.99884418 -0.37273292 365.31689659 -0.35716178 C366.87815224 -0.35477828 368.43943603 -0.35914768 370.00064859 -0.37099043 C386.69986028 -0.48980785 386.69986028 -0.48980785 393.29227066 5.94196033 C396.45384726 11.22302695 397.16578954 15.49581738 397.0682869 21.60297108 C397.07069885 22.48271595 397.07311081 23.36246082 397.07559586 24.26886463 C397.074622 26.11774703 397.06133947 27.96666027 397.03630447 29.81537342 C397.00196758 32.62710221 397.01567669 35.43568636 397.03508377 38.24750233 C397.02818459 40.05350514 397.01851155 41.85949992 397.0057869 43.66547108 C397.01074677 44.49590931 397.01570663 45.32634754 397.0208168 46.18195057 C396.90712098 51.88546817 395.72326894 56.39984221 392.43938065 61.13422108 C386.93227822 65.6087418 382.84082932 66.2582829 375.90720272 66.26564884 C375.24959553 66.26770148 374.59198834 66.26975411 373.91445366 66.27186894 C371.70144572 66.27754269 369.48849994 66.27608124 367.27548599 66.27466297 C365.67659935 66.27724639 364.07771335 66.28025948 362.47882825 66.28366637 C358.07756607 66.29174228 353.67632019 66.29352627 349.27505147 66.29426384 C344.53124451 66.29611334 339.78744602 66.30366012 335.04364395 66.31039906 C324.66770982 66.32398666 314.29177955 66.33000764 303.915838 66.33440971 C297.43916539 66.33717117 290.96249428 66.34140832 284.48582268 66.34591389 C266.55947812 66.35810665 248.63313477 66.36840625 230.70678616 66.37178898 C229.55925441 66.37200854 228.41172266 66.37222811 227.22941722 66.37245433 C226.07911802 66.37267261 224.92881882 66.37289089 223.74366206 66.37311578 C221.41266135 66.37355925 219.08166065 66.37400581 216.75065994 66.37445545 C215.59439959 66.37467688 214.43813924 66.37489831 213.24684069 66.37512645 C194.5053458 66.37907566 175.76388976 66.39653342 157.02240988 66.41981497 C137.78830682 66.44351599 118.55422327 66.45599024 99.32010537 66.4571569 C88.51779808 66.45807431 77.71554142 66.46384341 66.91324806 66.48197651 C57.71613292 66.49736055 48.51908406 66.50250796 39.3219585 66.49423841 C34.62847097 66.49032601 29.93511699 66.49129023 25.24164581 66.50529575 C20.94529565 66.51799918 16.64917988 66.51686857 12.35283021 66.50470504 C10.79832454 66.50274187 9.24380247 66.50585502 7.68931987 66.5145494 C5.57562294 66.52562334 3.46275598 66.51816723 1.34908199 66.50615788 C-0.41165637 66.50705351 -0.41165637 66.50705351 -2.2079652 66.50796723 C-8.76979248 65.77646986 -13.36399113 63.17017495 -17.56061935 58.13422108 C-20.01395051 53.52824109 -19.89942647 49.0513917 -19.9317131 43.95843983 C-19.94525581 42.63245525 -19.94525581 42.63245525 -19.95907211 41.27968311 C-19.97354816 39.41295207 -19.98245476 37.54617059 -19.98615646 35.67938709 C-19.99803788 32.84118428 -20.04723507 30.00516772 -20.09772873 27.1674242 C-20.1071959 25.34777328 -20.11442953 23.52810909 -20.1192131 21.70843983 C-20.13874542 20.86859043 -20.15827774 20.02874104 -20.17840195 19.16344166 C-20.13160508 12.97202602 -18.41176733 8.9729303 -14.56061935 4.13422108 C-10.16543574 0.00541223 -5.85052026 0.00887634 0 0 Z " fill="#18A0FD" transform="translate(323.56061935424805,600.8657789230347)"/>
<path d="M0 0 C1.63035662 -0.00504681 3.26070769 -0.01227668 4.89104605 -0.02149814 C9.36552468 -0.04042841 13.83945683 -0.02818238 18.31392169 -0.01077521 C23.14154621 0.00259163 27.9690904 -0.01283585 32.79670715 -0.02459717 C42.25176841 -0.0429832 51.70662312 -0.03445499 61.16167796 -0.01650894 C68.84548631 -0.00248743 76.52923856 0.00141082 84.21305847 -0.00195122 C85.30635667 -0.00242866 86.39965487 -0.0029061 87.52608332 -0.00339801 C89.74704748 -0.00442434 91.96801162 -0.00547969 94.18897575 -0.00656378 C113.831144 -0.01513279 133.47321248 0.00155072 153.11535645 0.03126526 C172.1782246 0.06010312 191.24094902 0.06718645 210.30383301 0.05177307 C231.05846094 0.03501483 251.81302061 0.03097287 272.56765032 0.04848343 C274.7804772 0.05032783 276.99330409 0.05216256 279.20613098 0.0539875 C280.29490464 0.05489959 281.3836783 0.05581168 282.50544509 0.05675141 C290.18065897 0.06235914 297.85583956 0.05904741 305.53105164 0.05244255 C314.88367278 0.04471379 324.23615239 0.05144552 333.588745 0.07661759 C338.3612595 0.08912319 343.13355353 0.09524627 347.90607643 0.08407593 C352.27455959 0.07404427 356.64260284 0.08247019 361.0110324 0.10565711 C362.59168354 0.11082164 364.17237401 0.10924509 365.75300807 0.10026246 C380.43679722 0.02375468 380.43679722 0.02375468 386.20959473 4.62818909 C390.44902159 9.62210054 390.7930481 15.59048929 390.70568848 21.87818909 C390.70714371 22.73573792 390.70859894 23.59328674 390.71009827 24.4768219 C390.70844824 26.2786145 390.69698819 28.08042252 390.67614746 29.88209534 C390.64717086 32.6209932 390.65556204 35.35795328 390.6685791 38.09693909 C390.66234079 39.85736505 390.65394912 41.61778496 390.64318848 43.37818909 C390.64612411 44.18675354 390.64905975 44.99531799 390.65208435 45.8283844 C390.5555154 51.72418923 390.10624674 57.62336316 385.82495314 62.06453937 C379.00140928 66.97834682 371.3737578 66.32190633 363.3368988 66.25637817 C361.70980392 66.26142633 360.08271459 66.26865724 358.45563799 66.27787632 C353.99481939 66.29678721 349.53454978 66.28457151 345.07374513 66.26715338 C340.25908997 66.2537763 335.44451496 66.26921765 330.62986755 66.28097534 C321.20234873 66.2993533 311.77503718 66.29083873 302.34752481 66.27288712 C294.6861469 66.25886167 287.02482526 66.2549682 279.36343575 66.25832939 C278.2730484 66.25880683 277.18266105 66.25928428 276.05923166 66.25977619 C273.84414603 66.26080251 271.62906042 66.26185787 269.41397483 66.26294195 C249.82782162 66.27150923 230.2417685 66.25483264 210.65563965 66.22511292 C191.64810991 66.19627152 172.64072433 66.18919382 153.63317871 66.2046051 C132.9360422 66.22136331 112.23897413 66.22540565 91.54183584 66.20789474 C89.33520322 66.20605035 87.12857058 66.20421562 84.92193794 66.20239067 C83.2933661 66.20102254 83.2933661 66.20102254 81.63189382 66.19962676 C73.97870969 66.19401931 66.32555896 66.19733046 58.67237663 66.20393562 C49.34722791 66.21166427 40.02222114 66.20493293 30.69710105 66.17976058 C25.93875626 66.16725518 21.18063257 66.1611317 16.42227936 66.17230225 C12.06678858 66.18233406 7.711739 66.17390766 3.35630197 66.15072107 C1.78039134 66.14555666 0.20444127 66.14713285 -1.37145222 66.15611572 C-16.0098848 66.2326186 -16.0098848 66.2326186 -21.79040527 61.62818909 C-26.10080674 56.57563772 -26.3722583 50.48772901 -26.28649902 44.12428284 C-26.28795425 43.24216629 -26.28940948 42.36004974 -26.29090881 41.45120239 C-26.28925855 39.59813614 -26.27779582 37.74505493 -26.25695801 35.8921051 C-26.22794766 33.0698124 -26.23637877 30.24939583 -26.24938965 27.42701721 C-26.24315253 25.61776338 -26.2347618 23.80851541 -26.22399902 21.99928284 C-26.22693466 21.16368332 -26.2298703 20.3280838 -26.2328949 19.46716309 C-26.12596626 12.76945714 -25.03812951 7.90145491 -20.15790558 2.96577549 C-14.27113999 -1.02848569 -6.82686212 -0.05540879 0 0 Z " fill="#18A1FE" transform="translate(329.7904052734375,704.3718109130859)"/>
<path d="M0 0 C0.98929575 -0.00352835 0.98929575 -0.00352835 1.99857727 -0.00712797 C4.22415695 -0.01382224 6.44967831 -0.01335962 8.67526722 -0.01294994 C10.28082789 -0.0162483 11.88638774 -0.01997381 13.49194652 -0.02409142 C17.9163386 -0.03412271 22.34071711 -0.03783003 26.76511896 -0.04048073 C31.53214081 -0.04438043 36.29915189 -0.05395898 41.06616688 -0.0626936 C52.58451881 -0.08246728 64.10287163 -0.09252528 75.62123629 -0.10142139 C81.04300301 -0.10580273 86.46476875 -0.11116993 91.88653469 -0.11641026 C109.90548182 -0.1334233 127.92442833 -0.14791808 145.94338226 -0.155159 C150.62067827 -0.15706895 155.29797428 -0.15898927 159.97527027 -0.16094494 C161.71908743 -0.16167055 161.71908743 -0.16167055 163.49813322 -0.16241082 C182.33602645 -0.1707134 201.17385623 -0.19605385 220.01172175 -0.22852562 C239.34410879 -0.26157864 258.67646356 -0.27960616 278.00887901 -0.28280324 C288.86658398 -0.28496994 299.72419642 -0.29374208 310.58187389 -0.31926441 C319.82767196 -0.34094738 329.07335502 -0.34903366 338.31917562 -0.33929763 C343.03712327 -0.33474599 347.75483351 -0.33668933 352.47274876 -0.35605907 C356.79268735 -0.37364184 361.11221447 -0.3727329 365.43215714 -0.35716178 C366.99411562 -0.35477827 368.55610223 -0.35914775 370.11801764 -0.37099043 C384.8042486 -0.4754373 384.8042486 -0.4754373 391.56242847 4.13422108 C396.20220143 9.96367941 396.73666344 14.6617654 396.80070972 21.89593983 C396.80878147 22.76056339 396.81685322 23.62518696 396.82516956 24.51601124 C396.83899929 26.34763052 396.84972642 28.17927546 396.85759449 30.01093006 C396.86909575 31.87591621 396.88951814 33.74086992 396.91911793 35.60565662 C396.96199339 38.30681091 396.97799277 41.00698658 396.98820972 43.70843983 C397.00571781 44.53268955 397.0232259 45.35693928 397.04126453 46.20616627 C397.02080712 51.7341391 396.24944152 56.81275153 392.56242847 61.13422108 C385.77946226 66.53922945 378.0656153 65.69291801 369.80998707 65.64215565 C368.18375751 65.64676622 366.55753211 65.65312018 364.93131542 65.66106462 C360.46831145 65.67775972 356.00564969 65.66951079 351.5426445 65.65711975 C346.72729583 65.64807233 341.91200616 65.66203746 337.0966692 65.67303944 C327.66570164 65.69083251 318.23486136 65.68698115 308.8038888 65.67538887 C301.13963081 65.66635794 293.47540852 65.66512908 285.81114674 65.66948414 C284.7206239 65.67009707 283.63010106 65.67071 282.50653207 65.67134151 C280.29120492 65.6726204 278.07587778 65.67391725 275.86055064 65.67523187 C255.08395961 65.68663998 234.30743916 65.67352033 213.53085971 65.65203041 C195.70085249 65.63415923 177.87094944 65.63726327 160.0409441 65.65570545 C139.33905859 65.67710807 118.63723495 65.68554133 97.93533993 65.6732564 C95.72813003 65.67198219 93.52092013 65.67072471 91.31371021 65.66948414 C89.68469589 65.66855849 89.68469589 65.66855849 88.02277219 65.66761413 C80.36709158 65.66415941 72.71145018 65.66999222 65.05577564 65.67940235 C55.72694973 65.69061693 46.39825846 65.68759363 37.06944799 65.66627938 C32.30908039 65.65576172 27.54893733 65.65165936 22.78857136 65.66487598 C18.43119788 65.67679084 14.07425719 65.67025235 9.716923 65.64896578 C8.14030645 65.64449587 6.56365339 65.64677474 4.98706031 65.65646893 C-9.65964827 65.73962372 -9.65964827 65.73962372 -15.43757153 61.13422108 C-19.66768594 56.14728001 -20.03170946 50.16425433 -19.96882153 43.88422108 C-19.97264843 43.02667225 -19.97647533 42.16912342 -19.98041821 41.28558826 C-19.98312381 39.48381841 -19.97585792 37.68200837 -19.9590559 35.88031483 C-19.9376256 33.14113268 -19.95890254 30.40457281 -19.98444653 27.66547108 C-19.98180301 25.90504869 -19.97667753 24.14462792 -19.96882153 22.38422108 C-19.98096691 21.1713744 -19.98096691 21.1713744 -19.99335766 19.93402576 C-19.90145006 14.28919632 -18.68984596 9.81488483 -15.43757153 5.13422108 C-10.26718131 1.01901254 -6.49893885 0.00985694 0 0 Z " fill="#19A1FE" transform="translate(323.43757152557373,807.8657789230347)"/>
</svg>
