<?xml version="1.0" encoding="UTF-8"?>
<svg version="1.1" xmlns="http://www.w3.org/2000/svg" width="1024" height="1024">
<path d="M0 0 C0.69186465 -0.00235223 1.38372931 -0.00470446 2.09655955 -0.00712797 C4.4261387 -0.01381057 6.75566198 -0.01335997 9.0852499 -0.01294994 C10.76790672 -0.01624903 12.45056274 -0.0199747 14.13321775 -0.02409142 C18.76618849 -0.03411449 23.39914627 -0.03782871 28.03212631 -0.04048073 C33.02550201 -0.04438289 38.01886744 -0.05396131 43.0122366 -0.0626936 C55.07598346 -0.0824608 67.13973116 -0.09252467 79.20349017 -0.10142139 C84.88387952 -0.10580398 90.56426795 -0.11117088 96.24465656 -0.11641026 C115.12662119 -0.13342301 134.00858522 -0.14791722 152.89055634 -0.155159 C157.79110178 -0.15706891 162.69164722 -0.15898924 167.59219265 -0.16094494 C169.41921368 -0.16167055 169.41921368 -0.16167055 171.28314423 -0.16241082 C191.01455975 -0.17071127 210.74591464 -0.19604825 230.47730369 -0.22852562 C250.73295694 -0.2615942 270.98857939 -0.27960759 291.24425977 -0.28280324 C302.61792092 -0.28496855 313.99149367 -0.2937203 325.36512852 -0.31926441 C335.05145271 -0.34096865 344.73766704 -0.34902316 354.42401279 -0.33929763 C359.36511439 -0.33475213 364.30598929 -0.33665385 369.24705982 -0.35605907 C373.77435642 -0.37368549 378.30126086 -0.3726972 382.8285616 -0.35716178 C384.46254826 -0.35478493 386.09656204 -0.35911332 387.73050726 -0.37099043 C401.23357978 -0.46302954 412.04627272 1.48338792 422.15103054 11.13422108 C430.24410675 19.82343906 433.30080153 30.14228222 433.29820156 41.77937794 C433.30187825 42.66116527 433.30555494 43.54295261 433.30934304 44.45146078 C433.32037384 47.41220772 433.32422273 50.37291956 433.32803249 53.33368397 C433.33429767 55.45433126 433.34094452 57.57497745 433.34794521 59.69562244 C433.36898412 66.66603297 433.37934846 73.6364437 433.38931179 80.60687733 C433.39335962 83.00755226 433.39747655 85.40822709 433.40166187 87.80890179 C433.42071433 99.089374 433.43494442 110.36983967 433.44327384 121.65032488 C433.45304238 134.66453826 433.47935183 147.67858138 433.51977473 160.69273478 C433.54995657 170.75575054 433.56474475 180.81871756 433.56805485 190.8817777 C433.57040326 196.88990738 433.57933648 202.89785518 433.60451603 208.90593624 C433.62783729 214.56207826 433.63201351 220.21791918 433.62175465 225.87409687 C433.62126014 227.94485127 433.62755525 230.01562069 433.64131069 232.08632946 C433.73780361 247.47918683 432.57630141 259.14059216 421.59634304 270.78265858 C413.69039222 278.2346792 403.88346593 281.25288461 393.22865868 281.26844215 C392.5410049 281.27079438 391.85335112 281.27314661 391.14485934 281.27557012 C388.83561611 281.28223859 386.52642943 281.28180255 384.21717739 281.2813921 C382.54674461 281.28469206 380.87631263 281.28841791 379.20588166 281.29253358 C374.61130559 281.30254658 370.01674259 281.30626924 365.42215717 281.30892289 C360.46831672 281.312828 355.51448659 281.32240617 350.56065273 281.33113575 C338.59520564 281.350894 326.62975771 281.36096543 314.66429839 281.36986354 C309.02886897 281.37424737 303.39344049 281.37961392 297.75801182 281.38485241 C279.02355647 281.40186382 260.2891017 281.41635799 241.55463982 281.42360115 C236.6934595 281.42551103 231.83227919 281.42743136 226.9710989 281.42938709 C225.76288454 281.42987083 224.55467017 281.43035457 223.30984325 281.43085297 C203.73759653 281.43915327 184.16541093 281.4644906 164.5931909 281.49696777 C144.4968329 281.53004269 124.40050596 281.54805029 104.3041206 281.55124539 C93.02154504 281.55341005 81.73905862 281.56215234 70.45650959 281.58770657 C60.84782533 281.60941941 51.23925186 281.61746105 41.63054585 281.60773978 C36.729818 281.60319686 31.82931871 281.60508104 26.92862225 281.62450123 C22.43708713 281.64214597 17.94594709 281.64112453 13.4544077 281.62560394 C11.8345649 281.62322987 10.21469464 281.62754095 8.59489375 281.63943259 C-5.69746804 281.73781054 -17.22464327 279.51062002 -27.75131321 269.28656483 C-35.47995683 261.06773239 -37.99860488 252.53104814 -37.99614048 241.45782948 C-37.99981717 240.57266415 -38.00349386 239.68749883 -38.00728196 238.77551031 C-38.01831312 235.80327784 -38.02216172 232.83108033 -38.02597141 229.85883045 C-38.03223661 227.72995359 -38.03888346 225.60107782 -38.04588413 223.47220325 C-38.0669244 216.47413361 -38.07728812 209.47606375 -38.08725071 202.47797108 C-38.09129861 200.0674129 -38.09541554 197.65685483 -38.09960079 195.24629688 C-38.11865425 183.91830229 -38.13288363 172.59031422 -38.14121276 161.26230669 C-38.15097898 148.19603313 -38.17728195 135.12992925 -38.21771365 122.06371546 C-38.24790534 111.95907083 -38.26268464 101.85447475 -38.26599377 91.7497859 C-38.26834123 85.71759132 -38.27726194 79.68557799 -38.30245495 73.65343189 C-38.32579318 67.97348465 -38.32994564 62.29383723 -38.31969357 56.61385441 C-38.31919946 54.5354573 -38.32548276 52.45704515 -38.33924961 50.37869358 C-38.43737025 34.68005854 -37.42303951 21.99166741 -26.00131321 10.23187733 C-18.43662057 3.1183592 -10.29476528 0.01490968 0 0 Z " fill="#0299FE" transform="translate(314.8489694595337,447.86577892303467)"/>
<path d="M0 0 C1.47154037 -0.00856522 1.47154037 -0.00856522 2.97280884 -0.01730347 C4.57803909 -0.01898026 4.57803909 -0.01898026 6.21569824 -0.02069092 C7.34792816 -0.02565582 8.48015808 -0.03062073 9.646698 -0.03573608 C13.39821987 -0.05035763 17.14969941 -0.05716123 20.90124512 -0.06268311 C23.5123698 -0.06843642 26.12349448 -0.07419413 28.73461914 -0.07995605 C33.51507671 -0.0895257 38.29552518 -0.09542287 43.07599115 -0.09845281 C50.08621905 -0.10292146 57.09625078 -0.12041426 64.10641909 -0.1494534 C70.19753915 -0.17379889 76.28857918 -0.18140329 82.37974548 -0.18312836 C84.95996668 -0.18614446 87.54018727 -0.19413755 90.12037659 -0.20731354 C93.74344443 -0.22448793 97.36604301 -0.22246533 100.98913574 -0.21600342 C102.57007523 -0.22982559 102.57007523 -0.22982559 104.18295288 -0.243927 C126.43593673 -0.1204395 140.7403586 11.37563006 155.7010498 26.46075439 C157.27071535 28.04134108 158.85106243 29.61069985 160.43249512 31.17950439 C161.43574279 32.18407048 162.43837163 33.18925506 163.44030762 34.19512939 C164.79019775 35.54840332 164.79019775 35.54840332 166.1673584 36.92901611 C168.11999512 39.14044189 168.11999512 39.14044189 168.11999512 41.14044189 C168.66639648 41.35724609 169.21279785 41.57405029 169.77575684 41.79742432 C172.90435359 43.58980202 175.16761978 46.03922962 177.62780762 48.62872314 C178.70808245 49.73919135 179.78882717 50.84920259 180.86999512 51.95880127 C182.55369844 53.69792812 184.23320605 55.44058558 185.9041748 57.19195557 C197.78757081 69.62710262 197.78757081 69.62710262 213.92826176 74.27072716 C215.56597385 74.27840467 217.20371713 74.28053544 218.84144592 74.2784729 C220.19453028 74.28270482 220.19453028 74.28270482 221.57494968 74.28702223 C224.61023711 74.29538285 227.64548812 74.29670775 230.68078613 74.29815674 C232.85216881 74.30282399 235.02355052 74.30796741 237.19493103 74.31355286 C241.8782956 74.32484378 246.56165377 74.33327327 251.24502754 74.33967209 C258.65372722 74.35034401 266.0623811 74.37058772 273.47105408 74.39279175 C294.54127152 74.4547399 315.61148098 74.50870215 336.6817627 74.54180908 C348.31315434 74.56016545 359.94446962 74.58911615 371.57580513 74.62981379 C377.73085466 74.6508702 383.88580801 74.66633912 390.04089546 74.66862106 C395.83491 74.67077156 401.62872443 74.68668227 407.42267799 74.71301079 C409.54543199 74.72019044 411.66821026 74.72231125 413.79097366 74.71890831 C416.69743687 74.71499449 419.60326697 74.72953004 422.50965881 74.7484436 C423.34227456 74.74291391 424.17489031 74.73738421 425.03273684 74.73168695 C435.78270765 74.85176673 445.05023221 78.38160226 452.87390137 85.80450439 C459.27561966 92.83195455 462.25534841 100.26175891 462.23352051 109.75689697 C462.23344498 110.85766068 462.23336945 111.95842438 462.23329163 113.09254456 C462.22813034 114.26979599 462.22296906 115.44704742 462.21765137 116.65997314 C462.21552895 118.48053474 462.21552895 118.48053474 462.21336365 120.33787537 C462.20777177 124.20958941 462.19522069 128.08124536 462.18249512 131.95294189 C462.17747907 134.57989418 462.17291635 137.20684738 462.16882324 139.83380127 C462.15780499 146.26936792 462.14107488 152.70490076 462.11999512 159.14044189 C459.3789728 155.74684597 456.83873608 152.29893855 454.36999512 148.70294189 C445.69703288 136.80950471 432.41144086 130.70225375 418.11999512 128.14044189 C412.43593802 127.72438453 406.77521565 127.73415406 401.07861328 127.75949097 C399.37326334 127.75602897 397.66791564 127.75126078 395.96257257 127.74530923 C391.3039405 127.73284402 386.645494 127.73894913 381.98686147 127.74826789 C376.95201851 127.75507647 371.91720669 127.7445682 366.88237 127.73632812 C357.02998643 127.72300788 347.17767154 127.72586092 337.32528532 127.73456605 C329.31603837 127.74134891 321.30681064 127.74225671 313.29756165 127.7389946 C312.15642801 127.7385349 311.01529437 127.7380752 309.83958092 127.73760157 C307.5211871 127.73664237 305.20279328 127.73566973 302.88439947 127.7346838 C281.1591073 127.72613491 259.43385314 127.73595618 237.7085672 127.7520849 C219.07860096 127.76548761 200.44869081 127.76315938 181.81872559 127.74932861 C160.16968217 127.73326396 138.52067206 127.72695883 116.87162352 127.7361654 C114.56189188 127.73712102 112.25216024 127.73806414 109.94242859 127.7389946 C108.80607945 127.73945742 107.6697303 127.73992025 106.49894634 127.7403971 C98.50191901 127.74298433 90.50491285 127.73862175 82.50788879 127.73155594 C72.75847546 127.72313092 63.00913457 127.72544218 53.2597295 127.74139817 C48.28811478 127.74926736 43.3166207 127.75239553 38.34500694 127.74245071 C33.78903235 127.73347532 29.23328964 127.73848335 24.67733592 127.75438337 C23.03415647 127.75771916 21.39095721 127.75606435 19.74779063 127.74875601 C1.94840308 127.67569641 -14.63052917 131.28677511 -27.91516113 143.95294189 C-30.72216121 147.07803144 -33.0852001 150.42234855 -35.37219238 153.94122314 C-36.74040296 155.93682562 -38.15171204 157.4652765 -39.88000488 159.14044189 C-39.97374848 143.19741309 -40.04413032 127.25445959 -40.08725357 111.31122303 C-40.10781515 103.90727802 -40.13581192 96.50350498 -40.1817627 89.09967041 C-40.22182806 82.64100526 -40.24748415 76.18246475 -40.25635886 69.72367877 C-40.26154061 66.3087044 -40.27358269 62.89408639 -40.30292511 59.47922707 C-40.33217259 55.65230232 -40.33595183 51.82610389 -40.33410645 47.99908447 C-40.34848755 46.88633148 -40.36286865 45.77357849 -40.37768555 44.62710571 C-40.31480444 32.49122532 -37.35382321 22.01446108 -28.88000488 13.14044189 C-28.28316895 12.50364502 -27.68633301 11.86684814 -27.07141113 11.21075439 C-19.96266868 4.3236983 -9.92632378 0.03470147 0 0 Z " fill="#0698FE" transform="translate(300.8800048828125,297.85955810546875)"/>
</svg>
