<?xml version="1.0" encoding="UTF-8"?>
<svg version="1.1" xmlns="http://www.w3.org/2000/svg" width="1024" height="1024">
<path d="M0 0 C1.06810913 -0.00570007 2.13621826 -0.01140015 3.23669434 -0.01727295 C5.49600237 -0.02670149 7.75532403 -0.03324838 10.01464844 -0.03710938 C13.42928913 -0.04676343 16.84331418 -0.0777867 20.2578125 -0.109375 C31.57453217 -0.164214 42.03334704 0.01786098 52.96875 3.203125 C54.62680664 3.63818359 54.62680664 3.63818359 56.31835938 4.08203125 C90.42871528 13.19867899 120.14754887 39.79190199 137.9296875 69.546875 C145.63722193 83.13865614 151.08336865 97.08569665 154.96875 112.203125 C155.14132324 112.8724707 155.31389648 113.54181641 155.49169922 114.23144531 C157.56911693 122.51110187 158.63495675 130.68096604 158.96875 139.203125 C159.01 140.20472656 159.05125 141.20632813 159.09375 142.23828125 C159.88955634 181.58095702 143.43190553 214.78483357 117.83984375 243.74609375 C94.67898849 270.01942152 82.47023547 296.68134185 79.0949707 331.47436523 C77.56482128 346.29482099 77.56482128 346.29482099 71.90625 351.140625 C68.35311889 353.63537663 66.79623907 354.32780636 62.55462646 354.35702515 C61.16255226 354.36992584 61.16255226 354.36992584 59.74235535 354.38308716 C58.21038261 354.38947708 58.21038261 354.38947708 56.64746094 354.39599609 C55.57416031 354.40417358 54.50085968 354.41235107 53.39503479 354.42077637 C49.83107059 354.44565797 46.2671463 354.46215353 42.703125 354.4765625 C41.48783363 354.48188618 40.27254227 354.48720985 39.02042389 354.49269485 C32.58800385 354.51943846 26.15560329 354.53880952 19.72314453 354.55322266 C13.07377935 354.56987323 6.42492161 354.61465167 -0.2242775 354.6655941 C-5.33207784 354.69922542 -10.43976002 354.71079566 -15.54766083 354.71644974 C-17.99889664 354.72317355 -20.45012438 354.73842467 -22.90125275 354.76234055 C-26.33204175 354.79390491 -29.76148715 354.79404122 -33.19238281 354.78662109 C-34.71221016 354.8112291 -34.71221016 354.8112291 -36.26274109 354.83633423 C-40.75312851 354.79656838 -43.9956969 354.73544263 -47.5836792 351.85415649 C-51.68558461 347.41126952 -52.58276476 343.89888747 -53.3984375 338.08984375 C-53.64708569 336.43163317 -53.89578537 334.77343031 -54.14453125 333.11523438 C-54.52441554 330.52049335 -54.90123956 327.92533733 -55.27587891 325.32983398 C-59.57274085 295.78392829 -69.26645047 269.81427007 -89.81640625 247.7265625 C-91.03125 246.203125 -91.03125 246.203125 -91.03125 244.203125 C-91.69125 244.203125 -92.35125 244.203125 -93.03125 244.203125 C-94.29296875 242.8046875 -94.29296875 242.8046875 -95.71875 240.828125 C-96.25113281 240.09207031 -96.78351563 239.35601563 -97.33203125 238.59765625 C-97.89277344 237.80746094 -98.45351563 237.01726562 -99.03125 236.203125 C-99.58167969 235.44386719 -100.13210938 234.68460938 -100.69921875 233.90234375 C-114.42353806 214.71342133 -124.29099875 194.56610769 -129.28125 171.453125 C-129.44463867 170.69725098 -129.60802734 169.94137695 -129.77636719 169.16259766 C-137.28420892 132.17567159 -130.16126416 95.83697396 -110.03125 64.203125 C-106.65823564 59.28693923 -102.91978167 54.71601664 -99.03125 50.203125 C-98.27070313 49.29175781 -97.51015625 48.38039063 -96.7265625 47.44140625 C-91.39497536 41.24651941 -85.46151097 36.21976291 -79.03125 31.203125 C-78.09023438 30.41164063 -77.14921875 29.62015625 -76.1796875 28.8046875 C-55.27921147 11.68465933 -27.09989405 0.1130457 0 0 Z " fill="#029EFE" transform="translate(499.03125,328.796875)"/>
<path d="M0 0 C0.8383136 -0.00571014 1.6766272 -0.01142029 2.54034424 -0.01730347 C3.91499344 -0.01898026 3.91499344 -0.01898026 5.31741333 -0.02069092 C6.285177 -0.02565582 7.25294067 -0.03062073 8.25003052 -0.03573608 C11.45625516 -0.050359 14.66243033 -0.05715963 17.86868286 -0.06268311 C20.09444175 -0.06843406 22.32020062 -0.0741918 24.54595947 -0.07995605 C29.21489696 -0.09046614 33.88381723 -0.09630889 38.55276489 -0.09979248 C44.53732014 -0.10527991 50.52164818 -0.12931339 56.50613213 -0.15776443 C61.10433621 -0.17638074 65.70248544 -0.18159586 70.30072403 -0.18312836 C72.50714486 -0.18615723 74.71356467 -0.19419364 76.91994858 -0.20731354 C80.0057382 -0.22435412 83.09097084 -0.2224986 86.17678833 -0.21600342 C87.08917267 -0.2252182 88.00155701 -0.23443298 88.94158936 -0.243927 C93.72950285 -0.2123321 97.02668487 -0.03515272 100.87649536 3.14044189 C104.48714007 8.55640895 103.47345374 15.83506904 102.87649536 22.14044189 C101.7615571 25.43548264 100.21604005 27.59797752 97.87649536 30.14044189 C97.39180786 30.75145752 96.90712036 31.36247314 96.40774536 31.99200439 C87.97050909 41.7113697 76.5346142 42.78639243 64.45095825 43.67803955 C56.9123896 44.15284239 49.42897028 44.4287753 41.87649536 44.14044189 C40.76790161 44.11079346 39.65930786 44.08114502 38.51712036 44.05059814 C22.94415342 43.32832253 3.80580056 40.11595647 -7.31100464 28.14044189 C-11.5936569 22.52757189 -13.91338545 17.38101604 -13.12350464 10.14044189 C-11.67179765 6.54573886 -10.19348397 3.57084219 -7.12350464 1.14044189 C-4.39852925 0.23211676 -2.80219077 0.01144721 0 0 Z " fill="#009EFD" transform="translate(465.1235046386719,776.8595581054688)"/>
<path d="M0 0 C0.92245514 -0.00571014 1.84491028 -0.01142029 2.7953186 -0.01730347 C3.80525879 -0.01842133 4.81519897 -0.01953918 5.85574341 -0.02069092 C7.45369247 -0.02813828 7.45369247 -0.02813828 9.08392334 -0.03573608 C12.61480348 -0.05036426 16.1456387 -0.05716048 19.67654419 -0.06268311 C22.12650555 -0.06843358 24.57646689 -0.07419133 27.02642822 -0.07995605 C32.16615001 -0.09046761 37.30585614 -0.09630942 42.44558716 -0.09979248 C49.03547484 -0.1052805 55.62515624 -0.12931466 62.21497917 -0.15776443 C67.27641406 -0.1763752 72.33779907 -0.18159557 77.39926529 -0.18312836 C79.8289719 -0.18615844 82.25867757 -0.19419886 84.68835068 -0.20731354 C88.08545449 -0.22434258 91.48205188 -0.22250133 94.87918091 -0.21600342 C95.88507263 -0.2252182 96.89096436 -0.23443298 97.92733765 -0.243927 C104.82247898 -0.20255181 108.09965819 1.00959878 113.30935669 5.64044189 C116.20264757 9.30283542 116.14431805 12.99263859 115.91091919 17.51934814 C115.31106824 21.31651781 114.14166175 23.3600058 111.49685669 26.14044189 C105.59372468 30.34472118 101.01947795 30.71289116 93.8833313 30.64215088 C92.31617622 30.65025536 92.31617622 30.65025536 90.71736145 30.65852356 C87.27768276 30.67099005 83.83884437 30.65453395 80.39920044 30.63653564 C78.00219173 30.63669067 75.60518277 30.6381802 73.20817566 30.64094543 C68.19060146 30.64232846 63.17331345 30.629786 58.15579224 30.60699463 C51.7274863 30.57859539 45.29965521 30.58135298 38.87131405 30.59408474 C33.92390392 30.60104228 28.97660337 30.59325193 24.02920723 30.58082771 C21.65895572 30.57631506 19.28869243 30.57597478 16.91843987 30.57989311 C13.6057107 30.58280636 10.2936342 30.56629246 6.98098755 30.54449463 C5.51502136 30.5512471 5.51502136 30.5512471 4.0194397 30.55813599 C-2.82713656 30.48335842 -7.07433058 29.29938654 -12.31564331 24.64044189 C-14.95998612 21.61833582 -15.44692291 19.87130714 -15.75314331 15.89044189 C-15.38597863 10.38297164 -14.03840417 6.59893972 -10.00314331 2.76544189 C-6.57147614 0.53485824 -4.00212497 0.01484562 0 0 Z " fill="#009DFD" transform="translate(461.5031433105469,716.8595581054688)"/>
<path d="M0 0 C1.31849442 -0.00960754 2.63698883 -0.01921509 3.99543762 -0.02911377 C5.43274766 -0.03396228 6.87005972 -0.03824098 8.30737305 -0.04199219 C9.78704326 -0.04774855 11.26671347 -0.05350622 12.74638367 -0.05926514 C15.84736477 -0.06975943 18.94832006 -0.07561226 22.04931641 -0.07910156 C26.01028683 -0.08458093 29.9709126 -0.10860337 33.93177509 -0.13707352 C36.98853023 -0.15575749 40.04520332 -0.16090856 43.10201073 -0.16243744 C44.56156484 -0.16545187 46.02111793 -0.17343929 47.48061562 -0.18662262 C63.41593007 -0.32028142 63.41593007 -0.32028142 70.4440918 5.66113281 C73.70645106 9.95711086 73.19465555 15.04756808 72.5065918 20.16113281 C71.18170477 24.05298846 69.78999297 24.97280632 66.35620117 27.25463867 C59.95802254 30.34278054 52.85570498 29.75683034 45.9128418 29.72753906 C44.39643982 29.73278271 42.88004112 29.7390619 41.36364746 29.74632263 C38.19645765 29.75669123 35.02971814 29.75221629 31.86254883 29.73754883 C27.82070415 29.72035468 23.78028035 29.74388073 19.73859406 29.77903843 C16.61052178 29.80108518 13.48278584 29.79955377 10.35466003 29.79127312 C8.86523376 29.79045778 7.37578176 29.79724079 5.88642883 29.81204414 C-9.4949133 29.9415304 -9.4949133 29.9415304 -15.4934082 24.16113281 C-18.25869279 20.27245136 -19.03704028 16.80432681 -18.84887695 12.11816406 C-18.0864272 7.92050112 -15.56541782 5.13264153 -12.4934082 2.34863281 C-8.47754064 -0.03578855 -4.60210084 0.02708305 0 0 Z " fill="#009BF9" transform="translate(260.493408203125,453.8388671875)"/>
<path d="M0 0 C1.29839813 -0.00953201 2.59679626 -0.01906403 3.93453979 -0.02888489 C5.34454373 -0.02862341 6.75454769 -0.02768615 8.16455078 -0.02612305 C9.62037274 -0.03001359 11.07619356 -0.034349 12.53201294 -0.03910828 C15.57997317 -0.04655832 18.62781755 -0.04628838 21.67578125 -0.04101562 C25.56837606 -0.035227 29.46049412 -0.05214276 33.35301018 -0.0753603 C36.35916891 -0.09014341 39.36521409 -0.09096307 42.37140274 -0.08785057 C43.80582751 -0.08836163 45.240259 -0.09355878 46.67464828 -0.10366249 C62.35802776 -0.20057171 62.35802776 -0.20057171 68.85986328 5.2746582 C71.80159513 8.89525124 71.83431895 12.51764054 71.75439453 16.9934082 C71.31740254 20.6920071 70.00023416 22.57063451 67.48486328 25.2746582 C60.16155059 30.12579806 53.11113529 29.86236353 44.54736328 29.8059082 C43.09822327 29.80860803 41.64908504 29.81249452 40.19995117 29.81750488 C37.17397689 29.823377 34.14847735 29.8149119 31.12255859 29.79614258 C27.26245832 29.77335352 23.4034708 29.78648907 19.54341125 29.81043243 C16.55431886 29.82495306 13.56548612 29.82025604 10.5763855 29.80992126 C9.15395981 29.80727121 7.7315098 29.81046255 6.30911255 29.81983948 C-1.68969462 29.86101059 -7.73028561 29.73007145 -14.51513672 25.2746582 C-17.55037612 22.14456757 -17.80657456 19.11553989 -18.07763672 14.8996582 C-17.94159902 9.8594614 -16.74622599 7.23981457 -13.31591797 3.61450195 C-9.10892398 0.48435241 -5.14696933 0.02079698 0 0 Z " fill="#009BF9" transform="translate(709.51513671875,453.725341796875)"/>
<path d="M0 0 C5.01846981 3.07113195 8.14509315 6.4014521 10 12 C10.26069641 14.93916321 10.26069641 14.93916321 10.2746582 18.22387695 C10.28895622 20.07653923 10.28895622 20.07653923 10.30354309 21.96662903 C10.30328158 23.30718006 10.30234415 24.6477311 10.30078125 25.98828125 C10.30467261 27.37444689 10.30900819 28.76061135 10.31376648 30.14677429 C10.32121586 33.04930488 10.32094748 35.95171382 10.31567383 38.85424805 C10.30989114 42.5561837 10.32678678 46.25761708 10.3500185 49.9594698 C10.36482352 52.82241175 10.36561823 55.68523477 10.36250877 58.54820824 C10.36301893 59.91202982 10.36819883 61.2758586 10.37832069 62.63964272 C10.43665969 71.60154848 10.45718097 78.85138283 4.5 86 C0.85838881 88.66082813 -2.90766803 88.75836415 -7.3046875 88.5546875 C-11.61933829 87.66674487 -14.39352226 85.50316688 -17 82 C-18.88521255 78.08641709 -19.26107382 74.91762573 -19.29052734 70.5925293 C-19.30328705 69.31737961 -19.31604675 68.04222992 -19.32919312 66.72843933 C-19.33225128 65.34370069 -19.33447877 63.95896 -19.3359375 62.57421875 C-19.34237091 61.14321257 -19.34909968 59.71220769 -19.35610962 58.28120422 C-19.36806597 55.28452508 -19.37179222 52.28796107 -19.37060547 49.29125977 C-19.37040254 45.46814355 -19.39768364 41.64577289 -19.43214989 37.82283306 C-19.45448829 34.8672401 -19.45844088 31.91182448 -19.45738602 28.95615578 C-19.45973236 27.5476608 -19.46850099 26.13916022 -19.48405075 24.73074913 C-19.56386736 16.75371421 -19.47279069 10.75308697 -15 4 C-10.53118258 -0.15703946 -5.91138678 -1.49529177 0 0 Z " fill="#08A3FC" transform="translate(517,201)"/>
<path d="M0 0 C4.99867846 3.91788312 6.7294741 7.17919697 7.625 13.3359375 C6.54035596 21.93174151 -1.46121374 27.98884111 -7.2890625 33.7421875 C-8.33289025 34.78295309 -9.37612426 35.82431446 -10.41879272 36.86624146 C-12.5946467 39.03751427 -14.77529039 41.20380986 -16.95996094 43.36621094 C-19.76237425 46.14020241 -22.55590664 48.92292848 -25.34636879 51.70893669 C-27.49566419 53.85408214 -29.64777566 55.99638194 -31.80094528 58.13763809 C-32.83246514 59.16345837 -33.86351648 60.18974998 -34.89409256 61.2165184 C-36.32994049 62.6455102 -37.76961399 64.07065499 -39.20947266 65.49560547 C-40.02791656 66.30722137 -40.84636047 67.11883728 -41.68960571 67.95504761 C-45.31699602 71.32745066 -48.35451815 71.14306054 -53.140625 71.1015625 C-56.81405571 70.68463938 -58.94049675 69.21612785 -61.6875 66.8125 C-63.94544919 63.42557622 -64.15970045 61.76414058 -64.375 57.75 C-64.46136719 56.68652344 -64.54773438 55.62304688 -64.63671875 54.52734375 C-63.11816894 48.58437722 -58.93382077 45.05140808 -54.6875 40.8125 C-53.61836149 39.72978037 -52.54944195 38.64684449 -51.48071289 37.5637207 C-47.96716573 34.02048524 -44.42335891 30.50832369 -40.875 27 C-38.46970241 24.62144562 -36.06785782 22.23947864 -33.66796875 19.85546875 C-33.12625534 19.32205368 -32.58454193 18.78863861 -32.02641296 18.23905945 C-29.01423898 15.24634889 -26.30209753 12.16817423 -23.6875 8.8125 C-17.10585656 2.28414922 -9.68772118 -4.28062099 0 0 Z " fill="#009DFC" transform="translate(381.6875,593.1875)"/>
<path d="M0 0 C4.54345571 3.22388062 8.34320001 7.31694005 12.23828125 11.2734375 C13.01107422 12.046875 13.78386719 12.8203125 14.58007812 13.6171875 C18.17440053 17.2388547 21.6722781 20.89666912 25 24.765625 C27.86981617 28.09644751 30.87625075 30.99234695 34.17578125 33.8984375 C50.84875725 48.85252286 50.84875725 48.85252286 51.67578125 57.3984375 C51.56315964 61.71828059 50.08936815 64.19262536 47.30078125 67.5234375 C44.3300242 70.17815657 42.40684329 70.95473647 38.42578125 70.9609375 C37.60335937 70.98027344 36.7809375 70.99960937 35.93359375 71.01953125 C30.42065082 69.9807423 26.37467456 65.84729151 22.52050781 61.98608398 C21.62648254 61.09513535 20.73245728 60.20418671 19.81134033 59.28623962 C18.85451413 58.32251701 17.8978738 57.35860982 16.94140625 56.39453125 C15.94622748 55.3981586 14.95067681 54.40215729 13.95477295 53.4065094 C11.87737555 51.32755438 9.80336131 49.24530321 7.73193359 47.16040039 C5.07845197 44.4898746 2.41837976 41.82603425 -0.24401474 39.16439724 C-2.29634706 37.11179299 -4.34606301 35.05659305 -6.39490509 33.00050545 C-7.37510729 32.01712561 -8.35591232 31.03434626 -9.33733368 30.05218315 C-10.70624905 28.68109778 -12.07147179 27.30632862 -13.43652344 25.93139648 C-14.60184601 24.76035622 -14.60184601 24.76035622 -15.79071045 23.56565857 C-20.11640439 18.93690045 -20.18199602 15.59126819 -20.0859375 9.48046875 C-19.49861263 4.98950988 -18.09702242 3.45790431 -14.69921875 0.5234375 C-10.28861962 -2.82253425 -4.65116096 -2.54433986 0 0 Z " fill="#02A1FC" transform="translate(337.69921875,275.4765625)"/>
<path d="M0 0 C2.69102766 1.79401844 3.95642097 3.01181902 5.625 5.75 C6.51585737 10.58410975 6.64143188 15.54214613 4.55859375 20.06640625 C2.08152626 23.51540213 -0.8996351 26.26247724 -4.1328125 28.9921875 C-8.29684812 32.60442629 -12.02560918 36.5051545 -15.75 40.5625 C-21.78359494 47.05236248 -27.92629649 53.41679638 -34.1875 59.6875 C-35.34354736 60.85019409 -35.34354736 60.85019409 -36.52294922 62.03637695 C-37.24369629 62.755271 -37.96444336 63.47416504 -38.70703125 64.21484375 C-39.34358643 64.850271 -39.9801416 65.48569824 -40.63598633 66.14038086 C-45.1097849 70.28129816 -48.55686032 70.22571753 -54.4140625 70.140625 C-58.8765638 69.55190451 -60.47035253 68.12567139 -63.375 64.75 C-64.27902948 62.03791157 -64.56679124 60.24607251 -64.625 57.4375 C-64.66367187 56.32955078 -64.66367187 56.32955078 -64.703125 55.19921875 C-63.90851469 49.26802039 -60.35846427 45.36963177 -56.2265625 41.30859375 C-55.48495377 40.57335228 -55.48495377 40.57335228 -54.72836304 39.82325745 C-53.15920581 38.27075128 -51.57993751 36.72902618 -50 35.1875 C-48.94722136 34.14979347 -47.89513157 33.11138761 -46.84375 32.07226562 C-44.90214201 30.15501705 -42.95599998 28.2428532 -41.00634766 26.33374023 C-36.89794042 22.29966398 -32.87578179 18.25271285 -29.0625 13.9375 C-12.43271568 -4.60470951 -12.43271568 -4.60470951 0 0 Z " fill="#01A0FC" transform="translate(700.375,276.25)"/>
<path d="M0 0 C3.14030017 1.87149202 5.4773024 4.37586525 8 7 C8.97119206 7.95464532 9.94535019 8.9062791 10.921875 9.85546875 C15.32319278 14.15884152 19.64672277 18.48504464 23.625 23.1875 C26.84251359 26.96189094 30.4510583 30.15081917 34.1640625 33.4296875 C37.5263894 36.47708571 40.7758339 39.62008366 44 42.8125 C44.56412598 43.36381592 45.12825195 43.91513184 45.70947266 44.4831543 C50.55224628 49.31338952 52.28877299 52.09969772 52.375 58.9375 C52.30824611 62.852139 52.18869603 64.6630428 50.25 68.125 C46.7906357 71.00780358 44.09062132 72.28895691 39.5625 72.3125 C38.82128906 72.32925781 38.08007812 72.34601563 37.31640625 72.36328125 C32.4527232 71.60051139 29.06072239 68.3136034 25.67211914 64.94677734 C24.44042747 63.7293837 24.44042747 63.7293837 23.18385315 62.48739624 C22.30978317 61.61241486 21.4357132 60.73743347 20.53515625 59.8359375 C19.62422714 58.92929352 18.71329803 58.02264954 17.77476501 57.08853149 C15.84910976 55.17032058 13.92735205 53.24830396 12.00805664 51.32373047 C9.56793518 48.87783897 7.11669211 46.4434512 4.66208744 44.01210594 C2.30026431 41.66871463 -0.05036155 39.31420547 -2.40234375 36.9609375 C-3.2743895 36.0981015 -4.14643524 35.2352655 -5.04490662 34.34628296 C-18.23444177 21.05707918 -18.23444177 21.05707918 -18.5625 13.8125 C-17.75801558 8.35988338 -16.48238554 5.34120596 -12.375 1.625 C-8.01981944 -0.47193879 -4.7376043 -1.16205389 0 0 Z " fill="#009EFC" transform="translate(654,592)"/>
</svg>
