<?xml version="1.0" encoding="UTF-8"?>
<svg version="1.1" xmlns="http://www.w3.org/2000/svg" width="4267" height="4267">
<path d="M0 0 C16.58656866 -0.05715384 33.17310145 -0.09652699 49.75974727 -0.12211454 C53.6599517 -0.12924726 57.56013663 -0.13953573 61.46033168 -0.15061414 C67.52716062 -0.16713806 73.59391322 -0.17328186 79.6607635 -0.17116773 C81.83472263 -0.17187316 84.00868397 -0.17585528 86.18262935 -0.1836189 C112.63383564 -0.27215045 134.3327252 1.37276609 154.04486537 20.65904772 C155.68071907 22.17555978 157.40769481 23.52865975 159.15570521 24.91368639 C162.86794328 28.07600091 164.74882499 31.4428847 166.67914271 35.87071764 C167.01333217 36.6178905 167.34752162 37.36506335 167.69183803 38.1348778 C178.3678155 62.69994095 179.91295915 89.84053332 181.87836146 116.25353014 C182.07124736 118.75260403 182.2649349 121.25161614 182.45937037 123.75056994 C182.96224878 130.24338159 183.45361434 136.73701329 183.94257045 143.2308861 C184.34233262 148.51386556 184.75040994 153.79618754 185.15889716 159.07849848 C185.65141838 165.44913556 186.14048341 171.82003595 186.62836146 178.19103014 C186.76475819 179.97179635 186.76475819 179.97179635 186.9039104 181.78853762 C189.73150931 218.83453154 189.73150931 218.83453154 189.65179896 232.34337389 C189.65038402 233.29594576 189.64896907 234.24851763 189.64751124 235.22995532 C189.64203224 238.19357848 189.62950577 241.15711837 189.61664271 244.12071764 C189.61161198 246.16303424 189.60705188 248.20535205 189.60297084 250.24767077 C189.59210302 255.18455051 189.57492742 260.12137011 189.55414271 265.05821764 C190.30768031 265.09560046 191.06121791 265.13298327 191.83758998 265.17149889 C200.88775455 265.73134533 209.63392982 267.20235673 218.49164271 269.05821764 C219.22613643 269.210609 219.96063014 269.36300036 220.71738124 269.52000964 C236.29241221 272.77780074 251.43987212 277.06653091 266.55414271 282.05821764 C267.79164271 282.46523913 269.02914271 282.87226061 270.30414271 283.29161608 C298.74002146 292.75800237 326.14305769 304.83060533 353.27093959 317.52403796 C355.65837282 318.63964105 358.04746798 319.75107952 360.43890834 320.85802233 C423.85309394 350.21895301 423.85309394 350.21895301 446.90961146 369.70274889 C449.95399589 372.21201587 452.45011339 372.35415267 456.36517787 372.29503405 C460.04311695 371.89713076 462.99564107 370.45117526 466.24164271 368.74571764 C467.27647792 368.21482531 467.27647792 368.21482531 468.33221889 367.67320788 C475.00968017 364.08806085 480.49619951 359.46806535 486.07220912 354.38683093 C488.33235708 352.36051706 490.69190516 350.46368777 493.05414271 348.55821764 C497.11744752 345.25197691 501.12713581 341.89005336 505.11664271 338.49571764 C509.66698588 334.62579963 514.28247107 330.85861867 518.96429896 327.14806139 C522.01496247 324.6863646 525.00559218 322.16008082 527.99164271 319.62071764 C532.78578024 315.54431115 537.61997806 311.52470393 542.49945521 307.55040514 C546.23568085 304.50218014 549.957777 301.43705241 553.67914271 298.37071764 C554.40109828 297.7762987 555.12305385 297.18187975 555.86688685 296.56944811 C559.5594275 293.52862807 563.24890858 290.48421089 566.93304896 287.43321764 C620.00287488 243.51997416 620.00287488 243.51997416 647.61664271 242.05821764 C648.70485316 241.99191149 649.79306361 241.92560534 650.91425014 241.85728991 C669.06639146 241.23173161 684.53722542 251.22767331 697.55414271 263.05821764 C702.79706432 268.10922616 707.93261888 273.2659504 713.02753139 278.46593249 C713.52972697 278.97737811 714.03192256 279.48882372 714.54933619 280.01576769 C715.92452136 281.41894073 717.29492388 282.82679648 718.66498256 284.23497546 C720.77823192 286.35230245 722.9849693 288.31543563 725.25518394 290.26307547 C729.41183678 293.88715246 733.3348723 297.69889916 737.22664332 301.60373461 C737.95541208 302.33094338 738.68418084 303.05815215 739.4350335 303.80739754 C741.85609658 306.22449854 744.27360116 308.64512618 746.6911056 311.065786 C748.43439344 312.80771767 750.17789369 314.54943678 751.92158961 316.29095995 C756.15327088 320.51856416 760.38261559 324.74849261 764.6108051 328.97958808 C768.04931351 332.42036122 771.48880444 335.86014935 774.92898822 339.29924738 C775.41989754 339.79000347 775.91080686 340.28075956 776.41659222 340.78638704 C777.41408361 341.78355868 778.41157722 342.78072808 779.40907305 343.77789528 C788.74736905 353.11334444 798.08260587 362.45184785 807.41678774 371.79141033 C815.4140446 379.79313451 823.41391957 387.79223332 831.41571498 395.78941882 C840.72343252 405.09177654 850.029515 414.395765 859.33301991 423.70233601 C860.32638218 424.69601681 861.31974653 425.68969552 862.31311297 426.68337214 C863.04611309 427.41660366 863.04611309 427.41660366 863.79392128 428.16464795 C867.22625312 431.59784072 870.65973881 435.0298769 874.09368014 438.46145976 C878.72125183 443.0859228 883.34614592 447.71305191 887.96927905 452.34195292 C889.66349832 454.03749121 891.35856315 455.7321851 893.05454707 457.42595828 C895.3749003 459.74356623 897.69213116 462.06425316 900.00862575 464.38571703 C900.67536769 465.05022826 901.34210964 465.71473949 902.02905589 466.39938742 C920.48783139 484.9346846 933.81676341 502.71968107 934.80414271 529.80821764 C934.49783302 549.84087191 922.03098972 565.33671755 909.01898646 579.35118639 C905.83206888 582.8512401 902.86614221 586.50457592 899.89398646 590.18712389 C897.36680635 593.28808781 894.77788267 596.32987219 892.17914271 599.37071764 C887.95464338 604.32940177 883.89592256 609.39529671 879.89716029 614.53697741 C875.54751981 620.11137093 871.05266767 625.56092299 866.54633021 631.00890124 C862.78258565 635.56057573 859.06355383 640.14336304 855.38617396 644.76524889 C850.74225647 650.57757207 846.00125725 656.31185329 841.25726771 662.04259264 C834.36393585 670.37627958 827.56732823 678.7690094 820.92474818 687.30382311 C819.44512295 689.19776449 817.95574679 691.08373041 816.46429896 692.96837389 C815.95665004 693.61072985 815.44900111 694.25308581 814.92596889 694.9149071 C813.94946659 696.15006862 812.97181749 697.3843246 811.99286342 698.61754382 C807.80766393 703.92230157 806.77739536 707.29076476 807.55414271 714.05821764 C808.19656166 716.68532125 808.88120336 719.24852712 809.65570521 721.83556139 C809.87744411 722.5801964 810.099183 723.32483141 810.32764125 724.09203112 C812.83388026 732.28193527 816.02205987 740.15482784 819.30414271 748.05821764 C819.96411999 749.66648512 820.62336054 751.27505509 821.28192592 752.88390124 C824.69185034 761.19820141 828.14951456 769.49257117 831.61273646 777.78478014 C906.55414271 957.28415503 906.55414271 957.28415503 906.55414271 982.05821764 C907.19407381 982.04599012 907.83400491 982.03376259 908.49332786 982.02116454 C915.99791393 981.94195666 923.36887762 982.43624225 930.8395431 983.11217272 C932.12277461 983.22439669 933.40600612 983.33662066 934.72812343 983.45224535 C938.22383332 983.75807148 941.71899685 984.06976953 945.21408844 984.38257205 C948.91741978 984.71296518 952.62123688 985.03782354 956.32500148 985.36331713 C963.36412627 985.98275915 970.40280963 986.60707693 977.44134444 987.23318321 C985.31917065 987.93372023 993.1974629 988.62894013 1001.0758065 989.32363057 C1010.05712001 990.11564892 1019.03840175 990.90803247 1028.019319 991.70453316 C1029.40100541 991.82706781 1030.78270053 991.94950433 1032.16440445 992.07184142 C1035.54656437 992.37148836 1038.92853406 992.67303652 1042.31017089 992.97853339 C1048.64969436 993.54919514 1054.98934214 994.09970421 1061.33577591 994.58845347 C1064.38126855 994.82412796 1067.42590139 995.07003637 1070.47053111 995.31657887 C1071.90552677 995.42995244 1073.3409144 995.53850062 1074.77669227 995.64149594 C1101.25898408 997.54533602 1122.89996733 1007.96799534 1140.55414271 1028.05821764 C1156.82376772 1049.18804843 1153.70820161 1079.38852893 1153.8574152 1104.43843162 C1153.87536159 1107.33497384 1153.89652664 1110.23148932 1153.91766542 1113.12800974 C1153.98683966 1122.61504652 1154.0454001 1132.10213562 1154.10183597 1141.58925545 C1154.1215868 1144.88262344 1154.1420161 1148.17598708 1154.16243351 1151.46935099 C1154.31096628 1175.47194214 1154.43451294 1199.47462104 1154.54248595 1223.47742712 C1154.55408722 1226.0459305 1154.56586966 1228.614433 1154.57769465 1231.18293536 C1154.66733584 1250.72582034 1154.74252617 1270.26864998 1154.77714705 1289.81171763 C1154.77986539 1291.34448652 1154.78258748 1292.87725541 1154.78531337 1294.41002429 C1154.78730641 1295.53983342 1154.78730641 1295.53983342 1154.78933972 1296.69246697 C1154.79935571 1301.96879268 1154.81698397 1307.24505952 1154.83786464 1312.52135241 C1154.86310903 1318.94152923 1154.87749776 1325.36161981 1154.87798136 1331.78184813 C1154.87846308 1335.04024943 1154.88510926 1338.29841706 1154.90174365 1341.55678141 C1155.01260975 1364.47886067 1153.52313187 1382.08061365 1136.63617396 1399.23399889 C1121.83511901 1413.35509597 1100.78246253 1420.50083375 1080.92596889 1423.55211413 C1080.11294149 1423.67830095 1079.2999141 1423.80448777 1078.46224952 1423.93449843 C1068.25720614 1425.46732656 1057.99776959 1426.46395381 1047.72992396 1427.46837389 C1045.56926353 1427.68318422 1043.40863494 1427.89831501 1041.24803615 1428.11374438 C1036.74128895 1428.56181581 1032.23417375 1429.00592042 1027.72675014 1429.44713366 C1022.05063341 1430.0030753 1016.37558639 1430.56919543 1010.70075107 1431.13804781 C947.03032117 1437.50955518 947.03032117 1437.50955518 915.55414271 1437.18321764 C913.77289806 1437.17311175 911.9916475 1437.16400006 910.21039271 1437.15587389 C905.99148619 1437.13458905 901.77288841 1437.10053531 897.55414271 1437.05821764 C897.5167599 1437.90714587 897.47937709 1438.75607409 897.44086146 1439.63072741 C896.95140026 1448.36844961 895.62888455 1456.48542867 893.55414271 1464.99571764 C893.32505717 1465.95073168 893.32505717 1465.95073168 893.09134364 1466.92503893 C882.0822717 1512.76852285 865.61790292 1556.43953548 845.55414271 1599.05821764 C845.09604213 1600.04145007 844.63794154 1601.02468249 844.16595912 1602.03770983 C832.42510683 1627.21708371 819.31653594 1651.54082758 804.97992396 1675.32774889 C796.99835733 1687.74247638 796.99835733 1687.74247638 795.55414271 1702.05821764 C799.21631072 1715.36115322 808.76275383 1726.08034215 817.12836146 1736.69493639 C819.88692588 1740.19535032 822.58376499 1743.7308579 825.24164271 1747.30821764 C838.01202138 1764.42146405 851.7002921 1780.81712159 865.55414271 1797.05821764 C866.04656459 1797.63700671 866.53898646 1798.21579577 867.04633021 1798.81212389 C872.79722191 1805.57015145 878.59505373 1812.2709998 884.55414271 1818.84728014 C888.54610696 1823.26027187 892.44393144 1827.75244854 896.30414271 1832.28087389 C896.80164027 1832.86393298 897.29913783 1833.44699206 897.81171107 1834.0477196 C898.85259643 1835.26805104 899.8924652 1836.48925029 900.93133998 1837.71129382 C904.12432469 1841.44948303 907.41935371 1845.05338994 910.80414271 1848.62071764 C918.64414942 1857.20439058 924.33604821 1866.87957357 927.55414271 1878.05821764 C927.77843959 1878.78524889 928.00273646 1879.51228014 928.23383021 1880.26134264 C931.66471203 1893.70287961 931.01336231 1908.7703619 924.55414271 1921.05821764 C924.09652553 1921.93606921 923.63890834 1922.81392077 923.16742396 1923.71837389 C915.19534034 1937.84971117 903.17332576 1949.61317777 891.73383021 1960.94103014 C890.83093257 1961.84014117 889.92803493 1962.73925219 888.99777675 1963.665609 C886.14400875 1966.50728175 883.28710797 1969.34576814 880.42914271 1972.18321764 C876.65260529 1975.93271846 872.87979068 1979.68591812 869.10883021 1983.44103014 C867.82732585 1984.710087 867.82732585 1984.710087 866.51993251 1986.00478137 C861.64995266 1990.85493285 857.00049962 1995.81719775 852.55414271 2001.05821764 C851.56602263 2002.21330345 850.57774299 2003.36825279 849.58929896 2004.52306139 C848.90969458 2005.31874183 848.90969458 2005.31874183 848.21636081 2006.13049662 C832.9575359 2023.92180693 816.34142727 2040.40217751 799.74823141 2056.93259132 C796.69980865 2059.97086988 793.65476723 2063.01253337 790.60945582 2066.05392992 C782.90652562 2073.74587515 775.19930393 2081.43351356 767.49164271 2089.12071764 C759.1338386 2097.45640413 750.77683933 2105.79288952 742.42469484 2114.13424736 C738.81779366 2117.73620009 735.20847852 2121.33571013 731.59721911 2124.9332931 C729.3511454 2127.1718678 727.10718127 2129.41254825 724.86376262 2131.65378344 C723.83070652 2132.68498067 722.79679305 2133.71531987 721.76191974 2134.7446934 C716.67200013 2139.80842705 711.6764515 2144.89215649 707.01829314 2150.35891402 C693.92728637 2165.5524316 677.85011144 2178.55187887 657.11664271 2180.25890124 C632.87707387 2181.65496652 614.19345003 2173.06247332 595.55414271 2158.05821764 C594.65308803 2157.34923327 593.75203334 2156.64024889 592.82367396 2155.90978014 C585.4017964 2149.976562 578.47846953 2143.55433457 571.55414271 2137.05821764 C554.89234209 2121.34312613 554.89234209 2121.34312613 537.49164271 2106.46446764 C534.19060968 2103.76042995 530.96649058 2100.97710533 527.74164271 2098.18321764 C522.52483821 2093.67461222 517.18782716 2089.36399802 511.74115443 2085.13731921 C507.14022601 2081.55408984 502.67454517 2077.83311985 498.24188685 2074.04454577 C494.84489115 2071.14217755 491.40642065 2068.30220154 487.92914271 2065.49571764 C483.22702516 2061.67269163 478.76603714 2057.63374495 474.30804896 2053.53087389 C470.72798667 2050.31643499 467.00121616 2047.30798501 463.25336146 2044.29259264 C460.51646259 2042.02702657 457.9108898 2039.65922629 455.30414271 2037.24571764 C449.30767413 2031.50679343 449.30767413 2031.50679343 441.65179896 2028.87462389 C431.49463205 2029.46097804 421.29316098 2033.99663828 412.34320521 2038.57774889 C411.32475268 2039.09279482 411.32475268 2039.09279482 410.28572536 2039.61824572 C403.86399482 2042.87559227 397.47302738 2046.19330293 391.07880092 2049.50420153 C370.83113432 2059.98365878 350.54043579 2070.13711925 329.55414271 2079.05821764 C328.92475795 2079.32618151 328.29537318 2079.59414538 327.64691615 2079.87022936 C306.55626787 2088.82762698 285.12539458 2096.79292695 263.50537562 2104.37267077 C261.71345647 2105.00224429 259.92349503 2105.63738273 258.13373256 2106.27306139 C241.20920514 2112.26744262 223.99038649 2116.82353127 206.55414271 2121.05821764 C204.73535609 2121.50173571 204.73535609 2121.50173571 202.87982631 2121.95421374 C201.72434291 2122.22958972 200.56885951 2122.50496569 199.37836146 2122.78868639 C198.35186488 2123.03384997 197.3253683 2123.27901354 196.26776576 2123.53160632 C193.55414271 2124.05821764 193.55414271 2124.05821764 189.55414271 2124.05821764 C189.57081996 2124.94678454 189.58749721 2125.83535143 189.60467982 2126.7508446 C189.74802653 2141.27694095 188.93646666 2155.74757261 188.11664271 2170.24571764 C188.07624873 2170.96642821 188.03585475 2171.68713877 187.99423671 2172.42968905 C186.19217032 2204.51071668 183.88758208 2236.55869258 181.50026053 2268.60066873 C181.15277959 2273.27185339 180.81261639 2277.94352453 180.47507167 2282.6154381 C180.01286436 2289.00023384 179.5352143 2295.38370043 179.04608798 2301.76648867 C178.86640291 2304.13961927 178.69155552 2306.51312198 178.52196002 2308.88699496 C176.38530878 2338.64728382 167.87558965 2359.75414095 145.55414271 2380.05821764 C131.87803988 2391.53815798 117.56514346 2392.1999771 100.46014857 2392.26353991 C98.81731948 2392.27312687 97.17449274 2392.2831238 95.53166842 2392.29349577 C91.05217961 2392.32053133 86.57268026 2392.34155506 82.09315491 2392.36147749 C77.31389202 2392.38372479 72.53466008 2392.41140879 67.7554214 2392.43828356 C56.39840402 2392.50087143 45.04135081 2392.55416654 33.68428016 2392.60603535 C29.44057844 2392.62555128 25.19687965 2392.6456641 20.95318079 2392.66579121 C-2.31088483 2392.77605433 -25.57497756 2392.87721049 -48.8391149 2392.97105312 C-63.22584879 2393.02929258 -77.6124761 2393.09894213 -91.99910557 2393.1787107 C-104.06888604 2393.24537491 -116.13863842 2393.29797567 -128.20855355 2393.33303511 C-134.46981226 2393.35140829 -140.73087787 2393.37597027 -146.99203038 2393.41737902 C-152.74386735 2393.45507877 -158.49544293 2393.47377819 -164.24739957 2393.47723162 C-166.29074783 2393.48163013 -168.33409645 2393.49269806 -170.37736249 2393.51154864 C-193.21552603 2393.71396295 -210.35388659 2388.58699855 -228.44585729 2374.05821764 C-229.26183385 2373.46653796 -230.07781041 2372.87485827 -230.91851354 2372.26524889 C-244.87220836 2361.42301261 -249.21990748 2340.64846991 -252.63335729 2324.18321764 C-252.86587193 2323.07188464 -252.86587193 2323.07188464 -253.10308385 2321.93810046 C-256.54874969 2304.18428842 -257.09700884 2286.05418917 -258.02117467 2268.03978503 C-258.43037332 2260.06856548 -258.85747995 2252.09832409 -259.29351354 2244.12853014 C-259.3383928 2243.30742251 -259.38327207 2242.48631487 -259.42951131 2241.64032519 C-260.11497528 2229.18527382 -260.92124522 2216.74202741 -261.81695104 2204.30040514 C-261.87447356 2203.49755965 -261.93199609 2202.69471415 -261.99126172 2201.86754 C-262.54666168 2194.12363549 -263.11209578 2186.38064741 -263.7055285 2178.63956034 C-265.09509776 2160.40868667 -265.76554201 2142.34691611 -265.44585729 2124.05821764 C-266.29501714 2123.93446261 -267.14417699 2123.81070757 -268.01906896 2123.68320239 C-274.13619396 2122.77091304 -280.1444966 2121.79381111 -286.14116979 2120.28087389 C-286.80412053 2120.11410647 -287.46707128 2119.94733904 -288.15011144 2119.77551806 C-290.29263296 2119.23237271 -292.43197464 2118.6780103 -294.57085729 2118.12071764 C-295.32097081 2117.9266936 -296.07108434 2117.73266955 -296.84392858 2117.53276598 C-363.49046618 2100.22481654 -426.26746553 2072.6858955 -487.93023229 2042.41759264 C-489.06463246 2041.8620772 -489.06463246 2041.8620772 -490.22194982 2041.29533923 C-493.79986928 2039.54301373 -497.37386267 2037.78362047 -500.94048619 2036.00841296 C-513.14510406 2029.63840761 -513.14510406 2029.63840761 -526.44585729 2030.05821764 C-529.69787442 2032.11052059 -532.5548325 2034.52976362 -535.44585729 2037.05821764 C-536.20640416 2037.72079577 -536.96695104 2038.38337389 -537.75054479 2039.06603014 C-543.39345057 2044.07989069 -548.89163629 2049.25408812 -554.41338658 2054.4005028 C-557.97507953 2057.71399923 -561.58305472 2060.95469167 -565.27007604 2064.12853014 C-567.69756767 2066.28145809 -570.0611066 2068.49510571 -572.42705846 2070.71520007 C-578.05861769 2075.99839995 -583.77035995 2081.05236546 -589.80132604 2085.88243639 C-592.60424976 2088.18853465 -595.27589004 2090.59973295 -597.94585729 2093.05821764 C-601.50255973 2096.33240188 -605.11747539 2099.46464198 -608.88335729 2102.49571764 C-613.41902172 2106.15392779 -617.70286898 2110.0056473 -621.9651444 2113.972036 C-626.05246734 2117.75312323 -630.32628972 2121.25511731 -634.66460729 2124.74571764 C-637.68604917 2127.25792775 -640.57027501 2129.88222591 -643.44585729 2132.55821764 C-648.03692286 2136.83062314 -652.78685784 2140.82236974 -657.67632604 2144.75353014 C-660.63433866 2147.21506392 -663.45051372 2149.80452936 -666.25835729 2152.43321764 C-682.84625591 2167.84263756 -700.35012539 2180.66328035 -723.44585729 2183.05821764 C-724.65435338 2183.19356921 -724.65435338 2183.19356921 -725.88726354 2183.33165514 C-740.60936357 2184.03658074 -754.0286812 2176.0347367 -764.63335729 2166.55821764 C-766.2375569 2165.05825288 -767.84172521 2163.55825463 -769.44585729 2162.05821764 C-770.85816433 2160.84479163 -772.2745405 2159.63607777 -773.69585729 2158.43321764 C-776.73509289 2155.79516114 -779.27454127 2152.98232078 -781.82598424 2149.88023913 C-783.39497014 2148.11545514 -785.00598304 2146.65971628 -786.81695104 2145.14806139 C-792.40032215 2140.32275255 -797.56763629 2135.08597783 -802.77324986 2129.86119616 C-804.50480429 2128.12428164 -806.24164088 2126.39277875 -807.97906041 2124.66173327 C-813.12689268 2119.51675991 -818.18181192 2114.36176382 -822.90899205 2108.82213366 C-825.59300874 2105.74159028 -828.48572068 2102.87379765 -831.38335729 2099.99571764 C-831.95247838 2099.42272936 -832.52159947 2098.84974108 -833.10796666 2098.25938952 C-836.01568232 2095.35820072 -838.97571103 2092.57387187 -842.09978795 2089.90648425 C-846.79848643 2085.81080135 -851.18867983 2081.44107823 -855.58062291 2077.02110827 C-856.4565157 2076.14375521 -857.33240849 2075.26640215 -858.23484349 2074.36246264 C-860.12435953 2072.46915973 -862.01295177 2070.57498795 -863.90000463 2068.6792351 C-866.89088213 2065.67471241 -869.88568008 2062.67411746 -872.88103795 2059.67406237 C-879.77835998 2052.76475312 -886.67063411 2045.85041568 -893.56285405 2038.93601763 C-899.88532199 2032.59330996 -906.20888027 2026.25169929 -912.53651309 2019.91414368 C-915.50706404 2016.93864488 -918.47516799 2013.96073395 -921.44134831 2010.98087847 C-923.72925346 2008.68368954 -926.02045041 2006.38978716 -928.31109166 2004.09532702 C-929.1206783 2003.28057406 -929.93026494 2002.4658211 -930.76438451 2001.62637866 C-934.93610682 1997.45427197 -939.19184125 1993.45956736 -943.66299558 1989.61034167 C-946.08111884 1987.50517155 -948.36878924 1985.28470336 -950.64922643 1983.03185046 C-951.58702443 1982.10688769 -952.52482244 1981.18192492 -953.49103856 1980.22893298 C-954.48804923 1979.24009133 -955.48469865 1978.25088533 -956.48101354 1977.26134264 C-956.9945029 1976.75192881 -957.50799226 1976.24251498 -958.0370419 1975.71766436 C-960.75184443 1973.02356595 -963.46346855 1970.32631336 -966.17266393 1967.62657702 C-968.94326045 1964.86704786 -971.72534722 1962.11941084 -974.51016641 1959.37424624 C-976.67643376 1957.23432879 -978.8335724 1955.08537626 -980.98848844 1952.93403399 C-982.009195 1951.91814125 -983.03322393 1950.90557353 -984.06086469 1949.89669573 C-998.52151921 1935.68394241 -1008.1761248 1917.78467897 -1009.64507604 1897.27696764 C-1007.84991372 1866.50275649 -981.41410225 1840.59875145 -961.80083776 1819.5176903 C-955.93225033 1813.19653433 -950.31085938 1806.73726807 -944.88726354 1800.03087389 C-942.16865996 1796.72070218 -939.37497234 1793.48330178 -936.57085729 1790.24571764 C-932.1175892 1785.08848685 -927.83725816 1779.82695663 -923.65899205 1774.44518054 C-920.17788503 1769.96610238 -916.60644838 1765.5686407 -913.00835729 1761.18321764 C-908.16068961 1755.26138743 -903.52395731 1749.21479837 -898.97002721 1743.06529772 C-895.37276533 1738.23208691 -891.63780342 1733.53189298 -887.82085729 1728.87071764 C-887.01430699 1727.87999255 -887.01430699 1727.87999255 -886.19146276 1726.8692528 C-881.98925383 1721.70821921 -881.98925383 1721.70821921 -879.88531041 1719.19151843 C-878.43149394 1717.45096145 -876.99969642 1715.69429133 -875.57085729 1713.93321764 C-874.74843541 1712.94063952 -873.92601354 1711.94806139 -873.07866979 1710.92540514 C-871.2055696 1708.19678948 -871.2055696 1708.19678948 -871.47710729 1705.21837389 C-872.69929539 1701.23147804 -874.16104898 1697.44492521 -875.82085729 1693.62071764 C-876.20169469 1692.7358568 -876.58253209 1691.85099597 -876.97491002 1690.93932116 C-881.19930035 1681.3198691 -885.87180605 1671.92103013 -890.50835729 1662.49571764 C-898.99725481 1645.23864969 -906.97449269 1627.80555404 -914.64947057 1610.17296374 C-916.30068434 1606.38250956 -917.97817613 1602.604408 -919.66070104 1598.82774889 C-977.44585729 1468.38411866 -977.44585729 1468.38411866 -977.44585729 1441.05821764 C-977.99727391 1441.01203295 -978.54869054 1440.96584826 -979.11681676 1440.91826403 C-990.60518304 1439.95058433 -1002.08391809 1438.91432255 -1013.55523229 1437.76134264 C-1037.45868636 1435.37505665 -1061.35454038 1433.14572138 -1085.31695104 1431.43712389 C-1086.70646285 1431.33792336 -1086.70646285 1431.33792336 -1088.12404561 1431.23671877 C-1097.32465894 1430.58186493 -1106.52623456 1429.94286132 -1115.72959542 1429.32781947 C-1161.27934207 1426.27585208 -1161.27934207 1426.27585208 -1176.88335729 1421.30821764 C-1177.70553746 1421.0529027 -1178.52771764 1420.79758776 -1179.37481236 1420.534536 C-1186.59172915 1418.1943919 -1193.03099706 1415.14872053 -1199.44585729 1411.05821764 C-1200.2154276 1410.59544421 -1200.98499791 1410.13267077 -1201.77788854 1409.65587389 C-1215.60364637 1400.26432308 -1224.84751314 1383.80673889 -1228.00382841 1367.76779187 C-1228.67083476 1363.67913767 -1228.79567165 1359.65202991 -1228.84879613 1355.51592028 C-1228.86733132 1354.6206829 -1228.88586651 1353.72544551 -1228.90496337 1352.80307972 C-1228.96298594 1349.86314889 -1229.00745232 1346.92319938 -1229.0510819 1343.98302233 C-1229.08834627 1341.88478253 -1229.12604134 1339.78655033 -1229.16414094 1337.68832552 C-1229.54074081 1315.96234475 -1229.66478212 1294.23432422 -1229.74918032 1272.50557959 C-1229.77175194 1266.90850916 -1229.79880415 1261.3114599 -1229.82523656 1255.71440661 C-1229.86892776 1246.33634456 -1229.90978936 1236.958274 -1229.94854283 1227.5801903 C-1229.99769235 1215.68855758 -1230.0513473 1203.7969498 -1230.10651803 1191.90534365 C-1230.15485425 1181.48494804 -1230.20140382 1171.06454454 -1230.24752998 1160.64413893 C-1230.2572488 1158.45394359 -1230.26702415 1156.2637485 -1230.27685976 1154.07355368 C-1230.29105463 1150.91229397 -1230.30509564 1147.75103364 -1230.31904149 1144.58977282 C-1230.32357313 1143.56731408 -1230.32810478 1142.54485534 -1230.33277375 1141.491413 C-1230.35439487 1136.48249371 -1230.37328218 1131.47358821 -1230.38650918 1126.46463931 C-1230.39171968 1124.51963576 -1230.3969454 1122.57463225 -1230.40218663 1120.62962878 C-1230.40468315 1119.67685101 -1230.40717966 1118.72407324 -1230.40975183 1117.74242342 C-1230.42815228 1111.84451467 -1230.47173354 1105.94733045 -1230.53301102 1100.04971588 C-1230.57158953 1096.14197313 -1230.59809472 1092.23419715 -1230.62276757 1088.32634461 C-1230.63716321 1086.50947758 -1230.65690288 1084.69264273 -1230.68273389 1082.8759023 C-1231.01338996 1059.29303005 -1226.43806843 1039.15984359 -1210.03179479 1021.45274889 C-1193.32268407 1005.64168485 -1171.78147795 998.51791892 -1149.41143346 995.62730944 C-1148.4249617 995.49972845 -1147.43848994 995.37214745 -1146.4221251 995.24070036 C-1133.19755408 993.58747965 -1119.91897838 992.47397628 -1106.64276075 991.33088672 C-1103.6427568 991.07194057 -1100.64304078 990.80973816 -1097.64331812 990.5475567 C-1090.56590996 989.92898271 -1083.48809452 989.31524882 -1076.40996861 988.70494616 C-1069.14909761 988.07882015 -1061.88889842 987.44530522 -1054.62899357 986.80808204 C-1048.3416755 986.25643191 -1042.05401184 985.70885748 -1035.76604933 985.1646021 C-1032.03339176 984.84151349 -1028.30086648 984.51707014 -1024.5686543 984.18887293 C-1020.41664973 983.82401995 -1016.26395271 983.4677151 -1012.11114049 983.11217272 C-1010.90001592 983.004677 -1009.68889134 982.89718127 -1008.44106603 982.78642809 C-1001.08972133 982.16567835 -993.82256134 981.9307662 -986.44585729 982.05821764 C-986.29111943 981.43068591 -986.13638158 980.80315417 -985.9769547 980.15660632 C-983.40234262 969.90469289 -979.67655094 960.00429473 -976.13335729 950.05821764 C-975.76715276 949.0276726 -975.40094823 947.99712756 -975.02364659 946.93535388 C-953.65757966 886.86989893 -930.95493042 827.25134103 -905.21987462 768.90916979 C-904.9231989 768.23648058 -904.62652318 767.56379138 -904.32085729 766.87071764 C-904.02861272 766.2081798 -903.73636815 765.54564196 -903.43526769 764.86302722 C-899.18445349 755.2095233 -895.12303689 745.49783094 -891.25835729 735.68321764 C-890.81282506 734.55504626 -890.36729283 733.42687487 -889.90825963 732.26451647 C-884.56302236 720.46372672 -884.56302236 720.46372672 -884.44585729 708.05821764 C-889.12950351 699.71845983 -895.27518833 692.32545136 -901.44585729 685.05821764 C-902.34577093 683.9945628 -903.24550441 682.93075551 -904.14507604 681.86681139 C-905.54844321 680.20819713 -906.95259801 678.55028224 -908.35918736 676.89439929 C-912.00466094 672.59883428 -915.57359333 668.24470305 -919.12945104 663.87462389 C-921.72373151 660.72036383 -924.36199746 657.60625569 -927.00835729 654.49571764 C-930.91693892 649.89778231 -934.73818102 645.24365881 -938.48882604 640.51524889 C-942.09289789 635.99037625 -945.77624623 631.52996399 -949.44585729 627.05821764 C-952.44918805 623.39426514 -955.4489021 619.72738708 -958.44585729 616.05821764 C-959.18110631 615.15861315 -959.18110631 615.15861315 -959.93120885 614.24083483 C-966.11882049 606.66549021 -972.26915019 599.06708287 -978.27691197 591.34801257 C-980.70844718 588.23376354 -983.17738438 585.15878723 -985.70366979 582.12071764 C-1001.80600985 562.73385555 -1014.2545949 543.44450757 -1012.44585729 517.05821764 C-1012.4110526 516.30540514 -1012.37624791 515.55259264 -1012.34038854 514.77696764 C-1010.68096439 501.88636849 -997.8617329 489.38556952 -989.44585729 480.05821764 C-988.87754186 479.42818835 -988.30922643 478.79815905 -987.72368932 478.14903796 C-976.23350686 465.48714904 -976.23350686 465.48714904 -969.63726354 459.98790514 C-961.32795556 452.67097441 -953.54944149 444.54262815 -946.44585729 436.05821764 C-939.26150297 427.53630475 -931.91868732 419.21632253 -924.26456571 411.11250079 C-921.82347191 408.52450469 -919.39051343 405.92938091 -916.96712995 403.32479632 C-908.49797094 394.23024721 -899.87000642 385.31888799 -891.09771276 376.51720202 C-889.7371369 375.14869163 -888.37672963 373.7800136 -887.01647496 372.41118395 C-882.61892975 367.9878566 -878.21633005 363.56957992 -873.81304479 359.15196764 C-872.2831673 357.61671679 -870.75329188 356.08146389 -869.22341847 354.54620898 C-862.85986381 348.16111119 -856.49490679 341.77741681 -850.12624478 335.3974129 C-841.05883278 326.31373028 -832.00006797 317.22161312 -822.95294964 308.11771691 C-816.55195907 301.67794549 -810.1413361 295.24786326 -803.72356641 288.82481396 C-799.90589533 285.00350759 -796.09243726 281.1782174 -792.2892983 277.34244311 C-788.71651297 273.73942446 -785.1318465 270.14865333 -781.53805852 266.56658709 C-780.22971753 265.25846539 -778.92556895 263.94613339 -777.62621236 262.62908709 C-764.3824413 249.2150175 -750.29568364 238.98267961 -730.67632604 237.89415514 C-706.06233067 239.14420086 -685.4417114 254.72349645 -667.44585729 270.05821764 C-666.52909215 270.83648913 -666.52909215 270.83648913 -665.59380651 271.63048327 C-662.09201754 274.60742944 -658.60823483 277.60474551 -655.12945104 280.60851061 C-647.59119472 287.09954397 -639.96415303 293.47676727 -632.24663854 299.75353014 C-629.72915054 301.82510325 -627.24178858 303.92581066 -624.76250768 306.04259264 C-618.04959091 311.77266516 -611.17993717 317.26732089 -604.21197057 322.68321764 C-601.28177822 324.96450647 -598.36449535 327.2621789 -595.44585729 329.55821764 C-594.27403313 330.47885528 -593.10215817 331.39942826 -591.93023229 332.31993639 C-589.64803202 334.11300288 -587.36683672 335.90733564 -585.08648229 337.70274889 C-583.95627651 338.59207507 -582.82606816 339.48139796 -581.69585729 340.37071764 C-581.13157018 340.81528307 -580.56728307 341.2598485 -579.98589635 341.71788561 C-576.64342264 344.34676624 -573.28606352 346.95486899 -569.91460729 349.54649889 C-562.53354063 355.23012676 -555.24051745 360.85674722 -548.48882604 367.28868639 C-545.29181613 370.05779822 -542.80564044 371.88045623 -538.54741979 372.43712389 C-534.7468409 371.97282144 -532.22042813 370.77088158 -528.82085729 368.99571764 C-527.82179357 368.47920641 -527.82179357 368.47920641 -526.80254674 367.95226061 C-524.34122833 366.67084839 -521.89319682 365.36613431 -519.44585729 364.05821764 C-518.39865514 363.50053698 -517.35145299 362.94285632 -516.27251744 362.36827624 C-510.25766656 359.16189606 -504.24994333 355.9424078 -498.24663854 352.71446764 C-489.67470116 348.10576449 -481.10009382 343.51102595 -472.44585729 339.05821764 C-471.87989842 338.76686938 -471.31393956 338.47552111 -470.73083043 338.17534411 C-430.79721126 317.64426228 -389.71295072 300.38945252 -347.57085729 284.93321764 C-346.70467778 284.61498034 -345.83849828 284.29674304 -344.94607091 283.96886218 C-330.74449832 278.76345361 -316.61058902 274.13803064 -301.82476354 270.87560046 C-299.8143261 270.43177582 -297.80580023 269.98000047 -295.79741979 269.52696764 C-275.86927641 265.05821764 -275.86927641 265.05821764 -269.44585729 265.05821764 C-269.46260109 264.14470742 -269.46260109 264.14470742 -269.47968316 263.21274245 C-269.5628088 254.8158471 -269.04718929 246.47964029 -268.48369908 238.10728991 C-268.37989996 236.52552205 -268.27640313 234.94373432 -268.17318273 233.36192858 C-267.89340796 229.08994021 -267.60900922 224.8182719 -267.32343197 220.54666793 C-267.0836965 216.95506477 -266.84612955 213.36331938 -266.60850579 209.77157599 C-266.04604158 201.27111099 -265.47968297 192.77091151 -264.91094518 184.27086413 C-264.32936259 175.57774977 -263.75455676 166.88420645 -263.183155 158.19041747 C-262.68873377 150.67192103 -262.18980124 143.1537325 -261.68748528 135.63575941 C-261.38919437 131.17059132 -261.09247533 126.70533504 -260.80020261 122.23976862 C-259.72693449 105.86790851 -258.61605792 89.51286889 -256.89043736 73.19469225 C-256.77297752 72.07877231 -256.65551768 70.96285237 -256.53449845 69.81311667 C-254.60719097 52.54153486 -249.80497796 39.94273308 -237.57085729 27.37071764 C-236.90183385 26.66366686 -236.23281041 25.95661608 -235.54351354 25.22813952 C-229.00665785 18.39529903 -222.52611446 12.06266452 -214.00835729 7.80821764 C-213.42376744 7.48337389 -212.8391776 7.15853014 -212.23687291 6.82384264 C-200.44305501 0.84862949 -185.67764861 0.609526 -172.77056432 0.6258446 C-171.2805362 0.61679077 -169.7905154 0.60646177 -168.30050397 0.59498656 C-164.2777759 0.56764052 -160.25518903 0.55817747 -156.23238015 0.55214465 C-151.9125151 0.54249985 -147.59274764 0.51598408 -143.27294469 0.49168932 C-134.92321395 0.44742292 -126.57350317 0.41876576 -118.22368884 0.39602637 C-111.48719068 0.37736198 -104.75073934 0.3526308 -98.0142777 0.32369006 C-97.05702641 0.31958351 -96.09977512 0.31547696 -95.11351621 0.31124598 C-93.17558006 0.30291205 -91.23764395 0.29456833 -89.29970789 0.28621483 C-70.86284752 0.207572 -52.42596794 0.14953285 -33.98900342 0.10204375 C-32.11174701 0.09720559 -30.23449062 0.09236255 -28.35723424 0.08751452 C-27.43964279 0.0851453 -26.52205133 0.08277609 -25.57665408 0.08033508 C-17.05108711 0.0579308 -8.52554513 0.02943249 0 0 Z M-107.44585729 589.05821764 C-108.86575337 589.22640429 -110.28567574 589.39436915 -111.70562291 589.56212389 C-184.84923722 598.34038744 -257.61979662 621.27612311 -321.80767369 657.56700671 C-324.43479524 659.05196492 -327.07053512 660.52064989 -329.70757604 661.98790514 C-349.09325413 672.84294645 -367.62458347 684.79429248 -385.44585729 698.05821764 C-386.5420436 698.86703893 -387.63838428 699.67565107 -388.73491979 700.48399889 C-391.65596253 702.65358605 -394.5560465 704.84722148 -397.44585729 707.05821764 C-397.98097936 707.46717272 -398.51610143 707.8761278 -399.06743932 708.29747546 C-412.21064831 718.37734361 -424.66097519 729.23009252 -436.78277135 740.51280749 C-438.68382599 742.27934828 -440.59253034 744.03747858 -442.50054479 745.79649889 C-443.92018821 747.11250332 -445.33946179 748.42890684 -446.75835729 749.74571764 C-447.41634313 750.35141589 -448.07432897 750.95711413 -448.75225377 751.58116686 C-452.65151638 755.21679931 -456.22812045 759.00076703 -459.69756627 763.04723132 C-462.63155687 766.42207848 -465.7387928 769.63169432 -468.82085729 772.87071764 C-473.84429231 778.18979347 -478.66370181 783.58114571 -483.22320104 789.30821764 C-485.3215296 791.90439217 -487.483312 794.42436178 -489.67705846 796.93932116 C-496.39071186 804.64798959 -502.65066155 812.64720979 -508.77495885 820.82970202 C-510.43463403 823.04324893 -512.10777474 825.24613326 -513.78179479 827.44884264 C-533.35882569 853.40503273 -550.3163146 881.30729872 -565.44585729 910.05821764 C-565.9679276 911.05031237 -566.48999791 912.0424071 -567.02788854 913.0645653 C-603.14047916 982.24741455 -621.86339096 1057.42635026 -627.44585729 1135.05821764 C-627.55172154 1136.43807848 -627.55172154 1136.43807848 -627.65972447 1137.8458153 C-633.39271997 1214.93792136 -622.68476502 1294.20962804 -511.44585729 1534.05821764 C-510.92362584 1534.76736315 -510.4013944 1535.47650866 -509.86333776 1536.20714343 C-503.60823044 1544.67699626 -497.22044001 1552.99379156 -490.44585729 1561.05821764 C-490.01418248 1561.57480944 -489.58250768 1562.09140124 -489.13775182 1562.62364733 C-483.78701145 1569.02478154 -478.37020475 1575.3502659 -472.75030065 1581.51817858 C-471.29893856 1583.11792126 -469.8548232 1584.72429802 -468.42119908 1586.33995593 C-462.78040333 1592.68956002 -456.90117589 1598.75404452 -450.88335729 1604.74571764 C-449.98939244 1605.64354968 -449.0954276 1606.54138171 -448.17437291 1607.46642077 C-443.09349094 1612.53986912 -437.91523659 1617.40766492 -432.44585729 1622.05821764 C-431.35147066 1623.00800543 -430.25769443 1623.95849711 -429.16460729 1624.90978014 C-361.00349369 1683.77762837 -280.47419759 1727.45947411 -41.44585729 1771.05821764 C-40.35498815 1771.08013171 -39.26411901 1771.10204577 -38.14019322 1771.12462389 C13.32792697 1772.01430618 64.81834963 1765.19188163 114.55414271 1752.05821764 C116.24120326 1751.61421618 116.24120326 1751.61421618 117.96234584 1751.16124499 C182.71588251 1733.89052505 244.95842311 1706.13225467 299.55414271 1667.05821764 C300.32000697 1666.51020495 301.08587123 1665.96219225 301.87494349 1665.39757311 C311.08849964 1658.77261392 320.08628477 1652.00076821 328.65570521 1644.55821764 C331.36628096 1642.22025473 334.13111062 1639.97757902 336.92914271 1637.74571764 C347.93184467 1628.75358137 357.99595761 1618.70260016 368.05414271 1608.68321764 C368.89066371 1607.8513695 369.72718471 1607.01952136 370.58905482 1606.16246569 C374.84099557 1601.89943552 378.93531396 1597.56598562 382.86078334 1593.00108874 C386.43054527 1588.90533248 390.21293506 1585.00192552 393.94867396 1581.05821764 C398.26318665 1576.48465554 402.44509601 1571.81693475 406.55414271 1567.05821764 C407.08942592 1566.43978991 407.62470912 1565.82136218 408.17621303 1565.18419421 C409.22945038 1563.96653013 410.28219071 1562.74843595 411.33441615 1561.52989733 C415.61058571 1556.57812964 419.89892957 1551.64622366 424.30414271 1546.80821764 C466.14159011 1500.43144503 496.41028502 1442.43733586 517.55414271 1384.05821764 C517.80293178 1383.3732622 518.05172084 1382.68830676 518.30804896 1381.98259509 C549.00871769 1297.15765626 561.40671502 1203.06008047 544.55414271 1076.05821764 C544.40741115 1075.31376391 544.26067958 1074.56931017 544.1095016 1073.80229723 C527.56916598 990.00674684 496.48487844 907.81502991 418.55414271 800.05821764 C418.12343471 799.54259264 417.6927267 799.02696764 417.24896693 798.49571764 C403.48615147 782.05208607 388.83845003 765.63940346 372.49164271 751.71056139 C367.34625332 747.32245713 362.3553667 742.74773812 357.41351771 738.13243639 C351.6233633 732.7278888 345.78866219 727.47688449 339.60492396 722.51915514 C337.28860638 720.65067873 334.9996222 718.76206586 332.72211146 716.84728014 C304.75870797 693.39601121 273.815184 673.64925888 241.77093959 656.26280749 C240.30878 655.46828156 238.84907467 654.66922008 237.39203334 653.86534655 C172.43137641 618.06083659 98.83640057 598.02209167 25.55414271 589.05821764 C24.87466578 588.97358263 24.19518886 588.88894763 23.49512172 588.80174792 C-19.42196939 583.50494831 -64.54295593 583.79115482 -107.44585729 589.05821764 Z " fill="#279BFC" transform="translate(2173.4458572864532,988.9417823553085)"/>
</svg>
