<?xml version="1.0" encoding="UTF-8"?>
<svg version="1.1" xmlns="http://www.w3.org/2000/svg" width="1024" height="1024">
<path d="M0 0 C0.7387587 -0.00671722 1.4775174 -0.01343445 2.23866272 -0.02035522 C4.67838289 -0.0393351 7.1178278 -0.04325979 9.55761719 -0.04541016 C11.25909538 -0.05183956 12.96057246 -0.05856803 14.66204834 -0.06558228 C18.22964031 -0.07755605 21.79713545 -0.08126315 25.36474609 -0.08007812 C29.92209866 -0.07987526 34.47882533 -0.10714249 39.03602982 -0.14162254 C42.55178643 -0.16393476 46.06739366 -0.1679143 49.58321381 -0.16685867 C51.26243999 -0.16920947 52.94167061 -0.17800351 54.62082672 -0.19352341 C72.71140086 -0.34503286 72.71140086 -0.34503286 79.97949219 6.54052734 C83.49136982 12.48370487 83.96759339 19.34729895 84.45605469 26.10302734 C84.51981293 26.91618408 84.58357117 27.72934082 84.64926147 28.56713867 C84.78177024 30.27449227 84.91100995 31.98210248 85.03710938 33.68994141 C85.2290102 36.28401199 85.43151264 38.87708867 85.63574219 41.47021484 C85.76396989 43.1394379 85.89159425 44.80870743 86.01855469 46.47802734 C86.07790192 47.24284424 86.13724915 48.00766113 86.19839478 48.7956543 C86.55209356 53.6409888 86.65607435 58.43217575 86.60449219 63.29052734 C87.16652344 63.35369141 87.72855469 63.41685547 88.30761719 63.48193359 C103.31416808 65.66847092 117.33720954 71.93521764 130.91699219 78.41552734 C131.97225098 78.91810059 133.02750977 79.42067383 134.11474609 79.93847656 C138.53695906 82.0980959 142.6779631 84.21291611 146.58496094 87.22021484 C149.26948136 89.53999437 149.26948136 89.53999437 151.57202148 89.08618164 C153.81593371 88.20775402 155.29479344 87.1721922 157.14355469 85.63037109 C157.80137939 85.08791748 158.4592041 84.54546387 159.13696289 83.98657227 C159.82749756 83.40625244 160.51803223 82.82593262 161.22949219 82.22802734 C162.67334981 81.03513405 164.11735984 79.8424252 165.56152344 78.64990234 C166.60687256 77.78075195 166.60687256 77.78075195 167.67333984 76.89404297 C190.1952036 58.19320844 190.1952036 58.19320844 196.85449219 57.97802734 C197.60214844 57.94064453 198.34980469 57.90326172 199.12011719 57.86474609 C204.813888 58.84056531 209.02414492 63.45587655 212.97973633 67.39111328 C213.47976669 67.88603271 213.97979706 68.38095215 214.49497986 68.89086914 C216.13169347 70.51378554 217.76097623 72.14391897 219.38964844 73.77490234 C220.53473021 74.9160915 221.68003323 76.05705869 222.82554626 77.19781494 C225.22020137 79.58502882 227.6109715 81.97605382 229.99926758 84.36962891 C233.04589697 87.42204709 236.10372934 90.46295803 239.16483402 93.50085068 C241.53197441 95.85319038 243.89207821 98.21249448 246.25027275 100.57379913 C247.37415313 101.69716939 248.50037021 102.81820733 249.62904549 103.93675995 C264.39997262 118.59140147 264.39997262 118.59140147 265.35449219 126.72802734 C264.94258085 132.65553202 261.39405268 135.99776292 257.60449219 140.29052734 C255.4800866 142.85745766 253.38687576 145.4494791 251.29199219 148.04052734 C250.16842984 149.42735594 249.04473182 150.81407463 247.92089844 152.20068359 C247.36805176 152.88404785 246.81520508 153.56741211 246.24560547 154.27148438 C245.17649824 155.58679482 244.10219413 156.89790349 243.02197266 158.20410156 C241.57733838 159.95135018 240.15177725 161.71257391 238.72949219 163.47802734 C237.90707031 164.48220703 237.08464844 165.48638672 236.23730469 166.52099609 C234.34565326 169.09512323 234.34565326 169.09512323 234.86791992 171.62329102 C235.64585464 174.44030685 236.62498064 177.04125648 237.75683594 179.73583984 C238.19906494 180.8002832 238.64129395 181.86472656 239.09692383 182.96142578 C239.57379639 184.1012793 240.05066895 185.24113281 240.54199219 186.41552734 C244.59573106 196.23019488 248.48274852 206.08107422 252.16699219 216.04052734 C252.58392334 217.16346191 253.00085449 218.28639648 253.43041992 219.44335938 C255.35815818 224.69080275 257.10719664 229.90611054 258.60449219 235.29052734 C259.57684814 235.37616943 260.5492041 235.46181152 261.55102539 235.55004883 C265.20956763 235.87232308 268.86809196 236.19480018 272.52661133 236.51733398 C274.10049979 236.65605993 275.6743929 236.79473318 277.24829102 236.93334961 C278.38850708 237.03377563 278.38850708 237.03377563 279.55175781 237.13623047 C280.30517456 237.20253159 281.05859131 237.2688327 281.83483887 237.33714294 C283.33613771 237.4697758 284.83735935 237.60328555 286.33850098 237.73768616 C289.5617498 238.0259451 292.78403777 238.30430984 296.01074219 238.55200195 C296.97625 238.62813721 297.94175781 238.70427246 298.93652344 238.78271484 C299.74710205 238.84185059 300.55768066 238.90098633 301.39282227 238.96191406 C306.79312476 239.76429922 310.98284557 242.27673977 314.54199219 246.35302734 C317.70329869 250.85549418 317.74472989 254.08109171 317.79736328 259.48071289 C317.80962952 260.57400154 317.80962952 260.57400154 317.82214355 261.68937683 C317.84695804 264.10199166 317.86350567 266.51454769 317.87792969 268.92724609 C317.8859152 270.16585357 317.8859152 270.16585357 317.89406204 271.42948341 C317.92077977 275.80234473 317.94015683 280.17517766 317.95458984 284.5480957 C317.96791463 288.1593568 317.99574156 291.77005091 318.03662109 295.38110352 C318.08605661 299.74831495 318.11072438 304.11501318 318.11781693 308.48249245 C318.12451126 310.14221614 318.13968588 311.80192919 318.16370773 313.46149254 C318.38355311 329.57210249 318.38355311 329.57210249 314.19746399 334.85682678 C308.91743737 339.60893672 303.0154073 340.9273984 296.11621094 341.55615234 C295.33236526 341.63927673 294.54851959 341.72240112 293.74092102 341.80804443 C292.09373344 341.9797696 290.44575799 342.1440869 288.79711914 342.30126953 C286.30711693 342.53908282 283.82029857 342.79942745 281.33300781 343.06396484 C273.07470226 343.91764213 264.9181372 344.5829263 256.60449219 344.29052734 C256.41886719 345.54865234 256.23324219 346.80677734 256.04199219 348.10302734 C252.10192927 367.39854093 242.76008101 387.70559608 232.41162109 404.33105469 C231.39168104 406.80717049 231.63095899 407.82471473 232.60449219 410.29052734 C233.59663979 412.01320037 233.59663979 412.01320037 234.87011719 413.65380859 C235.34175293 414.28609375 235.81338867 414.91837891 236.29931641 415.56982422 C236.81252441 416.24078125 237.32573242 416.91173828 237.85449219 417.60302734 C238.38445801 418.30363281 238.91442383 419.00423828 239.46044922 419.72607422 C243.29596543 424.73526962 247.32307781 429.54584455 251.47949219 434.29052734 C252.02726318 434.91894531 252.57503418 435.54736328 253.1394043 436.19482422 C255.32608624 438.70001351 257.51768413 441.19521178 259.75683594 443.65380859 C263.40025318 447.93160907 264.26131024 451.18069243 264.20605469 456.79833984 C262.79811384 462.63123763 258.48522253 466.62057247 254.29199219 470.66552734 C250.4201955 474.44455552 246.72188126 478.29760944 243.23730469 482.43896484 C241.59465004 484.30168806 239.86030822 486.045838 238.10083008 487.79742432 C236.47885331 489.41589461 234.86607257 491.04315239 233.25463867 492.67211914 C229.90865869 496.05366249 226.55661344 499.42912209 223.20239258 502.80249023 C221.75855015 504.25644886 220.31649953 505.71218895 218.8762207 507.16967773 C216.78904108 509.28109097 214.69549045 511.38600066 212.60058594 513.48974609 C211.95882919 514.14182541 211.31707245 514.79390472 210.65586853 515.46574402 C210.0516658 516.07009781 209.44746307 516.6744516 208.82495117 517.29711914 C208.29820297 517.82830856 207.77145477 518.35949799 207.22874451 518.90678406 C203.4285054 522.14430774 199.89429113 522.87095913 195.01074219 522.71240234 C186.57795329 521.23392637 179.35985692 512.77655876 173.09277344 507.31396484 C169.22382568 503.94515709 165.26851553 500.69103358 161.27246094 497.47412109 C159.37097591 495.91785443 157.5015899 494.32201845 155.65527344 492.70068359 C154.68976563 491.86408203 153.72425781 491.02748047 152.72949219 490.16552734 C151.43398438 489.01697266 151.43398438 489.01697266 150.11230469 487.84521484 C147.7539275 486.02555125 147.7539275 486.02555125 145.22412109 486.55664062 C142.63085926 487.28314063 140.54702589 488.19907367 138.18261719 489.47802734 C137.33401123 489.9254126 136.48540527 490.37279785 135.61108398 490.83374023 C134.70140869 491.31447998 133.7917334 491.79521973 132.85449219 492.29052734 C124.52308958 496.57844885 116.11585172 500.20033312 107.29199219 503.35302734 C105.74656738 503.90700195 105.74656738 503.90700195 104.16992188 504.47216797 C98.36295379 506.49313695 92.63376344 508.08467309 86.60449219 509.29052734 C86.56710937 510.26763672 86.52972656 511.24474609 86.49121094 512.25146484 C86.03784006 522.78084832 85.3115875 533.29674703 84.47207642 543.80181885 C84.35248985 545.32995722 84.23897548 546.85858351 84.13168335 548.38763428 C83.9768067 550.57181352 83.79913937 552.7530717 83.61621094 554.93505859 C83.51783936 556.20712158 83.41946777 557.47918457 83.31811523 558.78979492 C82.05373274 564.99231993 78.66259913 568.69660925 73.60449219 572.29052734 C70.60387337 573.79083675 67.51270684 573.45527063 64.22070312 573.4675293 C63.07892357 573.47738609 63.07892357 573.47738609 61.91407776 573.48744202 C59.3890066 573.50719034 56.86399501 573.51884191 54.33886719 573.52880859 C53.47661781 573.53288412 52.61436844 573.53695965 51.7259903 573.54115868 C47.16091653 573.56202746 42.59587289 573.57632481 38.03076172 573.58569336 C33.31850071 573.59675048 28.60671287 573.63113981 23.89461899 573.67086506 C20.2691562 573.69703151 16.64380605 573.70538528 13.01825714 573.70897484 C11.28154561 573.71384192 9.54483915 573.72545943 7.80821991 573.74401283 C5.37372064 573.76840216 2.94044381 573.76743991 0.50585938 573.76049805 C-0.20813522 573.77330811 -0.92212982 573.78611816 -1.65776062 573.79931641 C-7.83819095 573.73527026 -11.27505243 571.29317965 -15.64550781 567.16552734 C-20.85888988 558.60068537 -20.14358162 546.48446659 -20.828125 536.72094727 C-21.02128492 533.96694765 -21.22323006 531.21370028 -21.42675781 528.46044922 C-21.55486735 526.6994182 -21.68248886 524.9383516 -21.80957031 523.17724609 C-21.86891754 522.35947189 -21.92826477 521.54169769 -21.9894104 520.69914246 C-22.25540344 516.88751669 -22.46752195 513.11447817 -22.39550781 509.29052734 C-23.306875 509.09458984 -24.21824219 508.89865234 -25.15722656 508.69677734 C-41.60876847 504.97340854 -57.07233959 498.69563983 -72.17993164 491.26049805 C-74.24157755 490.24708495 -76.31556256 489.26565914 -78.39550781 488.29052734 C-79.43964844 487.78134766 -80.48378906 487.27216797 -81.55957031 486.74755859 C-84.54374906 485.95298979 -84.54374906 485.95298979 -87.29785156 488.04443359 C-88.3277963 488.96054233 -89.33848302 489.89858415 -90.33300781 490.85302734 C-91.47744569 491.88568292 -92.62198089 492.91823064 -93.76660156 493.95068359 C-94.35940918 494.49869629 -94.9522168 495.04670898 -95.56298828 495.61132812 C-98.61376476 498.40685712 -101.75965489 501.09132242 -104.89550781 503.79052734 C-106.15374367 504.8798823 -107.4115575 505.9697249 -108.66894531 507.06005859 C-109.28608398 507.59453613 -109.90322266 508.12901367 -110.5390625 508.6796875 C-111.77585329 509.75285236 -113.01088506 510.82804783 -114.24414062 511.90527344 C-115.99766758 513.43571856 -117.75825174 514.95764955 -119.52050781 516.47802734 C-120.30071289 517.16445312 -120.30071289 517.16445312 -121.09667969 517.86474609 C-125.39248586 521.54847008 -128.52765888 523.25990687 -134.20800781 523.35302734 C-139.58974446 522.47622755 -142.68317998 519.04472354 -146.39550781 515.29052734 C-147.54792969 514.15744141 -147.54792969 514.15744141 -148.72363281 513.00146484 C-150.96573508 510.78163511 -153.18249094 508.53930212 -155.39550781 506.29052734 C-159.14461832 502.52565324 -162.92319924 498.79122402 -166.70439148 495.05859375 C-170.10770762 491.69535799 -173.50316389 488.32423496 -176.89819336 484.95263672 C-178.69078003 483.17520969 -180.48603947 481.40047426 -182.28393555 479.62841797 C-184.88420508 477.06449756 -187.47469963 474.49104479 -190.06347656 471.91552734 C-190.86867233 471.12581543 -191.6738681 470.33610352 -192.50346375 469.52246094 C-193.62021233 468.40605225 -193.62021233 468.40605225 -194.75952148 467.26708984 C-195.41506516 466.61820801 -196.07060883 465.96932617 -196.74601746 465.30078125 C-199.36471267 462.10934563 -200.2734429 459.0839493 -200.89550781 455.04052734 C-199.75469132 446.48440367 -192.63985281 440.11417239 -187.15039062 433.81591797 C-182.49896211 428.47123387 -178.11324152 422.94566678 -173.77050781 417.34912109 C-171.66919289 414.64298691 -169.54304447 411.96003471 -167.39550781 409.29052734 C-168.54985137 406.19986556 -169.88650173 403.24778095 -171.35644531 400.29833984 C-176.77791036 389.37568232 -181.51407898 378.28662538 -185.89550781 366.91552734 C-186.15644226 366.24072327 -186.41737671 365.56591919 -186.68621826 364.8706665 C-189.17961934 358.40404095 -191.55910013 351.97772322 -193.39550781 345.29052734 C-196.20766123 344.99517268 -199.02011904 344.70375052 -201.83300781 344.41552734 C-202.71375977 344.32456787 -203.59451172 344.2336084 -204.50195312 344.13989258 C-209.66715133 343.62005368 -214.82961509 343.17435085 -220.00878906 342.81787109 C-221.11230713 342.73972168 -222.2158252 342.66157227 -223.3527832 342.58105469 C-225.5062395 342.43192381 -227.66039741 342.29252326 -229.81518555 342.1640625 C-236.6053902 341.68642557 -243.03077435 341.09979247 -248.45410156 336.57177734 C-248.90914062 335.98396484 -249.36417969 335.39615234 -249.83300781 334.79052734 C-250.30609375 334.20271484 -250.77917969 333.61490234 -251.26660156 333.00927734 C-253.76875066 329.19977699 -253.55569142 325.35382719 -253.57250977 320.97680664 C-253.58236656 319.86406876 -253.58236656 319.86406876 -253.59242249 318.72885132 C-253.61213121 316.27414852 -253.62381241 313.81950682 -253.63378906 311.36474609 C-253.63990235 310.10584533 -253.63990235 310.10584533 -253.64613914 308.82151222 C-253.66698918 304.3796272 -253.68129571 299.93777297 -253.69067383 295.49584961 C-253.70173828 290.91252708 -253.73614138 286.32969004 -253.77584553 281.74653912 C-253.80201257 278.21801359 -253.81036571 274.68960378 -253.81395531 271.16098976 C-253.81882077 269.47172579 -253.83043367 267.78246698 -253.8489933 266.09329796 C-253.87338832 263.72595286 -253.87241968 261.35986442 -253.86547852 258.99243164 C-253.87828857 258.29870956 -253.89109863 257.60498749 -253.90429688 256.89024353 C-253.85126832 251.91255839 -252.47151166 249.14356313 -249.39550781 245.29052734 C-243.23367698 239.6026835 -237.33774967 238.88393337 -229.28222656 238.22021484 C-227.8278997 238.09128342 -227.8278997 238.09128342 -226.3441925 237.95974731 C-223.25771206 237.68778537 -220.17043342 237.42651779 -217.08300781 237.16552734 C-214.98594097 236.9826389 -212.88893483 236.79905313 -210.79199219 236.61474609 C-205.66049899 236.16525523 -200.5282638 235.72535111 -195.39550781 235.29052734 C-195.12512695 234.49807617 -194.85474609 233.705625 -194.57617188 232.88916016 C-188.29463128 214.5816022 -181.45350756 196.72647755 -173.54956055 179.05004883 C-172.33233437 176.13946971 -171.19528423 173.34565224 -170.39550781 170.29052734 C-171.74087837 167.84753512 -172.91285197 166.16539262 -174.70800781 164.10302734 C-175.17150635 163.53769287 -175.63500488 162.9723584 -176.11254883 162.38989258 C-177.52321543 160.67510137 -178.95821189 158.98300633 -180.39550781 157.29052734 C-181.87721999 155.48010769 -183.35654685 153.66773209 -184.83300781 151.85302734 C-185.55359375 150.97775391 -186.27417969 150.10248047 -187.01660156 149.20068359 C-189.83625144 145.75135821 -192.62566835 142.27992244 -195.39550781 138.79052734 C-196.11758423 137.8905603 -196.11758423 137.8905603 -196.85424805 136.97241211 C-200.76029513 132.02944865 -202.12360377 128.63536359 -201.39550781 122.29052734 C-198.49713226 116.94297098 -193.98764155 112.69663332 -189.61816406 108.54052734 C-187.75577218 106.65522379 -186.04540229 104.73819814 -184.32373047 102.72753906 C-180.17827351 97.97560077 -175.77588774 93.50910111 -171.32128906 89.04833984 C-170.05190742 87.77396561 -170.05190742 87.77396561 -168.75688171 86.47384644 C-166.98075059 84.69268355 -165.20329012 82.91284534 -163.42456055 81.13427734 C-160.70040378 78.40791716 -157.98436478 75.67363643 -155.26855469 72.93896484 C-153.53662224 71.20410111 -151.80421695 69.46970925 -150.07128906 67.73583984 C-149.26081619 66.91818146 -148.45034332 66.10052307 -147.61531067 65.25808716 C-146.85739731 64.50325043 -146.09948395 63.7484137 -145.31860352 62.97070312 C-144.65576859 62.30644318 -143.99293365 61.64218323 -143.31001282 60.95779419 C-140.27709215 58.31654329 -138.08783555 57.36890407 -134.08300781 56.91552734 C-126.48931207 57.68776759 -120.96014379 63.08319864 -115.33300781 67.85302734 C-113.83928627 69.10170442 -112.34447723 70.34908163 -110.84863281 71.59521484 C-110.10548828 72.21493164 -109.36234375 72.83464844 -108.59667969 73.47314453 C-105.30031387 76.19476688 -101.9498687 78.84440799 -98.58300781 81.47802734 C-98.01509521 81.92283447 -97.44718262 82.3676416 -96.86206055 82.82592773 C-95.37673868 83.98532961 -93.8863511 85.13823396 -92.39550781 86.29052734 C-91.71101562 86.92603516 -91.02652344 87.56154297 -90.32128906 88.21630859 C-88.38150097 89.59046128 -88.38150097 89.59046128 -85.94238281 88.64208984 C-83.4925366 87.34201808 -81.05502728 86.03910691 -78.64550781 84.66552734 C-67.43511844 78.51548684 -55.95873109 73.33166356 -43.95800781 68.91552734 C-43.05912842 68.58182129 -42.16024902 68.24811523 -41.23413086 67.90429688 C-40.36054932 67.59089355 -39.48696777 67.27749023 -38.58691406 66.95458984 C-37.82580322 66.6808252 -37.06469238 66.40706055 -36.28051758 66.125 C-32.04254503 64.89919056 -27.72795899 64.10947895 -23.39550781 63.29052734 C-23.31510254 62.04029785 -23.23469727 60.79006836 -23.15185547 59.50195312 C-22.84919155 54.823598 -22.53768751 50.14586484 -22.22363281 45.46826172 C-22.08941787 43.451166 -21.95753876 41.43391335 -21.828125 39.41650391 C-21.64072174 36.5016624 -21.44467314 33.5875056 -21.24707031 30.67333984 C-21.19177155 29.78438019 -21.13647278 28.89542053 -21.07949829 27.97952271 C-19.88300739 10.80166228 -19.88300739 10.80166228 -15.02050781 5.79052734 C-14.43527344 5.16146484 -13.85003906 4.53240234 -13.24707031 3.88427734 C-9.07275772 0.29119815 -5.3719149 -0.00702533 0 0 Z " fill="#279BFC" transform="translate(480.3955078125,237.70947265625)"/>
<path d="M0 0 C1.58448436 1.42770428 3.15701834 2.86754587 4.7277832 4.31030273 C5.45094727 4.9509668 6.17411133 5.59163086 6.91918945 6.25170898 C29.42152736 27.25075918 42.85144639 57.40003299 47.7277832 87.31030273 C47.91598633 88.41116211 48.10418945 89.51202148 48.2980957 90.64624023 C52.4319435 125.89668781 42.81605802 164.58093717 20.7277832 192.68530273 C19.41141709 194.24148208 18.07788973 195.78330364 16.7277832 197.31030273 C16.00719727 198.13916992 15.28661133 198.96803711 14.54418945 199.82202148 C12.30753276 202.35328114 10.02924411 204.83792159 7.7277832 207.31030273 C7.05360352 208.05022461 6.37942383 208.79014648 5.68481445 209.55249023 C-17.86824802 234.38705141 -53.20982941 248.47865155 -87.08081055 249.59936523 C-126.57542327 250.33615504 -162.33203687 237.60477292 -191.2722168 210.31030273 C-199.34396463 202.45330044 -206.06114065 193.68478412 -212.2722168 184.31030273 C-213.21194336 182.8987793 -213.21194336 182.8987793 -214.1706543 181.45874023 C-233.79703267 149.93220484 -238.87285375 109.83905411 -230.91381836 73.97924805 C-225.1179719 49.86958539 -212.91205611 28.54630373 -196.2722168 10.31030273 C-195.40854492 9.3628418 -194.54487305 8.41538086 -193.6550293 7.43920898 C-172.32021002 -14.87688536 -141.90466583 -29.94234219 -111.2722168 -33.68969727 C-109.95930664 -33.85598633 -109.95930664 -33.85598633 -108.61987305 -34.02563477 C-69.74573689 -38.24984339 -29.35715749 -25.91955123 0 0 Z " fill="#fff" transform="translate(605.272216796875,412.689697265625)"/>
</svg>
