<?xml version="1.0" encoding="UTF-8"?>
<svg version="1.1" xmlns="http://www.w3.org/2000/svg" width="1024" height="1024">
<path d="M0 0 C3.89644154 2.11687063 7.66509978 4.42064737 11.4375 6.75 C13.64141397 8.09198886 15.84586032 9.43310374 18.05078125 10.7734375 C18.61621643 11.11843292 19.18165161 11.46342834 19.76422119 11.81887817 C25.60484335 15.38029595 31.48964414 18.86573746 37.37985229 22.34432983 C44.72685381 26.6834097 52.06955137 31.0287467 59.375 35.4375 C65.87567947 39.35132651 72.42388814 43.18258807 78.97384644 47.01315308 C89.7966328 53.34261638 100.58484111 59.72350888 111.3269043 66.18945312 C119.92913858 71.36507973 128.55417664 76.5014703 137.1875 81.625 C138.21638336 82.23568329 138.21638336 82.23568329 139.26605225 82.85870361 C147.64974187 87.83401872 156.04047798 92.7972144 164.4375 97.75 C173.09834513 102.8588983 181.72310922 108.02641832 190.34033203 113.20849609 C196.86200951 117.12710488 203.39898502 121.01849893 209.94995117 124.88793945 C214.45360684 127.5493243 218.95163715 130.2201225 223.44873047 132.89257812 C225.90881099 134.35384896 228.37177215 135.81012839 230.83642578 137.26367188 C234.0673432 139.17006705 237.29107549 141.08814777 240.5105896 143.01373291 C241.7385739 143.74566325 242.96885564 144.47375488 244.2015686 145.19769287 C255.9870711 152.12486227 255.9870711 152.12486227 260 158 C260.433125 158.61875 260.86625 159.2375 261.3125 159.875 C262.92506211 164.8592829 262.54916011 169.39198418 260.5 174.125 C256.24200277 181.54073182 247.54446764 185.66663176 240.4375 190 C239.52983887 190.5576001 238.62217773 191.1152002 237.68701172 191.68969727 C234.79424317 193.4645916 231.89766279 195.23310881 229 197 C228.06075684 197.57347168 227.12151367 198.14694336 226.15380859 198.73779297 C220.4139382 202.2411444 214.66821081 205.73477631 208.92041016 209.22509766 C205.99091184 211.0055234 203.06348059 212.78929869 200.13671875 214.57421875 C181.90437326 225.69220992 163.58722141 236.66151522 145.21936035 247.55374146 C136.23328294 252.88269129 127.26293172 258.23630443 118.3125 263.625 C106.21514472 270.90374154 94.03653445 278.04084114 81.84765625 285.16474915 C77.28870198 287.82959406 72.73660116 290.50588301 68.1875 293.1875 C59.56640033 298.26503043 50.92193782 303.30244953 42.27734375 308.33984375 C38.07957884 310.78619294 33.88444272 313.23696174 29.69140625 315.69140625 C20.71571351 320.94315632 11.73922197 326.19251461 2.6875 331.3125 C2.04167969 331.67964111 1.39585937 332.04678223 0.73046875 332.42504883 C-5.91856558 336.16057401 -11.44518916 336.70044604 -19 336 C-24.48131365 333.55298498 -26.48108341 330.2244196 -29 325 C-30.0008175 321.8409387 -30.12794782 318.96036759 -30.13422108 315.65474224 C-30.13867892 314.56427552 -30.14313676 313.4738088 -30.14772969 312.35029763 C-30.14754533 311.15274797 -30.14736097 309.9551983 -30.14717102 308.72135925 C-30.15084771 307.44881218 -30.1545244 306.1762651 -30.1583125 304.86515599 C-30.16832342 301.33041507 -30.17204781 297.79569113 -30.17470181 294.26093805 C-30.17860744 290.44965226 -30.18818546 286.63837988 -30.19691467 282.82710266 C-30.21666953 273.62287697 -30.22674307 264.41865019 -30.23564246 255.21440861 C-30.24002609 250.88036319 -30.24539263 246.546319 -30.25063133 242.21227455 C-30.26764099 227.8064903 -30.28213611 213.40070681 -30.28938007 198.99491405 C-30.29128997 195.25727017 -30.2932103 191.51962629 -30.29516602 187.78198242 C-30.29564976 186.85300879 -30.2961335 185.92403516 -30.2966319 184.96691082 C-30.30493585 169.91131595 -30.33028009 154.85580044 -30.36274669 139.80024024 C-30.39580395 124.3448986 -30.41382754 108.88959732 -30.41702431 93.43422014 C-30.41919041 84.75575577 -30.42795391 76.07740721 -30.45348549 67.39897728 C-30.47517409 60.00977361 -30.48325192 52.62071388 -30.47351871 45.23148199 C-30.46896892 41.46145338 -30.47089938 37.69172187 -30.49028015 33.92173386 C-30.51111228 29.83414329 -30.50094324 25.74721382 -30.48774719 21.65959167 C-30.49871644 20.46873418 -30.50968568 19.27787668 -30.52098733 18.05093259 C-30.46955859 11.46843864 -29.97189088 7.3312661 -26 2 C-17.32205932 -6.02709513 -10.15111689 -4.69453712 0 0 Z " fill="#2A9FFD" transform="translate(405,239)"/>
<path d="M0 0 C0.95722204 -0.00644889 1.91444408 -0.01289778 2.90067285 -0.0195421 C4.46603079 -0.01489629 4.46603079 -0.01489629 6.06301212 -0.01015663 C7.17786065 -0.01468774 8.29270917 -0.01921886 9.44134098 -0.02388728 C13.18458173 -0.03656811 16.92767766 -0.03490852 20.67093754 -0.03325844 C23.35156644 -0.03924132 26.03218391 -0.04598949 28.71280766 -0.05361366 C35.24269386 -0.07022014 41.77254396 -0.07572302 48.30244952 -0.07683842 C53.60977874 -0.07778892 58.91709605 -0.0818993 64.2244215 -0.08823967 C79.27163808 -0.10584996 94.31882614 -0.1150787 109.3660531 -0.11357872 C110.58262275 -0.11345885 110.58262275 -0.11345885 111.82376957 -0.11333656 C112.63580603 -0.1132548 113.44784249 -0.11317304 114.28448612 -0.1130888 C127.44924512 -0.11227563 140.61388978 -0.13142172 153.77861571 -0.1596133 C167.29601947 -0.18833179 180.81336745 -0.20215421 194.3308025 -0.20042574 C201.91989666 -0.19976156 209.5088709 -0.20526661 217.09793758 -0.22678185 C223.55830808 -0.24497992 230.01850427 -0.24935228 236.47888928 -0.235763 C239.77491698 -0.22922665 243.0705402 -0.23130759 246.36654949 -0.2464695 C249.9399878 -0.26184513 253.51254282 -0.25266361 257.08596134 -0.23720741 C258.12730258 -0.24749454 259.16864382 -0.25778167 260.24154085 -0.26838052 C267.39334144 -0.19984823 270.86568186 0.99492761 275.98368168 6.0973568 C278.34697576 10.51953589 277.65570161 15.77197012 277.63895512 20.67450523 C277.63798281 22.68597217 277.67961732 24.69361826 277.72391605 26.70453453 C277.72649418 27.97877281 277.7290723 29.25301109 277.73172855 30.56586266 C277.7388184 31.729161 277.74590824 32.89245934 277.75321293 34.09100914 C276.95572401 38.19522888 275.30645719 39.61910766 272.13797855 42.25726891 C268.94074671 44.3887568 268.1430536 44.50834205 264.47520065 44.51453781 C263.51151052 44.5209867 262.54782039 44.5274356 261.55492753 44.53407991 C259.9633218 44.5294341 259.9633218 44.5294341 258.33956242 44.52469444 C256.65147692 44.53149111 256.65147692 44.53149111 254.92928869 44.53842509 C251.13837791 44.55113869 247.34760953 44.54944423 243.55667973 44.54779625 C240.84678953 44.55268792 238.13690948 44.56052462 235.42702579 44.56815147 C228.81799083 44.58477897 222.20899153 44.59026182 215.5999374 44.59137623 C210.22820112 44.59232596 204.85647663 44.5964325 199.48474407 44.60277748 C184.25969867 44.62039535 169.03468149 44.6296156 153.80962583 44.62811653 C152.9884876 44.62803662 152.16734937 44.62795671 151.32132816 44.62787437 C150.49918885 44.62779261 149.67704954 44.62771085 148.82999692 44.62762661 C135.50668142 44.62681375 122.18347899 44.64594997 108.8601962 44.67415111 C95.1846541 44.70286974 81.50916716 44.71669194 67.83359414 44.71496356 C60.15392682 44.71429926 52.474378 44.71980881 44.79473782 44.74131966 C38.25563421 44.75951817 31.7167028 44.76388992 25.17758485 44.75030081 C21.8410108 44.7437639 18.50503728 44.74584612 15.16845036 44.76100731 C11.55111801 44.77638168 7.93465839 44.76720213 4.31734562 44.75174522 C2.73577814 44.76717591 2.73577814 44.76717591 1.1222598 44.78291833 C-4.85293926 44.72634944 -8.30694929 44.23825502 -12.86202145 40.25726891 C-16.45698516 35.32157915 -15.27305513 28.19897796 -15.29952145 22.38226891 C-15.33239254 21.11512047 -15.36526363 19.84797203 -15.39913082 18.54242516 C-15.45936222 8.1278684 -15.45936222 8.1278684 -12.6471777 4.49945641 C-8.59804749 1.23970782 -5.17700913 0.00884979 0 0 Z " fill="#2AA0FC" transform="translate(380.862021446228,750.7427310943604)"/>
<path d="M0 0 C0.95523099 -0.00445784 1.91046199 -0.00891569 2.89463937 -0.01350862 C3.94112417 -0.01332426 4.98760897 -0.01313989 6.06580544 -0.01294994 C7.17979953 -0.01662663 8.29379363 -0.02030332 9.44154513 -0.02409142 C13.1878547 -0.03513642 16.93413655 -0.03897346 20.68045998 -0.04278088 C23.36093753 -0.04904476 26.04141211 -0.05567861 28.72188759 -0.0626936 C36.77370552 -0.08244149 44.82552468 -0.09252067 52.87736076 -0.10142139 C56.66910537 -0.10580577 60.46084858 -0.11117207 64.25259209 -0.11641026 C76.85606471 -0.13341848 89.45953647 -0.14791387 102.0630188 -0.155159 C105.33247186 -0.15706887 108.60192491 -0.15898921 111.87137794 -0.16094494 C113.09028089 -0.16167055 113.09028089 -0.16167055 114.33380814 -0.16241082 C127.50509153 -0.17071581 140.67628425 -0.19606243 153.84752803 -0.22852562 C167.36941385 -0.26158155 180.89125355 -0.2796063 194.41317999 -0.28280324 C202.00565062 -0.28496936 209.59798888 -0.2937332 217.19042015 -0.31926441 C223.6544655 -0.34095117 230.11834631 -0.34903177 236.58242391 -0.33929763 C239.8804766 -0.33474736 243.17811813 -0.33885506 246.47613907 -0.35605907 C250.05180833 -0.37367061 253.6266112 -0.3667239 257.20228004 -0.35352612 C258.2443034 -0.36449536 259.28632676 -0.37546461 260.35992658 -0.38676625 C267.51319011 -0.32285703 271.0050667 0.86017273 276.10672951 5.99017811 C278.66723249 10.74617159 277.77167866 16.7416687 277.76102638 22.00922108 C277.78938576 23.27636951 277.81774513 24.54351795 277.84696388 25.84906483 C277.86882297 36.24306139 277.86882297 36.24306139 274.97977638 39.89203358 C271.11649534 43.0781303 268.52881576 44.38293997 263.50643539 44.39148998 C262.06836381 44.40116332 262.06836381 44.40116332 260.60124028 44.41103208 C259.55086453 44.40793488 258.50048878 44.40483767 257.41828346 44.40164661 C255.74116699 44.40844328 255.74116699 44.40844328 254.03016937 44.41537726 C250.2700033 44.42807444 246.50998109 44.42639745 242.74979591 44.42474842 C240.05946243 44.43073033 237.36914036 44.43747813 234.67881203 44.44510365 C228.12138316 44.46172062 221.56399026 44.4672135 215.0065421 44.4683284 C209.67678242 44.46927852 204.3470346 44.47338698 199.01727867 44.47972965 C183.90881644 44.49734373 168.80038262 44.50656823 153.69191004 44.5050687 C152.47001179 44.50494884 152.47001179 44.50494884 151.22342873 44.50482655 C150.40783615 44.50474478 149.59224357 44.50466302 148.75193606 44.50457878 C135.5321482 44.50376577 122.31247424 44.52290688 109.09271933 44.55110328 C95.52110666 44.57982193 81.94954956 44.59364415 68.37790573 44.59191573 C60.75749774 44.59125149 53.13720917 44.59675867 45.51682854 44.61827183 C39.02898568 44.63647023 32.54131637 44.64084209 26.05345906 44.62725298 C22.74326205 44.62071646 19.4334678 44.62279799 16.12328911 44.63795948 C12.53447185 44.6533347 8.94653414 44.64415381 5.35773659 44.6286974 C3.78886513 44.64412808 3.78886513 44.64412808 2.1882993 44.65987051 C-3.77449356 44.60297494 -7.19591294 44.10562374 -11.73897362 40.13422108 C-16.06102015 34.58785226 -15.29074437 28.49719094 -15.30147362 21.75922108 C-15.3382119 20.55265858 -15.37495018 19.34609608 -15.41280174 18.10297108 C-15.44554049 11.48246843 -15.17114958 7.12454996 -10.42232323 2.28412342 C-7.19793146 0.08152948 -3.81501623 0.00827545 0 0 Z " fill="#2A9FFA" transform="translate(380.7389736175537,681.8657789230347)"/>
<path d="M0 0 C0.96108238 -0.00569124 1.92216477 -0.01138248 2.91237086 -0.01724619 C4.50732267 -0.019016 4.50732267 -0.019016 6.13449574 -0.02082157 C7.25832608 -0.02590939 8.38215642 -0.03099721 9.54004222 -0.03623921 C13.33168271 -0.05202131 17.12330406 -0.0605039 20.91496754 -0.06893253 C22.93351786 -0.07564858 24.95206414 -0.08315104 26.97061124 -0.09077286 C35.80626301 -0.12411958 44.64192647 -0.14562292 53.47762057 -0.16397271 C55.77801552 -0.16876674 58.07840999 -0.17375018 60.37880445 -0.17877793 C74.66000523 -0.20974907 88.94121004 -0.23643826 103.222435 -0.25319672 C106.53140425 -0.25714631 109.84037343 -0.26114929 113.14934254 -0.2652216 C113.97178504 -0.26622996 114.79422754 -0.26723832 115.64159254 -0.26827724 C128.96433961 -0.28528372 142.28690092 -0.32639148 155.60955729 -0.37724458 C169.28393392 -0.42901131 182.95821501 -0.45813776 196.63268882 -0.4653936 C204.31192914 -0.47005718 211.99086531 -0.48482184 219.67000866 -0.5251379 C226.21024464 -0.5594326 232.75012163 -0.57337973 239.29044237 -0.56071376 C242.62739904 -0.55488491 245.96298179 -0.56203209 249.29992771 -0.5888834 C252.91948783 -0.61645418 256.53713836 -0.60710283 260.15671253 -0.58844852 C261.20886013 -0.60524345 262.26100773 -0.62203838 263.34503859 -0.63934225 C269.4558507 -0.56053268 272.82263495 0.32230817 277.23164588 4.65759796 C281.00598524 9.20062517 279.73206913 15.79356534 279.77556324 21.3898077 C279.80456715 22.61828426 279.83357105 23.84676083 279.86345387 25.11246395 C279.9442673 36.5879717 279.9442673 36.5879717 275.46306324 41.1398077 C272.43927016 42.99031788 270.18126785 43.39114922 266.65882683 43.39707661 C265.68904555 43.4035255 264.71926428 43.40997439 263.72009569 43.4166187 C262.65736498 43.4135215 261.59463427 43.4104243 260.49969959 43.40723324 C258.80314878 43.41402991 258.80314878 43.41402991 257.07232422 43.42096388 C253.26836605 43.43366171 249.46455007 43.43198404 245.66057301 43.43033504 C242.93906073 43.43522843 240.21755854 43.44306464 237.49605274 43.45069027 C230.86275853 43.4673072 224.22949987 43.4728001 217.59618659 43.47391503 C212.20539624 43.47486506 206.81461762 43.47897312 201.42383099 43.48531628 C186.14429057 43.50292967 170.86477826 43.51215486 155.58522762 43.51065533 C154.3494938 43.51053546 154.3494938 43.51053546 153.08879566 43.51041317 C152.26396893 43.51033141 151.43914219 43.51024965 150.58932071 43.51016541 C137.21689449 43.50935222 123.84458083 43.52849788 110.47218717 43.5566899 C96.74576772 43.58540031 83.0194032 43.59923125 69.29295295 43.59750235 C61.58482799 43.59683787 53.87682106 43.6023558 46.16872311 43.62385845 C39.6069247 43.64204593 33.04529784 43.64643766 26.48348517 43.63283961 C23.13487711 43.62629769 19.78686783 43.62839826 16.43824673 43.6435461 C12.80967066 43.6589005 9.18196679 43.64975442 5.55341053 43.63428402 C4.49291054 43.64457115 3.43241055 43.65485827 2.33977419 43.66545713 C-4.77899234 43.59812245 -4.77899234 43.59812245 -8.64963913 41.25761509 C-13.77570568 35.50546373 -12.97247913 28.55657704 -13.03693676 21.2648077 C-13.09881176 19.52650692 -13.09881176 19.52650692 -13.16193676 17.75308895 C-13.24933418 8.19399659 -13.24933418 8.19399659 -9.63068676 3.8819952 C-6.46554756 0.77372056 -4.41603807 0.01521345 0 0 Z " fill="#2AA0FD" transform="translate(378.53693675994873,612.8601922988892)"/>
</svg>
