<?xml version="1.0" encoding="UTF-8"?>
<svg version="1.1" xmlns="http://www.w3.org/2000/svg" width="1024" height="1024">
<path d="M0 0 C3.02918612 0.01609065 6.05703515 0.00002826 9.08618164 -0.01904297 C27.58679536 -0.03977456 45.76977833 2.07058918 63.84594727 6.01611328 C65.00441162 6.26844727 66.16287598 6.52078125 67.35644531 6.78076172 C102.13420231 14.69153152 137.08660628 29.49765503 166.09594727 50.39111328 C166.83264648 50.91431152 167.5693457 51.43750977 168.32836914 51.9765625 C183.89321723 63.0554858 197.91837921 75.06039594 211.47094727 88.51611328 C212.38658447 89.42232422 213.30222168 90.32853516 214.24560547 91.26220703 C220.28568271 97.33137853 225.80791467 103.65909328 231.09594727 110.39111328 C232.05138428 111.60395996 232.05138428 111.60395996 233.02612305 112.84130859 C263.0757991 151.41633645 283.86449818 196.35520008 291.67407227 244.77636719 C291.95375046 246.50978936 292.24529641 248.24134124 292.54907227 249.97070312 C298.81750269 286.21006653 297.01720452 326.72795823 286.76245117 362.05908203 C286.06657339 364.49388956 285.42753435 366.93909207 284.79516602 369.39111328 C277.0521511 398.77893147 264.18381518 427.27428825 247.09594727 452.39111328 C246.65895508 453.03371094 246.22196289 453.67630859 245.77172852 454.33837891 C242.96809027 458.42306416 240.06987495 462.42895856 237.09594727 466.39111328 C236.66459473 466.96667969 236.23324219 467.54224609 235.78881836 468.13525391 C229.06148553 477.04608396 221.85088128 485.3635201 214.09594727 493.39111328 C213.41580566 494.09848633 212.73566406 494.80585937 212.03491211 495.53466797 C203.1156156 504.76751039 194.1486335 513.55373243 183.78051758 521.14648438 C182.09004769 522.39547213 180.43191798 523.67926423 178.77563477 524.97314453 C159.91623122 539.51378488 138.78477447 550.71958838 117.09594727 560.39111328 C116.33926758 560.73577637 115.58258789 561.08043945 114.80297852 561.43554688 C92.72636441 571.36070383 66.99818725 577.07713578 43.09594727 580.39111328 C41.92032227 580.56247803 41.92032227 580.56247803 40.72094727 580.73730469 C13.06186639 584.57568454 -17.45319009 584.41255173 -44.90405273 579.39111328 C-45.8413623 579.2301416 -46.77867187 579.06916992 -47.74438477 578.90332031 C-77.73161015 573.67176314 -107.03247827 563.68228953 -133.90405273 549.39111328 C-134.6070752 549.0229248 -135.31009766 548.65473633 -136.03442383 548.27539062 C-157.59911028 536.93389183 -177.30877926 522.80433029 -195.01733398 506.09033203 C-197.28729671 503.96780937 -199.58308403 501.94393251 -201.96655273 499.95361328 C-253.92273478 454.73651761 -284.09693524 380.39616289 -289.65405273 313.01611328 C-289.77159421 310.47033693 -289.85571317 307.93810846 -289.90405273 305.39111328 C-289.9245166 304.45138672 -289.94498047 303.51166016 -289.96606445 302.54345703 C-290.58750048 269.05781324 -287.20902603 236.37360795 -276.90405273 204.39111328 C-276.65461914 203.59398926 -276.40518555 202.79686523 -276.14819336 201.97558594 C-264.23446492 164.20539161 -243.72041465 130.20165476 -217.90405273 100.39111328 C-217.13315308 99.48776245 -217.13315308 99.48776245 -216.34667969 98.56616211 C-205.07622459 85.47540983 -192.73589069 72.86383417 -178.72045898 62.71142578 C-176.71240405 61.25180736 -174.73073781 59.75965853 -172.74780273 58.26611328 C-157.7037192 47.04628903 -141.80232251 37.4077918 -124.85742188 29.34106445 C-123.45130154 28.65724815 -122.05574967 27.95154395 -120.66748047 27.23217773 C-102.56640767 17.88810551 -82.71744161 11.86849034 -62.90405273 7.39111328 C-62.05294922 7.1982373 -61.2018457 7.00536133 -60.32495117 6.80664062 C-40.32629726 2.36636652 -20.49691691 -0.12877644 0 0 Z " fill="#DC2A22" transform="translate(509.904052734375,221.60888671875)"/>
<path d="M0 0 C5.39674023 3.1360934 8.70130969 7.83561466 10.83984375 13.61328125 C11.89359506 18.44499807 11.94102247 22.94763914 11.875 27.875 C11.8740332 29.18791016 11.8740332 29.18791016 11.87304688 30.52734375 C11.83898836 35.84804021 11.57890454 41.11955595 11.19677734 46.42602539 C10.36585175 59.49333523 10.45786459 72.59746328 10.38417697 85.68605351 C10.36202214 89.45229973 10.33478047 93.21850942 10.30812073 96.98472595 C10.25858627 104.08858267 10.21350512 111.1924601 10.17009836 118.29635662 C10.12038629 126.39577449 10.0655963 134.49515566 10.01041877 142.59453785 C9.89720277 159.2296579 9.79023686 175.86481186 9.6875 192.5 C13.1327845 192.69876641 15.87467781 192.83439126 19.09562683 191.50930786 C21.56448522 188.39304416 21.21952569 185.15560078 21.1574707 181.35107422 C21.1596611 180.51962891 21.1618515 179.68818359 21.16410828 178.83154297 C21.16642591 176.07219091 21.14009833 173.31389831 21.11328125 170.5546875 C21.10835363 168.62672259 21.10505717 166.69875289 21.10331726 164.77078247 C21.09566302 160.71698857 21.07508073 156.6635459 21.04418945 152.60986328 C21.0049843 147.46058374 20.98663839 142.31153432 20.97688007 137.16212273 C20.96679461 132.20961421 20.94699331 127.25715911 20.92578125 122.3046875 C20.9223855 121.38011623 20.91898975 120.45554497 20.9154911 119.50295639 C20.86377333 107.79969947 20.48659285 96.17576962 19.6875 84.5 C18.4002119 62.89998927 18.4002119 62.89998927 25.6875 53.5 C31.80537055 47.63137602 36.42586987 46.16291635 44.86865234 46.11279297 C51.75970426 46.25976244 55.34945229 48.294065 60.16796875 52.921875 C65.5427949 58.7853217 67.14408589 64.78831245 67.04394531 72.52392578 C67.04598969 73.29410538 67.04803406 74.06428497 67.05014038 74.85780334 C67.05313163 77.38722012 67.03470959 79.9159738 67.015625 82.4453125 C67.01256208 84.22020304 67.01069002 85.99509599 67.00994873 87.76998901 C67.0053547 91.48705279 66.99097166 95.20389885 66.96875 98.92089844 C66.94059283 103.65120145 66.92954895 108.38133264 66.9250679 113.1117115 C66.91987076 117.6604333 66.90535719 122.20911346 66.890625 126.7578125 C66.88874428 127.60947117 66.88686356 128.46112984 66.88492584 129.33859634 C66.86035572 137.95739688 66.68805554 146.47258971 65.93649292 155.06378174 C65.38535751 162.6697071 65.32024218 170.30356352 65.15234375 177.92578125 C65.1092346 179.76808876 65.06581799 181.6103891 65.02210999 183.4526825 C64.90892233 188.2578169 64.79986012 193.06303603 64.69171143 197.86828613 C64.58021091 202.78920291 64.46473357 207.71002628 64.34960938 212.63085938 C64.12505476 222.25381982 63.90486642 231.87687468 63.6875 241.5 C62.1720459 241.89179443 62.1720459 241.89179443 60.62597656 242.29150391 C59.27664555 242.64467663 57.92736433 242.99803965 56.578125 243.3515625 C55.91506348 243.52244385 55.25200195 243.6933252 54.56884766 243.86938477 C30.91454825 250.09496418 6.74408296 266.25822582 -5.82421875 287.68359375 C-14.53172839 302.82110474 -14.53172839 302.82110474 -15.3125 319.5 C-12.6725 319.5 -10.0325 319.5 -7.3125 319.5 C-7.126875 318.695625 -7.126875 318.695625 -6.9375 317.875 C-1.08809569 295.64726361 15.13194831 272.5163273 35.13671875 260.82421875 C48.22269693 254.03073237 59.95242777 251.24665826 74.6875 250.5 C75.01004761 249.49924438 75.01004761 249.49924438 75.33911133 248.47827148 C94.87361115 188.49080063 94.87361115 188.49080063 119.6875 175.5 C126.62112366 172.13358987 135.35215091 172.47699033 142.75 174.22265625 C147.52511949 175.9777969 151.45446039 177.72941538 153.6875 182.5 C155.83318096 190.78942934 152.19635165 197.29860097 148.58862305 204.50830078 C137.95846535 225.817425 131.26603147 248.74024101 124.31835938 271.44012451 C116.31656096 297.56751371 108.14656705 322.72960726 92.6875 345.5 C92.22682129 346.18529785 91.76614258 346.8705957 91.29150391 347.57666016 C84.73961889 357.28063974 77.86559688 366.11254384 69.6875 374.5 C69.09839844 375.15097656 68.50929688 375.80195312 67.90234375 376.47265625 C55.11099935 390.26970832 36.74588525 398.37591288 18.6875 402.5 C17.88135254 402.68691406 17.07520508 402.87382813 16.24462891 403.06640625 C6.03227571 405.10124624 -4.31847526 404.89645472 -14.6875 404.875 C-15.66949371 404.87445618 -16.65148743 404.87391235 -17.66323853 404.87335205 C-31.85417553 404.83712221 -45.59652828 404.51130355 -59.3125 400.5 C-60.44679443 400.17854004 -60.44679443 400.17854004 -61.60400391 399.85058594 C-87.90627964 392.14661517 -111.05947206 373.47971414 -124.41845703 349.51611328 C-140.20014882 320.19542748 -138.91659366 288.76020975 -138.81687045 256.32788801 C-138.80284144 250.62090378 -138.80949875 244.91393504 -138.81300354 239.2069397 C-138.8156878 229.65060273 -138.80237149 220.0943927 -138.77905273 210.53808594 C-138.75231671 199.50522059 -138.75074598 188.47256531 -138.7624411 177.43967855 C-138.77322244 166.77585574 -138.76703782 156.11210858 -138.75288582 145.44829178 C-138.74714292 140.92774278 -138.74719497 136.40724945 -138.75195122 131.88669968 C-138.75672799 126.57581923 -138.74659031 121.26516901 -138.72499657 115.95433235 C-138.71944319 114.00970931 -138.71895006 112.06506408 -138.72394943 110.12043953 C-138.72992682 107.4619057 -138.71735148 104.80407038 -138.70018005 102.14559937 C-138.7061901 101.38121091 -138.71220014 100.61682246 -138.71839231 99.82927072 C-138.64662496 93.69875561 -137.37081377 88.29969693 -133.6640625 83.2578125 C-128.98818081 78.83582484 -125.59919513 76.51486644 -119.0625 76.0625 C-112.63140439 76.24410901 -107.90404417 79.09603427 -103.26171875 83.40234375 C-96.29102852 90.92145267 -96.01458115 97.81189948 -96.00952148 107.73168945 C-96.00108215 108.95990921 -95.99264282 110.18812897 -95.98394775 111.4535675 C-95.9670321 114.11529549 -95.95365359 116.776757 -95.94640923 119.43850136 C-95.93489497 123.64415187 -95.90942998 127.84964836 -95.88209534 132.05522156 C-95.84052055 138.70138234 -95.80806567 145.34755056 -95.77962118 151.99377936 C-95.72853502 163.91317113 -95.66658914 175.83249941 -95.59428078 187.75178117 C-95.56931969 191.93628766 -95.54990693 196.12077344 -95.53489864 200.30532706 C-95.52234157 203.50866511 -95.50364965 206.71196928 -95.48608398 209.9152832 C-95.48347061 211.08045471 -95.48085724 212.24562622 -95.47816467 213.44610596 C-95.47126617 214.49899307 -95.46436768 215.55188019 -95.45726013 216.63667297 C-95.45340522 217.5571256 -95.4495503 218.47757822 -95.44557858 219.42592335 C-95.54234262 221.49028367 -95.54234262 221.49028367 -94.3125 222.5 C-91.64191149 222.64115161 -88.98817762 222.54247107 -86.3125 222.5 C-85.1628624 219.05108721 -85.20396024 216.42960243 -85.22589111 212.79063416 C-85.22990122 211.76219221 -85.22990122 211.76219221 -85.23399234 210.71297365 C-85.24407169 208.41008082 -85.2612758 206.10729438 -85.27832031 203.80444336 C-85.28678619 202.15522507 -85.29473882 200.50600408 -85.30221558 198.85678101 C-85.3189509 195.30128712 -85.33838345 191.74582141 -85.35959625 188.19035149 C-85.3921929 182.56276018 -85.41291204 176.93516529 -85.43084717 171.30751038 C-85.43547686 169.88263043 -85.43547686 169.88263043 -85.44020009 168.42896503 C-85.4465084 166.48620802 -85.45279814 164.54345095 -85.45906973 162.60069382 C-85.50205973 149.49842229 -85.55374535 136.3962852 -85.63476562 123.29418945 C-85.68931498 114.45795224 -85.72596463 105.62183643 -85.74227214 96.78544337 C-85.75163041 92.11133621 -85.77011834 87.43766556 -85.81058502 82.76371574 C-85.84858393 78.36169625 -85.86297992 73.9602169 -85.85974503 69.55804062 C-85.86270248 67.94802828 -85.87416797 66.338004 -85.89506912 64.72812462 C-86.02390525 54.3377272 -85.22219895 46.09971069 -78.14453125 38.02734375 C-77.47808594 37.50269531 -76.81164062 36.97804688 -76.125 36.4375 C-75.11373047 35.61572266 -75.11373047 35.61572266 -74.08203125 34.77734375 C-69.55941671 31.51267497 -64.70371285 31.98933031 -59.3125 32.5 C-51.90299645 34.59536216 -47.47231831 39.73859029 -43.75102234 46.21937561 C-41.26473097 52.17212832 -41.92109876 58.730679 -41.97192383 65.06420898 C-41.9727709 66.54305504 -41.9722934 68.02190236 -41.97059631 69.50074768 C-41.96973804 73.50031715 -41.98733636 77.49961492 -42.00831819 81.49912143 C-42.02711315 85.68446383 -42.02883765 89.86981294 -42.03239441 94.05519104 C-42.04170661 101.97402807 -42.06630917 109.89274036 -42.09644288 117.81152254 C-42.13001262 126.82963352 -42.14647936 135.84775056 -42.16152918 144.8659085 C-42.19285949 163.4106763 -42.24560389 181.95532811 -42.3125 200.5 C-38.07955996 200.59380477 -35.17036966 200.31546807 -31.3125 198.5 C-31.38314667 197.52101746 -31.45379333 196.54203491 -31.52658081 195.53338623 C-32.17767279 186.12194422 -32.45949882 176.76536683 -32.4453125 167.328125 C-32.44646353 165.87547273 -32.44794467 164.4228207 -32.44972229 162.97016907 C-32.45272972 159.04812637 -32.44848812 155.12612699 -32.44167709 151.20409012 C-32.43747047 148.73264857 -32.43452067 146.26120799 -32.43179321 143.7897644 C-32.41720864 132.02047585 -32.37761728 120.25134912 -32.32564545 108.4821701 C-32.31676165 106.46679521 -32.30808478 104.45141939 -32.29959869 102.43604279 C-32.24163654 88.70976506 -32.16043786 74.98387699 -32.04803467 61.25793457 C-32.01462184 57.13237919 -31.98783233 53.00686129 -31.96661377 48.88122559 C-31.94096193 43.99988969 -31.90076516 39.11888434 -31.84943962 34.23775291 C-31.83280471 32.43459175 -31.8211643 30.63137664 -31.81485176 28.8281498 C-31.80526428 26.35325995 -31.77735429 23.87922138 -31.74487305 21.40454102 C-31.74630877 20.68664524 -31.74774448 19.96874947 -31.74922371 19.22909927 C-31.64459776 13.63095718 -30.22725464 9.59901973 -26.4453125 5.453125 C-25.78273438 4.89109375 -25.12015625 4.3290625 -24.4375 3.75 C-23.78007812 3.17765625 -23.12265625 2.6053125 -22.4453125 2.015625 C-15.9138657 -2.62576943 -7.34131135 -3.19064686 0 0 Z " fill="#F8F6F6" transform="translate(527.3125,310.5)"/>
<path d="M0 0 C3.02918612 0.01609065 6.05703515 0.00002826 9.08618164 -0.01904297 C27.58679536 -0.03977456 45.76977833 2.07058918 63.84594727 6.01611328 C65.00441162 6.26844727 66.16287598 6.52078125 67.35644531 6.78076172 C102.13420231 14.69153152 137.08660628 29.49765503 166.09594727 50.39111328 C166.83264648 50.91431152 167.5693457 51.43750977 168.32836914 51.9765625 C183.89321723 63.0554858 197.91837921 75.06039594 211.47094727 88.51611328 C212.38658447 89.42232422 213.30222168 90.32853516 214.24560547 91.26220703 C220.28568271 97.33137853 225.80791467 103.65909328 231.09594727 110.39111328 C232.05138428 111.60395996 232.05138428 111.60395996 233.02612305 112.84130859 C263.0757991 151.41633645 283.86449818 196.35520008 291.67407227 244.77636719 C291.95375046 246.50978936 292.24529641 248.24134124 292.54907227 249.97070312 C298.81750269 286.21006653 297.01720452 326.72795823 286.76245117 362.05908203 C286.06657339 364.49388956 285.42753435 366.93909207 284.79516602 369.39111328 C277.0521511 398.77893147 264.18381518 427.27428825 247.09594727 452.39111328 C246.65895508 453.03371094 246.22196289 453.67630859 245.77172852 454.33837891 C242.96809027 458.42306416 240.06987495 462.42895856 237.09594727 466.39111328 C236.66459473 466.96667969 236.23324219 467.54224609 235.78881836 468.13525391 C229.06148553 477.04608396 221.85088128 485.3635201 214.09594727 493.39111328 C213.41580566 494.09848633 212.73566406 494.80585937 212.03491211 495.53466797 C203.1156156 504.76751039 194.1486335 513.55373243 183.78051758 521.14648438 C182.09004769 522.39547213 180.43191798 523.67926423 178.77563477 524.97314453 C159.91623122 539.51378488 138.78477447 550.71958838 117.09594727 560.39111328 C116.33926758 560.73577637 115.58258789 561.08043945 114.80297852 561.43554688 C92.72636441 571.36070383 66.99818725 577.07713578 43.09594727 580.39111328 C41.92032227 580.56247803 41.92032227 580.56247803 40.72094727 580.73730469 C13.06186639 584.57568454 -17.45319009 584.41255173 -44.90405273 579.39111328 C-45.8413623 579.2301416 -46.77867187 579.06916992 -47.74438477 578.90332031 C-77.73161015 573.67176314 -107.03247827 563.68228953 -133.90405273 549.39111328 C-134.6070752 549.0229248 -135.31009766 548.65473633 -136.03442383 548.27539062 C-157.59911028 536.93389183 -177.30877926 522.80433029 -195.01733398 506.09033203 C-197.28729671 503.96780937 -199.58308403 501.94393251 -201.96655273 499.95361328 C-253.92273478 454.73651761 -284.09693524 380.39616289 -289.65405273 313.01611328 C-289.77159421 310.47033693 -289.85571317 307.93810846 -289.90405273 305.39111328 C-289.9245166 304.45138672 -289.94498047 303.51166016 -289.96606445 302.54345703 C-290.58750048 269.05781324 -287.20902603 236.37360795 -276.90405273 204.39111328 C-276.65461914 203.59398926 -276.40518555 202.79686523 -276.14819336 201.97558594 C-264.23446492 164.20539161 -243.72041465 130.20165476 -217.90405273 100.39111328 C-217.13315308 99.48776245 -217.13315308 99.48776245 -216.34667969 98.56616211 C-205.07622459 85.47540983 -192.73589069 72.86383417 -178.72045898 62.71142578 C-176.71240405 61.25180736 -174.73073781 59.75965853 -172.74780273 58.26611328 C-157.7037192 47.04628903 -141.80232251 37.4077918 -124.85742188 29.34106445 C-123.45130154 28.65724815 -122.05574967 27.95154395 -120.66748047 27.23217773 C-102.56640767 17.88810551 -82.71744161 11.86849034 -62.90405273 7.39111328 C-62.05294922 7.1982373 -61.2018457 7.00536133 -60.32495117 6.80664062 C-40.32629726 2.36636652 -20.49691691 -0.12877644 0 0 Z M-84.74975586 36.50244141 C-87.44431661 37.61397825 -90.1936507 38.49542487 -92.96655273 39.39111328 C-120.6043289 49.20583554 -146.41200547 64.68720029 -168.90405273 83.39111328 C-169.40308105 83.79990723 -169.90210938 84.20870117 -170.41625977 84.62988281 C-184.4804585 96.1794317 -197.88635412 108.86687768 -208.90405273 123.39111328 C-209.8426617 124.60089855 -210.78147855 125.81052256 -211.72045898 127.02001953 C-234.12324982 156.13244079 -250.86268818 188.15906179 -259.34790039 224.05126953 C-259.7375704 225.69068893 -260.13362277 227.32859834 -260.53442383 228.96533203 C-263.29106303 240.22753374 -265.51576683 251.27950304 -266.54467773 262.83642578 C-266.90405273 266.39111328 -266.90405273 266.39111328 -267.41162109 268.1237793 C-268.13841618 271.47020763 -268.10713197 274.81360178 -268.14233398 278.22314453 C-268.15212784 278.99900406 -268.16192169 279.77486359 -268.17201233 280.57423401 C-268.50749034 314.24290766 -264.64363533 346.24019379 -253.71655273 378.26611328 C-253.21720215 379.72984375 -253.21720215 379.72984375 -252.70776367 381.22314453 C-252.38710938 382.12162109 -252.06645508 383.02009766 -251.73608398 383.94580078 C-251.45482666 384.7345459 -251.17356934 385.52329102 -250.88378906 386.3359375 C-249.83290689 388.54035468 -248.62436125 389.68750139 -246.90405273 391.39111328 C-245.86425781 393.42138672 -245.86425781 393.42138672 -244.92358398 395.75048828 C-244.39075806 397.04212891 -244.39075806 397.04212891 -243.84716797 398.35986328 C-243.47406494 399.27767578 -243.10096191 400.19548828 -242.71655273 401.14111328 C-237.31704142 414.06023002 -230.91880042 426.02909788 -223.47045898 437.87939453 C-221.90405273 440.39111328 -221.90405273 440.39111328 -220.90405273 442.39111328 C-220.24405273 442.39111328 -219.58405273 442.39111328 -218.90405273 442.39111328 C-218.67588867 443.08205078 -218.44772461 443.77298828 -218.21264648 444.48486328 C-216.61125274 448.04139149 -214.40102003 450.88142566 -211.96655273 453.89111328 C-211.47856201 454.50132324 -210.99057129 455.1115332 -210.48779297 455.74023438 C-208.96842649 457.63096904 -207.43801447 459.51220784 -205.90405273 461.39111328 C-205.44256836 461.95991211 -204.98108398 462.52871094 -204.50561523 463.11474609 C-199.38044177 469.40641496 -194.04867661 475.43193892 -188.34155273 481.20361328 C-187.57210327 481.98696045 -187.57210327 481.98696045 -186.78710938 482.78613281 C-184.31088638 485.56059125 -184.31088638 485.56059125 -180.90405273 486.39111328 C-180.68749023 486.94927734 -180.47092773 487.50744141 -180.24780273 488.08251953 C-178.47712325 491.12458806 -176.08326838 493.11701757 -173.40405273 495.32861328 C-172.55170044 496.03824219 -172.55170044 496.03824219 -171.68212891 496.76220703 C-158.57083048 507.51588711 -144.57542792 516.91351082 -129.90405273 525.39111328 C-129.23647949 525.78250488 -128.56890625 526.17389648 -127.88110352 526.57714844 C-109.34854151 537.34080175 -88.52046841 544.6977513 -67.90405273 550.39111328 C-67.10773438 550.61105957 -66.31141602 550.83100586 -65.4909668 551.05761719 C-28.70863525 560.90718848 10.56621663 562.29309431 48.09594727 556.39111328 C49.00940918 556.25189453 49.92287109 556.11267578 50.86401367 555.96923828 C82.10987053 551.06703739 113.11997083 539.88597785 140.09594727 523.39111328 C140.65258057 523.0538623 141.20921387 522.71661133 141.78271484 522.36914062 C158.02614756 512.49944609 172.8165671 501.20586482 186.87719727 488.39111328 C188.68863073 486.75827185 190.5199492 485.18274435 192.40844727 483.64111328 C197.56509211 479.32392225 201.5293318 474.61811618 205.44750977 469.18408203 C205.99149414 468.59240234 206.53547852 468.00072266 207.09594727 467.39111328 C208.08594727 467.39111328 209.07594727 467.39111328 210.09594727 467.39111328 C211.81846932 465.46983869 213.33049539 463.59141728 214.84594727 461.51611328 C215.29204346 460.91822998 215.73813965 460.32034668 216.19775391 459.7043457 C217.50750911 457.94062383 218.80280924 456.16703668 220.09594727 454.39111328 C220.69793945 453.58029297 221.29993164 452.76947266 221.92016602 451.93408203 C227.33434265 444.44862233 232.04509653 436.49333702 236.78540039 428.57177734 C237.94286519 426.64583182 239.11792239 424.73225497 240.29907227 422.82080078 C245.64071927 413.9250658 249.39495939 404.65842551 253.07617188 394.98217773 C254.19342319 392.14344461 255.40215466 389.35189367 256.61157227 386.55126953 C259.15702889 380.47048341 260.99540447 374.32577988 262.65844727 367.95361328 C262.95581787 366.82544189 263.25318848 365.69727051 263.55957031 364.53491211 C266.22436425 354.22944437 268.49151615 343.91509362 270.09594727 333.39111328 C270.21309082 332.63846191 270.33023438 331.88581055 270.45092773 331.11035156 C272.36132368 318.04982889 272.30050215 304.87384262 272.34594727 291.70361328 C272.35130493 290.83514771 272.3566626 289.96668213 272.36218262 289.07189941 C272.47046682 265.90017359 269.12773287 243.73601559 263.09594727 221.39111328 C262.91306152 220.70936035 262.73017578 220.02760742 262.54174805 219.32519531 C251.66136081 179.28049708 231.10951298 143.33481733 203.22094727 112.73486328 C201.27100002 110.58418617 199.36568597 108.40286357 197.47094727 106.20361328 C155.68662909 58.36777316 87.79562792 27.22966475 24.90405273 22.60644531 C-11.5789254 20.54348938 -50.62055493 22.2431682 -84.74975586 36.50244141 Z " fill="#B60F12" transform="translate(509.904052734375,221.60888671875)"/>
<path d="M0 0 C1.00546875 0.43183594 2.0109375 0.86367188 3.046875 1.30859375 C4.84898437 2.08396484 4.84898437 2.08396484 6.6875 2.875 C8.27546955 3.53393252 9.86405955 4.19137097 11.453125 4.84765625 C65.61806537 27.38124675 109.81310309 65.66129785 141.375 115 C142.03886719 116.03382813 142.70273437 117.06765625 143.38671875 118.1328125 C144.6875 120.875 144.6875 120.875 144.39453125 123.2421875 C144.16121094 123.78101563 143.92789062 124.31984375 143.6875 124.875 C143.2028125 124.07578125 142.718125 123.2765625 142.21875 122.453125 C134.77397273 110.25514378 127.12291925 98.37026386 117.8046875 87.5 C117.30106689 86.9114624 116.79744629 86.3229248 116.27856445 85.71655273 C115.27188544 84.54490764 114.26011242 83.37761715 113.24291992 82.21508789 C109.6875 78.09353811 109.6875 78.09353811 109.6875 75.875 C109.09324219 75.61847656 108.49898437 75.36195313 107.88671875 75.09765625 C105.47687747 73.75790435 104.23878012 72.4376757 102.5 70.3125 C99.73289637 67.04827603 96.87481961 63.92787108 93.875 60.875 C93.12605469 60.111875 92.37710937 59.34875 91.60546875 58.5625 C89.86301771 56.65481368 89.86301771 56.65481368 87.6875 56.875 C86.56793028 55.79041683 85.45610265 54.69714977 84.375 53.57421875 C82.20910451 51.39328232 79.95830429 49.32143308 77.6875 47.25 C76.45 46.11691406 76.45 46.11691406 75.1875 44.9609375 C72.22525256 42.4893123 69.2218141 40.54626242 65.6875 39 C63.6875 37.875 63.6875 37.875 61.4765625 35.56640625 C58.56293228 32.7547939 55.5380387 30.70584062 52.0625 28.6875 C51.41643799 28.30730713 50.77037598 27.92711426 50.10473633 27.53540039 C14.93127666 7.07273522 -23.32458453 -7.74505014 -64.21508789 -10.95214844 C-65.75483096 -11.07904148 -67.29297078 -11.22579517 -68.82983398 -11.38378906 C-75.65286729 -12.07383406 -82.39435527 -12.28134449 -89.25 -12.25 C-90.29889404 -12.24734131 -91.34778809 -12.24468262 -92.4284668 -12.24194336 C-104.53714298 -12.41734692 -104.53714298 -12.41734692 -116.3125 -10.125 C-118.18633253 -10.01859941 -120.06178056 -9.94016147 -121.9375 -9.875 C-139.05264796 -8.7399021 -156.03446823 -4.38603054 -172.3125 0.875 C-173.65828125 1.29072266 -173.65828125 1.29072266 -175.03125 1.71484375 C-179.49159937 3.12779689 -183.69186402 4.89596008 -187.94140625 6.84765625 C-190.46872558 7.94268917 -193.02216902 8.85002544 -195.625 9.75 C-201.79218041 11.93891474 -207.51519328 14.86005594 -213.3125 17.875 C-213.93946777 18.1846167 -214.56643555 18.4942334 -215.21240234 18.81323242 C-225.12332591 23.82399813 -235.13204614 29.4142683 -243.67578125 36.53125 C-245.3125 37.875 -245.3125 37.875 -247.875 39.375 C-250.96056609 41.2738099 -253.48805541 43.61313813 -256.15234375 46.05859375 C-258.3125 47.875 -258.3125 47.875 -261.1875 49.7578125 C-264.52678807 52.02018017 -267.44673636 54.55736927 -270.375 57.3125 C-270.93155273 57.83255615 -271.48810547 58.3526123 -272.06152344 58.88842773 C-289.32967015 75.12155218 -303.95113941 92.71695335 -316.75390625 112.6796875 C-318.3125 114.875 -318.3125 114.875 -320.3125 115.875 C-319.87859015 110.57510107 -316.97085198 107.09382963 -313.9375 102.9375 C-313.39802734 102.18823242 -312.85855469 101.43896484 -312.30273438 100.66699219 C-303.65238141 88.73355205 -294.54452167 77.48940802 -284.3125 66.875 C-283.77834473 66.31893066 -283.24418945 65.76286133 -282.69384766 65.18994141 C-275.62687489 57.87095178 -268.36182623 51.12069999 -260.3125 44.875 C-259.0348871 43.85710857 -257.75756332 42.83885418 -256.48046875 41.8203125 C-241.48921293 29.98362812 -225.35414719 20.44722532 -208.3125 11.875 C-207.61801758 11.52308594 -206.92353516 11.17117188 -206.20800781 10.80859375 C-196.17724883 5.76763745 -186.0503355 1.89988331 -175.34521484 -1.45532227 C-173.34881069 -2.11303745 -171.39975829 -2.84653144 -169.44140625 -3.609375 C-119.32714459 -22.63089124 -49.21067379 -21.19119924 0 0 Z " fill="#F65C3E" transform="translate(602.3125,259.125)"/>
<path d="M0 0 C2.5106324 2.23939324 3.72525204 4.25146754 4.98046875 7.359375 C5.33568604 8.22046875 5.69090332 9.0815625 6.05688477 9.96875 C6.42998779 10.8865625 6.80309082 11.804375 7.1875 12.75 C12.59659136 25.6920384 18.97474156 37.67397094 26.53125 49.48828125 C28 52 28 52 28 54 C28.66 54 29.32 54 30 54 C31.37719268 55.84937303 32.67483775 57.75811556 33.9375 59.6875 C38.78526609 66.92513674 44.27579799 73.44683581 50 80 C50.639375 80.75152344 51.27875 81.50304687 51.9375 82.27734375 C58.09950301 89.48061115 64.80100377 96.12211217 72.0078125 102.27734375 C73.3175203 103.40985579 74.60518381 104.56846764 75.8671875 105.75390625 C88.71670898 117.72846031 103.84375652 127.24222471 119 136 C120.00135986 136.5870874 120.00135986 136.5870874 121.02294922 137.18603516 C139.55551123 147.94968847 160.38358433 155.30663802 181 161 C182.19447754 161.32991943 182.19447754 161.32991943 183.41308594 161.66650391 C220.19541748 171.5160752 259.47026937 172.90198103 297 167 C298.37019287 166.79117188 298.37019287 166.79117188 299.76806641 166.578125 C331.01392326 161.67592411 362.02402356 150.49486457 389 134 C389.5566333 133.66274902 390.1132666 133.32549805 390.68676758 132.97802734 C408.31849681 122.28563161 408.31849681 122.28563161 424 109 C425.18068107 108.13643231 426.36925343 107.2836203 427.5625 106.4375 C432.52253632 102.75805488 436.71727883 98.43068466 441 94 C446 89 446 89 448.5 86.5625 C451.17643205 83.81915715 453.58158375 80.97119711 456 78 C456.66 78.66 457.32 79.32 458 80 C447.05038483 92.1784297 435.95548044 103.91947168 423 114 C422.0409375 114.77601563 421.081875 115.55203125 420.09375 116.3515625 C410.88418477 123.67735303 401.03411145 129.8712813 391 136 C390.20271484 136.495 389.40542969 136.99 388.58398438 137.5 C382.51737982 141.22149023 376.30426141 144.45235249 369.875 147.5 C368.86945068 147.97775879 367.86390137 148.45551758 366.82788086 148.94775391 C358.68964177 152.76643111 350.51358237 156.12366977 342 159 C341.36078613 159.21849609 340.72157227 159.43699219 340.06298828 159.66210938 C330.19060413 163.00768254 320.22201014 165.4137967 310.02783203 167.5546875 C307.2476611 168.16521384 304.50407469 168.90685797 301.75 169.625 C272.52868641 176.19441079 238.34936857 175.07224588 209 170 C207.96246582 169.82307617 206.92493164 169.64615234 205.85595703 169.46386719 C177.45386963 164.48737797 149.38016452 155.85804226 124 142 C122.99549805 141.45859375 122.99549805 141.45859375 121.97070312 140.90625 C103.04646134 130.67116712 86.16740089 118.12651602 70 104 C69.49082031 103.55543457 68.98164063 103.11086914 68.45703125 102.65283203 C47.23349282 83.98675726 29.90647338 61.5547461 16 37 C15.6601709 36.40541992 15.3203418 35.81083984 14.97021484 35.19824219 C10.65300649 27.58789786 6.92200421 19.80303019 3.5 11.75 C3.14929443 10.92725586 2.79858887 10.10451172 2.43725586 9.25683594 C2.11764893 8.48629883 1.79804199 7.71576172 1.46875 6.921875 C1.18451172 6.23706055 0.90027344 5.55224609 0.60742188 4.84667969 C0 3 0 3 0 0 Z " fill="#D61113" transform="translate(261,610)"/>
<path d="M0 0 C0.66 0 1.32 0 2 0 C-3.56647401 12.08720072 -16.89911097 22.58786835 -27.16796875 30.7265625 C-29.17223932 32.33550798 -31.11982496 33.95679556 -33.05078125 35.6484375 C-40.92855019 42.5393585 -49.14850458 48.42553772 -58 54 C-58.72509766 54.46519043 -59.45019531 54.93038086 -60.19726562 55.40966797 C-94.26855651 77.18067002 -132.01959077 89.79263532 -172 95 C-172.66484909 95.08692108 -173.32969818 95.17384216 -174.01469421 95.26339722 C-179.73355075 95.95658944 -185.38292127 96.18929935 -191.140625 96.23828125 C-192.56944504 96.25283607 -192.56944504 96.25283607 -194.02713013 96.26768494 C-197.10146333 96.29254818 -200.17557635 96.30520684 -203.25 96.3125 C-204.29923645 96.31511841 -205.3484729 96.31773682 -206.42950439 96.32043457 C-223.62698117 96.32502975 -240.08967555 95.3339868 -257 92 C-258.38759521 91.73582275 -258.38759521 91.73582275 -259.80322266 91.46630859 C-262.27192787 90.98528581 -264.73068238 90.47570537 -267.1875 89.9375 C-267.87183105 89.78764648 -268.55616211 89.63779297 -269.26123047 89.48339844 C-272.92144176 88.57827868 -273.81829966 88.27255052 -276 85 C-275.31301025 85.13575439 -274.62602051 85.27150879 -273.91821289 85.41137695 C-229.10793143 94.18772963 -184.6823618 97.01908865 -140 86 C-139.25572754 85.81646973 -138.51145508 85.63293945 -137.74462891 85.44384766 C-133.47303719 84.37418544 -129.23235397 83.21488807 -125 82 C-123.88496094 81.68289063 -122.76992188 81.36578125 -121.62109375 81.0390625 C-114.17587561 78.84153648 -107.0801533 76.17751414 -100 73 C-99.32759277 72.6999707 -98.65518555 72.39994141 -97.96240234 72.09082031 C-64.39082675 56.99962614 -35.56702305 36.48849915 -9.5 10.625 C-9.00725586 10.13700928 -8.51451172 9.64901855 -8.00683594 9.14624023 C-5.77320677 6.90219158 -3.72738325 4.64962989 -1.78125 2.1484375 C-1.1934375 1.43945312 -0.605625 0.73046875 0 0 Z " fill="#920C0E" transform="translate(719,689)"/>
</svg>
